<ttFont>
    <TTGlyph name="A" xMin="-1" yMin="-11" xMax="762" yMax="690">
      <contour>
        <pt x="689" y="690" on="0"/>
        <pt x="762" y="652" on="0"/>
        <pt x="762" y="572" on="0"/>
        <pt x="663" y="474" on="0"/>
        <pt x="621" y="474" on="0"/>
        <pt x="621" y="487" on="1"/>
        <pt x="621" y="503" on="0"/>
        <pt x="674" y="554" on="0"/>
        <pt x="674" y="560" on="1"/>
        <pt x="674" y="563" on="0"/>
        <pt x="669" y="563" on="1"/>
        <pt x="616" y="563" on="0"/>
        <pt x="403" y="393" on="0"/>
        <pt x="230" y="180" on="0"/>
        <pt x="230" y="125" on="1"/>
        <pt x="230" y="108" on="0"/>
        <pt x="242" y="108" on="1"/>
        <pt x="270" y="108" on="0"/>
        <pt x="510" y="328" on="0"/>
        <pt x="616" y="439" on="1"/>
        <pt x="626" y="441" on="0"/>
        <pt x="640" y="441" on="0"/>
        <pt x="658" y="430" on="0"/>
        <pt x="666" y="418" on="0"/>
        <pt x="664" y="401" on="0"/>
        <pt x="640" y="345" on="0"/>
        <pt x="609" y="286" on="0"/>
        <pt x="564" y="210" on="0"/>
        <pt x="533" y="161" on="0"/>
        <pt x="514" y="132" on="1"/>
        <pt x="494" y="99" on="0"/>
        <pt x="494" y="88" on="0"/>
        <pt x="501" y="88" on="0"/>
        <pt x="505" y="90" on="0"/>
        <pt x="523" y="103" on="0"/>
        <pt x="547" y="119" on="0"/>
        <pt x="559" y="129" on="0"/>
        <pt x="574" y="129" on="0"/>
        <pt x="586" y="119" on="0"/>
        <pt x="586" y="112" on="1"/>
        <pt x="586" y="80" on="0"/>
        <pt x="438" y="-11" on="0"/>
        <pt x="381" y="-11" on="0"/>
        <pt x="346" y="19" on="0"/>
        <pt x="346" y="62" on="0"/>
        <pt x="358" y="94" on="1"/>
        <pt x="370" y="125" on="1"/>
        <pt x="370" y="128" on="0"/>
        <pt x="366" y="128" on="0"/>
        <pt x="361" y="125" on="1"/>
        <pt x="204" y="0" on="0"/>
        <pt x="127" y="0" on="1"/>
        <pt x="68" y="0" on="0"/>
        <pt x="-1" y="92" on="0"/>
        <pt x="-1" y="236" on="0"/>
        <pt x="79" y="398" on="0"/>
        <pt x="212" y="529" on="0"/>
        <pt x="374" y="633" on="0"/>
        <pt x="550" y="690" on="0"/>
      </contour>
    </TTGlyph>
    <TTGlyph name="AE" xMin="-1" yMin="-49" xMax="1254" yMax="759">
      <contour>
        <pt x="1087" y="759" on="1"/>
        <pt x="1254" y="758" on="0"/>
        <pt x="1254" y="665" on="1"/>
        <pt x="1254" y="625" on="0"/>
        <pt x="1192" y="526" on="0"/>
        <pt x="1121" y="463" on="0"/>
        <pt x="1104" y="463" on="1"/>
        <pt x="1096" y="463" on="0"/>
        <pt x="1084" y="476" on="0"/>
        <pt x="1084" y="497" on="0"/>
        <pt x="1123" y="541" on="0"/>
        <pt x="1123" y="563" on="0"/>
        <pt x="1098" y="563" on="1"/>
        <pt x="1033" y="563" on="0"/>
        <pt x="742" y="456" on="0"/>
        <pt x="741" y="429" on="1"/>
        <pt x="742" y="422" on="0"/>
        <pt x="793" y="422" on="0"/>
        <pt x="858" y="432" on="0"/>
        <pt x="875" y="432" on="1"/>
        <pt x="920" y="432" on="0"/>
        <pt x="920" y="408" on="1"/>
        <pt x="920" y="395" on="0"/>
        <pt x="890" y="379" on="0"/>
        <pt x="869" y="370" on="0"/>
        <pt x="831" y="355" on="0"/>
        <pt x="806" y="343" on="0"/>
        <pt x="782" y="332" on="1"/>
        <pt x="742" y="315" on="1"/>
        <pt x="702" y="298" on="0"/>
        <pt x="643" y="268" on="0"/>
        <pt x="602" y="248" on="0"/>
        <pt x="574" y="232" on="0"/>
        <pt x="562" y="224" on="1"/>
        <pt x="537" y="207" on="0"/>
        <pt x="537" y="198" on="1"/>
        <pt x="537" y="178" on="0"/>
        <pt x="569" y="178" on="1"/>
        <pt x="637" y="178" on="0"/>
        <pt x="799" y="228" on="0"/>
        <pt x="912" y="277" on="0"/>
        <pt x="920" y="277" on="1"/>
        <pt x="955" y="276" on="0"/>
        <pt x="1002" y="208" on="0"/>
        <pt x="1002" y="174" on="1"/>
        <pt x="1002" y="126" on="0"/>
        <pt x="870" y="20" on="0"/>
        <pt x="673" y="-49" on="0"/>
        <pt x="501" y="-49" on="0"/>
        <pt x="389" y="22" on="0"/>
        <pt x="378" y="97" on="1"/>
        <pt x="378" y="115" on="0"/>
        <pt x="385" y="132" on="1"/>
        <pt x="205" y="0" on="0"/>
        <pt x="127" y="0" on="1"/>
        <pt x="68" y="0" on="0"/>
        <pt x="-1" y="92" on="0"/>
        <pt x="-1" y="236" on="0"/>
        <pt x="79" y="398" on="0"/>
        <pt x="212" y="529" on="0"/>
        <pt x="374" y="633" on="0"/>
        <pt x="550" y="690" on="0"/>
        <pt x="694" y="690" on="0"/>
        <pt x="729" y="668" on="1"/>
        <pt x="811" y="709" on="0"/>
        <pt x="1005" y="759" on="0"/>
      </contour>
      <contour>
        <pt x="242" y="108" on="1"/>
        <pt x="266" y="108" on="0"/>
        <pt x="414" y="197" on="0"/>
        <pt x="644" y="330" on="0"/>
        <pt x="742" y="368" on="1"/>
        <pt x="748" y="370" on="0"/>
        <pt x="748" y="372" on="1"/>
        <pt x="748" y="380" on="0"/>
        <pt x="736" y="382" on="1"/>
        <pt x="671" y="389" on="0"/>
        <pt x="667" y="390" on="1"/>
        <pt x="613" y="402" on="0"/>
        <pt x="569" y="473" on="0"/>
        <pt x="569" y="503" on="1"/>
        <pt x="569" y="510" on="0"/>
        <pt x="571" y="522" on="1"/>
        <pt x="461" y="451" on="0"/>
        <pt x="230" y="190" on="0"/>
        <pt x="230" y="125" on="1"/>
        <pt x="230" y="108" on="0"/>
      </contour>
    </TTGlyph>
    <TTGlyph name="Aacute" xMin="-1" yMin="-11" xMax="942" yMax="872">
      <contour>
        <pt x="689" y="690" on="0"/>
        <pt x="762" y="652" on="0"/>
        <pt x="762" y="572" on="0"/>
        <pt x="663" y="474" on="0"/>
        <pt x="621" y="474" on="0"/>
        <pt x="621" y="487" on="1"/>
        <pt x="621" y="503" on="0"/>
        <pt x="674" y="554" on="0"/>
        <pt x="674" y="560" on="1"/>
        <pt x="674" y="563" on="0"/>
        <pt x="669" y="563" on="1"/>
        <pt x="616" y="563" on="0"/>
        <pt x="403" y="393" on="0"/>
        <pt x="230" y="180" on="0"/>
        <pt x="230" y="125" on="1"/>
        <pt x="230" y="108" on="0"/>
        <pt x="242" y="108" on="1"/>
        <pt x="270" y="108" on="0"/>
        <pt x="510" y="328" on="0"/>
        <pt x="616" y="439" on="1"/>
        <pt x="626" y="441" on="0"/>
        <pt x="640" y="441" on="0"/>
        <pt x="658" y="430" on="0"/>
        <pt x="666" y="418" on="0"/>
        <pt x="664" y="401" on="0"/>
        <pt x="640" y="345" on="0"/>
        <pt x="609" y="286" on="0"/>
        <pt x="564" y="210" on="0"/>
        <pt x="533" y="161" on="0"/>
        <pt x="514" y="132" on="1"/>
        <pt x="494" y="99" on="0"/>
        <pt x="494" y="88" on="0"/>
        <pt x="501" y="88" on="0"/>
        <pt x="505" y="90" on="0"/>
        <pt x="523" y="103" on="0"/>
        <pt x="547" y="119" on="0"/>
        <pt x="559" y="129" on="0"/>
        <pt x="574" y="129" on="0"/>
        <pt x="586" y="119" on="0"/>
        <pt x="586" y="112" on="1"/>
        <pt x="586" y="80" on="0"/>
        <pt x="438" y="-11" on="0"/>
        <pt x="381" y="-11" on="0"/>
        <pt x="346" y="19" on="0"/>
        <pt x="346" y="62" on="0"/>
        <pt x="358" y="94" on="1"/>
        <pt x="370" y="125" on="1"/>
        <pt x="370" y="128" on="0"/>
        <pt x="366" y="128" on="0"/>
        <pt x="361" y="125" on="1"/>
        <pt x="204" y="0" on="0"/>
        <pt x="127" y="0" on="1"/>
        <pt x="68" y="0" on="0"/>
        <pt x="-1" y="92" on="0"/>
        <pt x="-1" y="236" on="0"/>
        <pt x="79" y="398" on="0"/>
        <pt x="212" y="529" on="0"/>
        <pt x="374" y="633" on="0"/>
        <pt x="550" y="690" on="0"/>
      </contour>
      <contour>
        <pt x="937" y="845" on="1"/>
        <pt x="942" y="832" on="0"/>
        <pt x="942" y="824" on="1"/>
        <pt x="942" y="800" on="0"/>
        <pt x="878" y="770" on="0"/>
        <pt x="846" y="767" on="1"/>
        <pt x="814" y="764" on="1"/>
        <pt x="789" y="760" on="0"/>
        <pt x="732" y="730" on="1"/>
        <pt x="714" y="721" on="1"/>
        <pt x="705" y="726" on="0"/>
        <pt x="705" y="734" on="1"/>
        <pt x="705" y="766" on="0"/>
        <pt x="839" y="872" on="0"/>
        <pt x="925" y="872" on="0"/>
      </contour>
    </TTGlyph>
    <TTGlyph name="Acircumflex" xMin="-1" yMin="-11" xMax="863" yMax="876">
      <contour>
        <pt x="689" y="690" on="0"/>
        <pt x="762" y="652" on="0"/>
        <pt x="762" y="572" on="0"/>
        <pt x="663" y="474" on="0"/>
        <pt x="621" y="474" on="0"/>
        <pt x="621" y="487" on="1"/>
        <pt x="621" y="503" on="0"/>
        <pt x="674" y="554" on="0"/>
        <pt x="674" y="560" on="1"/>
        <pt x="674" y="563" on="0"/>
        <pt x="669" y="563" on="1"/>
        <pt x="616" y="563" on="0"/>
        <pt x="403" y="393" on="0"/>
        <pt x="230" y="180" on="0"/>
        <pt x="230" y="125" on="1"/>
        <pt x="230" y="108" on="0"/>
        <pt x="242" y="108" on="1"/>
        <pt x="270" y="108" on="0"/>
        <pt x="510" y="328" on="0"/>
        <pt x="616" y="439" on="1"/>
        <pt x="626" y="441" on="0"/>
        <pt x="640" y="441" on="0"/>
        <pt x="658" y="430" on="0"/>
        <pt x="666" y="418" on="0"/>
        <pt x="664" y="401" on="0"/>
        <pt x="640" y="345" on="0"/>
        <pt x="609" y="286" on="0"/>
        <pt x="564" y="210" on="0"/>
        <pt x="533" y="161" on="0"/>
        <pt x="514" y="132" on="1"/>
        <pt x="494" y="99" on="0"/>
        <pt x="494" y="88" on="0"/>
        <pt x="501" y="88" on="0"/>
        <pt x="505" y="90" on="0"/>
        <pt x="523" y="103" on="0"/>
        <pt x="547" y="119" on="0"/>
        <pt x="559" y="129" on="0"/>
        <pt x="574" y="129" on="0"/>
        <pt x="586" y="119" on="0"/>
        <pt x="586" y="112" on="1"/>
        <pt x="586" y="80" on="0"/>
        <pt x="438" y="-11" on="0"/>
        <pt x="381" y="-11" on="0"/>
        <pt x="346" y="19" on="0"/>
        <pt x="346" y="62" on="0"/>
        <pt x="358" y="94" on="1"/>
        <pt x="370" y="125" on="1"/>
        <pt x="370" y="128" on="0"/>
        <pt x="366" y="128" on="0"/>
        <pt x="361" y="125" on="1"/>
        <pt x="204" y="0" on="0"/>
        <pt x="127" y="0" on="1"/>
        <pt x="68" y="0" on="0"/>
        <pt x="-1" y="92" on="0"/>
        <pt x="-1" y="236" on="0"/>
        <pt x="79" y="398" on="0"/>
        <pt x="212" y="529" on="0"/>
        <pt x="374" y="633" on="0"/>
        <pt x="550" y="690" on="0"/>
      </contour>
      <contour>
        <pt x="842" y="682" on="1"/>
        <pt x="800" y="682" on="0"/>
        <pt x="778" y="785" on="1"/>
        <pt x="763" y="781" on="0"/>
        <pt x="657" y="760" on="0"/>
        <pt x="636" y="749" on="1"/>
        <pt x="625" y="745" on="0"/>
        <pt x="606" y="745" on="0"/>
        <pt x="606" y="754" on="1"/>
        <pt x="606" y="790" on="0"/>
        <pt x="732" y="876" on="0"/>
        <pt x="817" y="876" on="1"/>
        <pt x="832" y="876" on="0"/>
        <pt x="863" y="774" on="0"/>
        <pt x="863" y="682" on="0"/>
      </contour>
    </TTGlyph>
    <TTGlyph name="Adieresis" xMin="-1" yMin="-11" xMax="843" yMax="875">
      <contour>
        <pt x="689" y="690" on="0"/>
        <pt x="762" y="652" on="0"/>
        <pt x="762" y="572" on="0"/>
        <pt x="663" y="474" on="0"/>
        <pt x="621" y="474" on="0"/>
        <pt x="621" y="487" on="1"/>
        <pt x="621" y="503" on="0"/>
        <pt x="674" y="554" on="0"/>
        <pt x="674" y="560" on="1"/>
        <pt x="674" y="563" on="0"/>
        <pt x="669" y="563" on="1"/>
        <pt x="616" y="563" on="0"/>
        <pt x="403" y="393" on="0"/>
        <pt x="230" y="180" on="0"/>
        <pt x="230" y="125" on="1"/>
        <pt x="230" y="108" on="0"/>
        <pt x="242" y="108" on="1"/>
        <pt x="270" y="108" on="0"/>
        <pt x="510" y="328" on="0"/>
        <pt x="616" y="439" on="1"/>
        <pt x="626" y="441" on="0"/>
        <pt x="640" y="441" on="0"/>
        <pt x="658" y="430" on="0"/>
        <pt x="666" y="418" on="0"/>
        <pt x="664" y="401" on="0"/>
        <pt x="640" y="345" on="0"/>
        <pt x="609" y="286" on="0"/>
        <pt x="564" y="210" on="0"/>
        <pt x="533" y="161" on="0"/>
        <pt x="514" y="132" on="1"/>
        <pt x="494" y="99" on="0"/>
        <pt x="494" y="88" on="0"/>
        <pt x="501" y="88" on="0"/>
        <pt x="505" y="90" on="0"/>
        <pt x="523" y="103" on="0"/>
        <pt x="547" y="119" on="0"/>
        <pt x="559" y="129" on="0"/>
        <pt x="574" y="129" on="0"/>
        <pt x="586" y="119" on="0"/>
        <pt x="586" y="112" on="1"/>
        <pt x="586" y="80" on="0"/>
        <pt x="438" y="-11" on="0"/>
        <pt x="381" y="-11" on="0"/>
        <pt x="346" y="19" on="0"/>
        <pt x="346" y="62" on="0"/>
        <pt x="358" y="94" on="1"/>
        <pt x="370" y="125" on="1"/>
        <pt x="370" y="128" on="0"/>
        <pt x="366" y="128" on="0"/>
        <pt x="361" y="125" on="1"/>
        <pt x="204" y="0" on="0"/>
        <pt x="127" y="0" on="1"/>
        <pt x="68" y="0" on="0"/>
        <pt x="-1" y="92" on="0"/>
        <pt x="-1" y="236" on="0"/>
        <pt x="79" y="398" on="0"/>
        <pt x="212" y="529" on="0"/>
        <pt x="374" y="633" on="0"/>
        <pt x="550" y="690" on="0"/>
      </contour>
      <contour>
        <pt x="582" y="730" on="1"/>
        <pt x="565" y="730" on="0"/>
        <pt x="545" y="754" on="0"/>
        <pt x="544" y="766" on="1"/>
        <pt x="542" y="777" on="1"/>
        <pt x="547" y="825" on="0"/>
        <pt x="623" y="875" on="0"/>
        <pt x="651" y="875" on="1"/>
        <pt x="692" y="875" on="0"/>
        <pt x="692" y="834" on="1"/>
        <pt x="692" y="808" on="0"/>
        <pt x="630" y="735" on="0"/>
      </contour>
      <contour>
        <pt x="733" y="722" on="1"/>
        <pt x="716" y="722" on="0"/>
        <pt x="696" y="746" on="0"/>
        <pt x="694" y="758" on="1"/>
        <pt x="693" y="769" on="1"/>
        <pt x="698" y="817" on="0"/>
        <pt x="774" y="867" on="0"/>
        <pt x="802" y="867" on="1"/>
        <pt x="843" y="867" on="0"/>
        <pt x="843" y="826" on="1"/>
        <pt x="843" y="800" on="0"/>
        <pt x="781" y="727" on="0"/>
      </contour>
    </TTGlyph>
    <TTGlyph name="Agrave" xMin="-1" yMin="-11" xMax="783" yMax="887">
      <contour>
        <pt x="689" y="690" on="0"/>
        <pt x="762" y="652" on="0"/>
        <pt x="762" y="572" on="0"/>
        <pt x="663" y="474" on="0"/>
        <pt x="621" y="474" on="0"/>
        <pt x="621" y="487" on="1"/>
        <pt x="621" y="503" on="0"/>
        <pt x="674" y="554" on="0"/>
        <pt x="674" y="560" on="1"/>
        <pt x="674" y="563" on="0"/>
        <pt x="669" y="563" on="1"/>
        <pt x="616" y="563" on="0"/>
        <pt x="403" y="393" on="0"/>
        <pt x="230" y="180" on="0"/>
        <pt x="230" y="125" on="1"/>
        <pt x="230" y="108" on="0"/>
        <pt x="242" y="108" on="1"/>
        <pt x="270" y="108" on="0"/>
        <pt x="510" y="328" on="0"/>
        <pt x="616" y="439" on="1"/>
        <pt x="626" y="441" on="0"/>
        <pt x="640" y="441" on="0"/>
        <pt x="658" y="430" on="0"/>
        <pt x="666" y="418" on="0"/>
        <pt x="664" y="401" on="0"/>
        <pt x="640" y="345" on="0"/>
        <pt x="609" y="286" on="0"/>
        <pt x="564" y="210" on="0"/>
        <pt x="533" y="161" on="0"/>
        <pt x="514" y="132" on="1"/>
        <pt x="494" y="99" on="0"/>
        <pt x="494" y="88" on="0"/>
        <pt x="501" y="88" on="0"/>
        <pt x="505" y="90" on="0"/>
        <pt x="523" y="103" on="0"/>
        <pt x="547" y="119" on="0"/>
        <pt x="559" y="129" on="0"/>
        <pt x="574" y="129" on="0"/>
        <pt x="586" y="119" on="0"/>
        <pt x="586" y="112" on="1"/>
        <pt x="586" y="80" on="0"/>
        <pt x="438" y="-11" on="0"/>
        <pt x="381" y="-11" on="0"/>
        <pt x="346" y="19" on="0"/>
        <pt x="346" y="62" on="0"/>
        <pt x="358" y="94" on="1"/>
        <pt x="370" y="125" on="1"/>
        <pt x="370" y="128" on="0"/>
        <pt x="366" y="128" on="0"/>
        <pt x="361" y="125" on="1"/>
        <pt x="204" y="0" on="0"/>
        <pt x="127" y="0" on="1"/>
        <pt x="68" y="0" on="0"/>
        <pt x="-1" y="92" on="0"/>
        <pt x="-1" y="236" on="0"/>
        <pt x="79" y="398" on="0"/>
        <pt x="212" y="529" on="0"/>
        <pt x="374" y="633" on="0"/>
        <pt x="550" y="690" on="0"/>
      </contour>
      <contour>
        <pt x="609" y="887" on="1"/>
        <pt x="657" y="887" on="0"/>
        <pt x="783" y="761" on="0"/>
        <pt x="783" y="717" on="1"/>
        <pt x="782" y="711" on="0"/>
        <pt x="772" y="706" on="1"/>
        <pt x="711" y="756" on="0"/>
        <pt x="681" y="766" on="1"/>
        <pt x="646" y="773" on="0"/>
        <pt x="618" y="787" on="1"/>
        <pt x="565" y="815" on="0"/>
        <pt x="565" y="842" on="1"/>
        <pt x="565" y="859" on="0"/>
        <pt x="590" y="887" on="0"/>
      </contour>
    </TTGlyph>
    <TTGlyph name="Aring" xMin="-1" yMin="-11" xMax="862" yMax="855">
      <contour>
        <pt x="689" y="690" on="0"/>
        <pt x="762" y="652" on="0"/>
        <pt x="762" y="572" on="0"/>
        <pt x="663" y="474" on="0"/>
        <pt x="621" y="474" on="0"/>
        <pt x="621" y="487" on="1"/>
        <pt x="621" y="503" on="0"/>
        <pt x="674" y="554" on="0"/>
        <pt x="674" y="560" on="1"/>
        <pt x="674" y="563" on="0"/>
        <pt x="669" y="563" on="1"/>
        <pt x="616" y="563" on="0"/>
        <pt x="403" y="393" on="0"/>
        <pt x="230" y="180" on="0"/>
        <pt x="230" y="125" on="1"/>
        <pt x="230" y="108" on="0"/>
        <pt x="242" y="108" on="1"/>
        <pt x="270" y="108" on="0"/>
        <pt x="510" y="328" on="0"/>
        <pt x="616" y="439" on="1"/>
        <pt x="626" y="441" on="0"/>
        <pt x="640" y="441" on="0"/>
        <pt x="658" y="430" on="0"/>
        <pt x="666" y="418" on="0"/>
        <pt x="664" y="401" on="0"/>
        <pt x="640" y="345" on="0"/>
        <pt x="609" y="286" on="0"/>
        <pt x="564" y="210" on="0"/>
        <pt x="533" y="161" on="0"/>
        <pt x="514" y="132" on="1"/>
        <pt x="494" y="99" on="0"/>
        <pt x="494" y="88" on="0"/>
        <pt x="501" y="88" on="0"/>
        <pt x="505" y="90" on="0"/>
        <pt x="523" y="103" on="0"/>
        <pt x="547" y="119" on="0"/>
        <pt x="559" y="129" on="0"/>
        <pt x="574" y="129" on="0"/>
        <pt x="586" y="119" on="0"/>
        <pt x="586" y="112" on="1"/>
        <pt x="586" y="80" on="0"/>
        <pt x="438" y="-11" on="0"/>
        <pt x="381" y="-11" on="0"/>
        <pt x="346" y="19" on="0"/>
        <pt x="346" y="62" on="0"/>
        <pt x="358" y="94" on="1"/>
        <pt x="370" y="125" on="1"/>
        <pt x="370" y="128" on="0"/>
        <pt x="366" y="128" on="0"/>
        <pt x="361" y="125" on="1"/>
        <pt x="204" y="0" on="0"/>
        <pt x="127" y="0" on="1"/>
        <pt x="68" y="0" on="0"/>
        <pt x="-1" y="92" on="0"/>
        <pt x="-1" y="236" on="0"/>
        <pt x="79" y="398" on="0"/>
        <pt x="212" y="529" on="0"/>
        <pt x="374" y="633" on="0"/>
        <pt x="550" y="690" on="0"/>
      </contour>
      <contour>
        <pt x="818" y="855" on="1"/>
        <pt x="837" y="855" on="0"/>
        <pt x="859" y="836" on="0"/>
        <pt x="860" y="826" on="1"/>
        <pt x="862" y="816" on="1"/>
        <pt x="862" y="770" on="0"/>
        <pt x="778" y="719" on="0"/>
        <pt x="743" y="719" on="1"/>
        <pt x="685" y="719" on="0"/>
        <pt x="685" y="756" on="1"/>
        <pt x="685" y="788" on="0"/>
        <pt x="767" y="855" on="0"/>
      </contour>
      <contour>
        <pt x="768" y="762" on="1"/>
        <pt x="809" y="775" on="0"/>
        <pt x="809" y="801" on="1"/>
        <pt x="809" y="812" on="0"/>
        <pt x="783" y="812" on="0"/>
        <pt x="754" y="784" on="0"/>
        <pt x="754" y="772" on="1"/>
        <pt x="754" y="762" on="0"/>
      </contour>
    </TTGlyph>
    <TTGlyph name="Atilde" xMin="-1" yMin="-11" xMax="850" yMax="856">
      <contour>
        <pt x="689" y="690" on="0"/>
        <pt x="762" y="652" on="0"/>
        <pt x="762" y="572" on="0"/>
        <pt x="663" y="474" on="0"/>
        <pt x="621" y="474" on="0"/>
        <pt x="621" y="487" on="1"/>
        <pt x="621" y="503" on="0"/>
        <pt x="674" y="554" on="0"/>
        <pt x="674" y="560" on="1"/>
        <pt x="674" y="563" on="0"/>
        <pt x="669" y="563" on="1"/>
        <pt x="616" y="563" on="0"/>
        <pt x="403" y="393" on="0"/>
        <pt x="230" y="180" on="0"/>
        <pt x="230" y="125" on="1"/>
        <pt x="230" y="108" on="0"/>
        <pt x="242" y="108" on="1"/>
        <pt x="270" y="108" on="0"/>
        <pt x="510" y="328" on="0"/>
        <pt x="616" y="439" on="1"/>
        <pt x="626" y="441" on="0"/>
        <pt x="640" y="441" on="0"/>
        <pt x="658" y="430" on="0"/>
        <pt x="666" y="418" on="0"/>
        <pt x="664" y="401" on="0"/>
        <pt x="640" y="345" on="0"/>
        <pt x="609" y="286" on="0"/>
        <pt x="564" y="210" on="0"/>
        <pt x="533" y="161" on="0"/>
        <pt x="514" y="132" on="1"/>
        <pt x="494" y="99" on="0"/>
        <pt x="494" y="88" on="0"/>
        <pt x="501" y="88" on="0"/>
        <pt x="505" y="90" on="0"/>
        <pt x="523" y="103" on="0"/>
        <pt x="547" y="119" on="0"/>
        <pt x="559" y="129" on="0"/>
        <pt x="574" y="129" on="0"/>
        <pt x="586" y="119" on="0"/>
        <pt x="586" y="112" on="1"/>
        <pt x="586" y="80" on="0"/>
        <pt x="438" y="-11" on="0"/>
        <pt x="381" y="-11" on="0"/>
        <pt x="346" y="19" on="0"/>
        <pt x="346" y="62" on="0"/>
        <pt x="358" y="94" on="1"/>
        <pt x="370" y="125" on="1"/>
        <pt x="370" y="128" on="0"/>
        <pt x="366" y="128" on="0"/>
        <pt x="361" y="125" on="1"/>
        <pt x="204" y="0" on="0"/>
        <pt x="127" y="0" on="1"/>
        <pt x="68" y="0" on="0"/>
        <pt x="-1" y="92" on="0"/>
        <pt x="-1" y="236" on="0"/>
        <pt x="79" y="398" on="0"/>
        <pt x="212" y="529" on="0"/>
        <pt x="374" y="633" on="0"/>
        <pt x="550" y="690" on="0"/>
      </contour>
      <contour>
        <pt x="836" y="821" on="0"/>
        <pt x="850" y="806" on="0"/>
        <pt x="849" y="794" on="0"/>
        <pt x="845" y="784" on="0"/>
        <pt x="827" y="758" on="0"/>
        <pt x="816" y="748" on="1"/>
        <pt x="786" y="723" on="0"/>
        <pt x="741" y="723" on="1"/>
        <pt x="715" y="727" on="0"/>
        <pt x="641" y="784" on="0"/>
        <pt x="618" y="786" on="0"/>
        <pt x="603" y="773" on="0"/>
        <pt x="589" y="774" on="0"/>
        <pt x="576" y="786" on="0"/>
        <pt x="576" y="794" on="1"/>
        <pt x="576" y="795" on="1"/>
        <pt x="589" y="821" on="0"/>
        <pt x="643" y="856" on="0"/>
        <pt x="693" y="856" on="0"/>
        <pt x="779" y="800" on="0"/>
        <pt x="810" y="800" on="0"/>
        <pt x="824" y="822" on="0"/>
      </contour>
    </TTGlyph>
    <TTGlyph name="B" xMin="-23" yMin="-65" xMax="806" yMax="753">
      <contour>
        <pt x="242" y="458" on="1"/>
        <pt x="301" y="467" on="1"/>
        <pt x="315" y="467" on="0"/>
        <pt x="316" y="460" on="1"/>
        <pt x="316" y="441" on="0"/>
        <pt x="245" y="411" on="0"/>
        <pt x="135" y="411" on="0"/>
        <pt x="63" y="464" on="0"/>
        <pt x="63" y="511" on="1"/>
        <pt x="63" y="552" on="0"/>
        <pt x="138" y="618" on="1"/>
        <pt x="177" y="652" on="0"/>
        <pt x="284" y="712" on="0"/>
        <pt x="449" y="753" on="0"/>
        <pt x="617" y="753" on="0"/>
        <pt x="728" y="714" on="0"/>
        <pt x="755" y="685" on="1"/>
        <pt x="806" y="630" on="0"/>
        <pt x="806" y="587" on="1"/>
        <pt x="806" y="563" on="0"/>
        <pt x="781" y="518" on="0"/>
        <pt x="758" y="504" on="1"/>
        <pt x="577" y="400" on="0"/>
        <pt x="488" y="372" on="1"/>
        <pt x="472" y="365" on="0"/>
        <pt x="472" y="360" on="1"/>
        <pt x="472" y="358" on="0"/>
        <pt x="486" y="356" on="1"/>
        <pt x="564" y="356" on="0"/>
        <pt x="634" y="328" on="1"/>
        <pt x="673" y="312" on="0"/>
        <pt x="721" y="248" on="0"/>
        <pt x="721" y="147" on="0"/>
        <pt x="640" y="53" on="0"/>
        <pt x="519" y="-7" on="0"/>
        <pt x="446" y="-28" on="1"/>
        <pt x="311" y="-65" on="0"/>
        <pt x="199" y="-65" on="1"/>
        <pt x="139" y="-65" on="0"/>
        <pt x="84" y="-50" on="1"/>
        <pt x="-23" y="-21" on="0"/>
        <pt x="-23" y="36" on="1"/>
        <pt x="-23" y="71" on="0"/>
        <pt x="36" y="138" on="0"/>
        <pt x="62" y="140" on="1"/>
        <pt x="63" y="140" on="0"/>
        <pt x="80" y="136" on="1"/>
        <pt x="127" y="125" on="0"/>
        <pt x="271" y="125" on="0"/>
        <pt x="466" y="177" on="0"/>
        <pt x="602" y="250" on="0"/>
        <pt x="602" y="280" on="1"/>
        <pt x="602" y="316" on="0"/>
        <pt x="459" y="316" on="1"/>
        <pt x="405" y="316" on="0"/>
        <pt x="375" y="310" on="1"/>
        <pt x="368" y="309" on="0"/>
        <pt x="247" y="169" on="0"/>
        <pt x="231" y="149" on="1"/>
        <pt x="214" y="134" on="0"/>
        <pt x="185" y="134" on="0"/>
        <pt x="173" y="146" on="0"/>
        <pt x="173" y="156" on="0"/>
        <pt x="181" y="170" on="0"/>
        <pt x="204" y="201" on="1"/>
        <pt x="267" y="286" on="0"/>
        <pt x="267" y="297" on="0"/>
        <pt x="250" y="324" on="0"/>
        <pt x="250" y="344" on="0"/>
        <pt x="281" y="356" on="0"/>
        <pt x="326" y="367" on="0"/>
        <pt x="339" y="374" on="0"/>
        <pt x="432" y="488" on="0"/>
        <pt x="447" y="502" on="0"/>
        <pt x="461" y="502" on="1"/>
        <pt x="485" y="502" on="0"/>
        <pt x="485" y="483" on="1"/>
        <pt x="485" y="472" on="0"/>
        <pt x="446" y="418" on="0"/>
        <pt x="446" y="411" on="0"/>
        <pt x="447" y="410" on="1"/>
        <pt x="473" y="410" on="0"/>
        <pt x="667" y="510" on="0"/>
        <pt x="692" y="530" on="1"/>
        <pt x="702" y="534" on="0"/>
        <pt x="702" y="543" on="1"/>
        <pt x="702" y="563" on="0"/>
        <pt x="641" y="563" on="1"/>
        <pt x="548" y="563" on="0"/>
        <pt x="349" y="519" on="0"/>
        <pt x="234" y="472" on="0"/>
        <pt x="234" y="461" on="1"/>
        <pt x="234" y="458" on="0"/>
      </contour>
    </TTGlyph>
    <TTGlyph name="C" xMin="36" yMin="-9" xMax="802" yMax="687">
      <contour>
        <pt x="503" y="218" on="1"/>
        <pt x="527" y="218" on="0"/>
        <pt x="527" y="195" on="1"/>
        <pt x="527" y="181" on="0"/>
        <pt x="462" y="115" on="0"/>
        <pt x="368" y="44" on="0"/>
        <pt x="240" y="-9" on="0"/>
        <pt x="118" y="-9" on="0"/>
        <pt x="36" y="84" on="0"/>
        <pt x="36" y="286" on="0"/>
        <pt x="120" y="457" on="0"/>
        <pt x="250" y="570" on="0"/>
        <pt x="330" y="610" on="1"/>
        <pt x="483" y="687" on="0"/>
        <pt x="628" y="687" on="1"/>
        <pt x="802" y="687" on="0"/>
        <pt x="802" y="596" on="1"/>
        <pt x="802" y="539" on="0"/>
        <pt x="682" y="409" on="0"/>
        <pt x="644" y="409" on="1"/>
        <pt x="618" y="409" on="0"/>
        <pt x="618" y="424" on="1"/>
        <pt x="618" y="442" on="0"/>
        <pt x="632" y="458" on="1"/>
        <pt x="681" y="507" on="0"/>
        <pt x="702" y="535" on="0"/>
        <pt x="702" y="547" on="0"/>
        <pt x="691" y="547" on="1"/>
        <pt x="655" y="547" on="0"/>
        <pt x="505" y="447" on="0"/>
        <pt x="355" y="307" on="0"/>
        <pt x="242" y="143" on="0"/>
        <pt x="242" y="87" on="1"/>
        <pt x="242" y="68" on="0"/>
        <pt x="263" y="68" on="1"/>
        <pt x="294" y="68" on="0"/>
        <pt x="495" y="218" on="0"/>
      </contour>
    </TTGlyph>
    <TTGlyph name="Ccedilla" xMin="36" yMin="-131" xMax="813" yMax="687">
      <contour>
        <pt x="514" y="218" on="1"/>
        <pt x="538" y="218" on="0"/>
        <pt x="538" y="195" on="1"/>
        <pt x="538" y="181" on="0"/>
        <pt x="473" y="115" on="0"/>
        <pt x="379" y="44" on="0"/>
        <pt x="251" y="-9" on="0"/>
        <pt x="198" y="-9" on="1"/>
        <pt x="192" y="-9" on="0"/>
        <pt x="172" y="-7" on="1"/>
        <pt x="175" y="-13" on="0"/>
        <pt x="195" y="-27" on="1"/>
        <pt x="220" y="-43" on="0"/>
        <pt x="220" y="-98" on="0"/>
        <pt x="186" y="-131" on="0"/>
        <pt x="99" y="-131" on="0"/>
        <pt x="64" y="-110" on="1"/>
        <pt x="54" y="-105" on="0"/>
        <pt x="36" y="-62" on="0"/>
        <pt x="36" y="-48" on="1"/>
        <pt x="36" y="-29" on="0"/>
        <pt x="54" y="-29" on="1"/>
        <pt x="68" y="-29" on="0"/>
        <pt x="123" y="-50" on="0"/>
        <pt x="159" y="-50" on="0"/>
        <pt x="159" y="-39" on="0"/>
        <pt x="118" y="-1" on="0"/>
        <pt x="117" y="12" on="1"/>
        <pt x="47" y="54" on="0"/>
        <pt x="47" y="186" on="1"/>
        <pt x="47" y="286" on="0"/>
        <pt x="131" y="457" on="0"/>
        <pt x="261" y="570" on="0"/>
        <pt x="342" y="610" on="1"/>
        <pt x="494" y="687" on="0"/>
        <pt x="639" y="687" on="1"/>
        <pt x="813" y="687" on="0"/>
        <pt x="813" y="596" on="1"/>
        <pt x="813" y="539" on="0"/>
        <pt x="693" y="409" on="0"/>
        <pt x="655" y="409" on="1"/>
        <pt x="629" y="409" on="0"/>
        <pt x="629" y="424" on="1"/>
        <pt x="629" y="442" on="0"/>
        <pt x="643" y="458" on="1"/>
        <pt x="692" y="507" on="0"/>
        <pt x="713" y="535" on="0"/>
        <pt x="713" y="547" on="0"/>
        <pt x="702" y="547" on="1"/>
        <pt x="666" y="547" on="0"/>
        <pt x="516" y="447" on="0"/>
        <pt x="366" y="307" on="0"/>
        <pt x="253" y="143" on="0"/>
        <pt x="253" y="87" on="1"/>
        <pt x="253" y="68" on="0"/>
        <pt x="274" y="68" on="1"/>
        <pt x="305" y="68" on="0"/>
        <pt x="506" y="218" on="0"/>
      </contour>
    </TTGlyph>
    <TTGlyph name="D" xMin="-10" yMin="-38" xMax="964" yMax="709">
      <contour>
        <pt x="281" y="399" on="1"/>
        <pt x="349" y="409" on="1"/>
        <pt x="367" y="409" on="0"/>
        <pt x="367" y="398" on="1"/>
        <pt x="367" y="380" on="0"/>
        <pt x="260" y="349" on="0"/>
        <pt x="225" y="349" on="1"/>
        <pt x="169" y="349" on="0"/>
        <pt x="100" y="417" on="0"/>
        <pt x="94" y="476" on="1"/>
        <pt x="94" y="531" on="0"/>
        <pt x="242" y="641" on="0"/>
        <pt x="474" y="709" on="0"/>
        <pt x="667" y="709" on="0"/>
        <pt x="796" y="675" on="0"/>
        <pt x="903" y="605" on="0"/>
        <pt x="964" y="480" on="0"/>
        <pt x="964" y="396" on="1"/>
        <pt x="964" y="294" on="0"/>
        <pt x="852" y="182" on="1"/>
        <pt x="792" y="122" on="0"/>
        <pt x="623" y="25" on="0"/>
        <pt x="365" y="-38" on="0"/>
        <pt x="214" y="-38" on="1"/>
        <pt x="176" y="-38" on="0"/>
        <pt x="94" y="-12" on="1"/>
        <pt x="52" y="2" on="0"/>
        <pt x="-10" y="56" on="0"/>
        <pt x="-10" y="137" on="0"/>
        <pt x="71" y="212" on="0"/>
        <pt x="112" y="212" on="1"/>
        <pt x="120" y="212" on="0"/>
        <pt x="231" y="179" on="0"/>
        <pt x="365" y="179" on="0"/>
        <pt x="580" y="244" on="0"/>
        <pt x="759" y="335" on="0"/>
        <pt x="884" y="436" on="0"/>
        <pt x="884" y="469" on="1"/>
        <pt x="884" y="516" on="0"/>
        <pt x="603" y="516" on="0"/>
        <pt x="312" y="447" on="0"/>
        <pt x="278" y="400" on="1"/>
        <pt x="277" y="399" on="0"/>
        <pt x="278" y="399" on="1"/>
      </contour>
      <contour>
        <pt x="332" y="253" on="1"/>
        <pt x="486" y="447" on="0"/>
        <pt x="497" y="458" on="1"/>
        <pt x="522" y="488" on="0"/>
        <pt x="553" y="488" on="0"/>
        <pt x="571" y="471" on="0"/>
        <pt x="571" y="447" on="0"/>
        <pt x="535" y="402" on="0"/>
        <pt x="378" y="216" on="0"/>
        <pt x="375" y="214" on="0"/>
        <pt x="371" y="210" on="1"/>
        <pt x="361" y="200" on="0"/>
        <pt x="339" y="200" on="0"/>
        <pt x="324" y="220" on="0"/>
        <pt x="324" y="243" on="0"/>
      </contour>
    </TTGlyph>
    <TTGlyph name="E" xMin="-21" yMin="-49" xMax="855" yMax="759">
      <contour>
        <pt x="688" y="759" on="1"/>
        <pt x="855" y="759" on="0"/>
        <pt x="855" y="665" on="1"/>
        <pt x="855" y="625" on="0"/>
        <pt x="793" y="526" on="0"/>
        <pt x="722" y="463" on="0"/>
        <pt x="705" y="463" on="1"/>
        <pt x="698" y="463" on="0"/>
        <pt x="685" y="476" on="0"/>
        <pt x="685" y="497" on="0"/>
        <pt x="724" y="541" on="0"/>
        <pt x="724" y="563" on="0"/>
        <pt x="699" y="563" on="1"/>
        <pt x="634" y="563" on="0"/>
        <pt x="343" y="456" on="0"/>
        <pt x="342" y="429" on="1"/>
        <pt x="343" y="422" on="0"/>
        <pt x="394" y="422" on="0"/>
        <pt x="459" y="432" on="0"/>
        <pt x="476" y="432" on="1"/>
        <pt x="521" y="432" on="0"/>
        <pt x="521" y="408" on="1"/>
        <pt x="521" y="395" on="0"/>
        <pt x="491" y="379" on="0"/>
        <pt x="470" y="370" on="0"/>
        <pt x="432" y="355" on="0"/>
        <pt x="407" y="343" on="0"/>
        <pt x="383" y="332" on="1"/>
        <pt x="343" y="315" on="1"/>
        <pt x="303" y="298" on="0"/>
        <pt x="244" y="268" on="0"/>
        <pt x="203" y="248" on="0"/>
        <pt x="175" y="232" on="0"/>
        <pt x="162" y="224" on="1"/>
        <pt x="138" y="207" on="0"/>
        <pt x="138" y="198" on="1"/>
        <pt x="138" y="178" on="0"/>
        <pt x="170" y="178" on="1"/>
        <pt x="238" y="178" on="0"/>
        <pt x="400" y="228" on="0"/>
        <pt x="513" y="277" on="0"/>
        <pt x="521" y="277" on="1"/>
        <pt x="556" y="276" on="0"/>
        <pt x="603" y="208" on="0"/>
        <pt x="603" y="174" on="1"/>
        <pt x="603" y="126" on="0"/>
        <pt x="471" y="20" on="0"/>
        <pt x="274" y="-49" on="0"/>
        <pt x="102" y="-49" on="0"/>
        <pt x="-10" y="22" on="0"/>
        <pt x="-21" y="97" on="1"/>
        <pt x="-21" y="142" on="0"/>
        <pt x="79" y="242" on="0"/>
        <pt x="211" y="315" on="0"/>
        <pt x="323" y="365" on="0"/>
        <pt x="343" y="368" on="1"/>
        <pt x="349" y="370" on="0"/>
        <pt x="349" y="372" on="1"/>
        <pt x="349" y="380" on="0"/>
        <pt x="337" y="382" on="1"/>
        <pt x="272" y="389" on="0"/>
        <pt x="268" y="390" on="1"/>
        <pt x="214" y="402" on="0"/>
        <pt x="170" y="473" on="0"/>
        <pt x="170" y="503" on="1"/>
        <pt x="170" y="564" on="0"/>
        <pt x="344" y="686" on="0"/>
        <pt x="586" y="759" on="0"/>
      </contour>
    </TTGlyph>
    <TTGlyph name="Eacute" xMin="-21" yMin="-49" xMax="963" yMax="959">
      <contour>
        <pt x="688" y="759" on="1"/>
        <pt x="855" y="758" on="0"/>
        <pt x="855" y="665" on="1"/>
        <pt x="855" y="625" on="0"/>
        <pt x="793" y="526" on="0"/>
        <pt x="722" y="463" on="0"/>
        <pt x="705" y="463" on="1"/>
        <pt x="698" y="463" on="0"/>
        <pt x="685" y="476" on="0"/>
        <pt x="685" y="497" on="0"/>
        <pt x="724" y="541" on="0"/>
        <pt x="724" y="563" on="0"/>
        <pt x="699" y="563" on="1"/>
        <pt x="634" y="563" on="0"/>
        <pt x="343" y="456" on="0"/>
        <pt x="342" y="429" on="1"/>
        <pt x="343" y="422" on="0"/>
        <pt x="394" y="422" on="0"/>
        <pt x="459" y="432" on="0"/>
        <pt x="476" y="432" on="1"/>
        <pt x="521" y="432" on="0"/>
        <pt x="521" y="408" on="1"/>
        <pt x="521" y="395" on="0"/>
        <pt x="491" y="379" on="0"/>
        <pt x="470" y="370" on="0"/>
        <pt x="432" y="355" on="0"/>
        <pt x="407" y="343" on="0"/>
        <pt x="383" y="332" on="1"/>
        <pt x="343" y="315" on="1"/>
        <pt x="303" y="298" on="0"/>
        <pt x="244" y="268" on="0"/>
        <pt x="203" y="248" on="0"/>
        <pt x="175" y="232" on="0"/>
        <pt x="162" y="224" on="1"/>
        <pt x="138" y="207" on="0"/>
        <pt x="138" y="198" on="1"/>
        <pt x="138" y="178" on="0"/>
        <pt x="170" y="178" on="1"/>
        <pt x="238" y="178" on="0"/>
        <pt x="400" y="228" on="0"/>
        <pt x="513" y="277" on="0"/>
        <pt x="521" y="277" on="1"/>
        <pt x="556" y="276" on="0"/>
        <pt x="603" y="208" on="0"/>
        <pt x="603" y="174" on="1"/>
        <pt x="603" y="126" on="0"/>
        <pt x="471" y="20" on="0"/>
        <pt x="274" y="-49" on="0"/>
        <pt x="102" y="-49" on="0"/>
        <pt x="-10" y="22" on="0"/>
        <pt x="-21" y="97" on="1"/>
        <pt x="-21" y="142" on="0"/>
        <pt x="79" y="242" on="0"/>
        <pt x="211" y="315" on="0"/>
        <pt x="323" y="365" on="0"/>
        <pt x="343" y="368" on="1"/>
        <pt x="349" y="370" on="0"/>
        <pt x="349" y="372" on="1"/>
        <pt x="349" y="380" on="0"/>
        <pt x="337" y="382" on="1"/>
        <pt x="272" y="389" on="0"/>
        <pt x="268" y="390" on="1"/>
        <pt x="214" y="402" on="0"/>
        <pt x="170" y="473" on="0"/>
        <pt x="170" y="503" on="1"/>
        <pt x="170" y="564" on="0"/>
        <pt x="344" y="686" on="0"/>
        <pt x="586" y="759" on="0"/>
      </contour>
      <contour>
        <pt x="958" y="932" on="1"/>
        <pt x="963" y="919" on="0"/>
        <pt x="963" y="911" on="1"/>
        <pt x="963" y="887" on="0"/>
        <pt x="899" y="857" on="0"/>
        <pt x="867" y="854" on="1"/>
        <pt x="835" y="851" on="1"/>
        <pt x="810" y="847" on="0"/>
        <pt x="753" y="818" on="1"/>
        <pt x="735" y="808" on="1"/>
        <pt x="726" y="812" on="0"/>
        <pt x="726" y="821" on="1"/>
        <pt x="726" y="853" on="0"/>
        <pt x="860" y="959" on="0"/>
        <pt x="946" y="959" on="0"/>
      </contour>
    </TTGlyph>
    <TTGlyph name="Ecircumflex" xMin="-21" yMin="-49" xMax="915" yMax="951">
      <contour>
        <pt x="688" y="759" on="1"/>
        <pt x="855" y="758" on="0"/>
        <pt x="855" y="665" on="1"/>
        <pt x="855" y="625" on="0"/>
        <pt x="793" y="526" on="0"/>
        <pt x="722" y="463" on="0"/>
        <pt x="705" y="463" on="1"/>
        <pt x="698" y="463" on="0"/>
        <pt x="685" y="476" on="0"/>
        <pt x="685" y="497" on="0"/>
        <pt x="724" y="541" on="0"/>
        <pt x="724" y="563" on="0"/>
        <pt x="699" y="563" on="1"/>
        <pt x="634" y="563" on="0"/>
        <pt x="343" y="456" on="0"/>
        <pt x="342" y="429" on="1"/>
        <pt x="343" y="422" on="0"/>
        <pt x="394" y="422" on="0"/>
        <pt x="459" y="432" on="0"/>
        <pt x="476" y="432" on="1"/>
        <pt x="521" y="432" on="0"/>
        <pt x="521" y="408" on="1"/>
        <pt x="521" y="395" on="0"/>
        <pt x="491" y="379" on="0"/>
        <pt x="470" y="370" on="0"/>
        <pt x="432" y="355" on="0"/>
        <pt x="407" y="343" on="0"/>
        <pt x="383" y="332" on="1"/>
        <pt x="343" y="315" on="1"/>
        <pt x="303" y="298" on="0"/>
        <pt x="244" y="268" on="0"/>
        <pt x="203" y="248" on="0"/>
        <pt x="175" y="232" on="0"/>
        <pt x="162" y="224" on="1"/>
        <pt x="138" y="207" on="0"/>
        <pt x="138" y="198" on="1"/>
        <pt x="138" y="178" on="0"/>
        <pt x="170" y="178" on="1"/>
        <pt x="238" y="178" on="0"/>
        <pt x="400" y="228" on="0"/>
        <pt x="513" y="277" on="0"/>
        <pt x="521" y="277" on="1"/>
        <pt x="556" y="276" on="0"/>
        <pt x="603" y="208" on="0"/>
        <pt x="603" y="174" on="1"/>
        <pt x="603" y="126" on="0"/>
        <pt x="471" y="20" on="0"/>
        <pt x="274" y="-49" on="0"/>
        <pt x="102" y="-49" on="0"/>
        <pt x="-10" y="22" on="0"/>
        <pt x="-21" y="97" on="1"/>
        <pt x="-21" y="142" on="0"/>
        <pt x="79" y="242" on="0"/>
        <pt x="211" y="315" on="0"/>
        <pt x="323" y="365" on="0"/>
        <pt x="343" y="368" on="1"/>
        <pt x="349" y="370" on="0"/>
        <pt x="349" y="372" on="1"/>
        <pt x="349" y="380" on="0"/>
        <pt x="337" y="382" on="1"/>
        <pt x="272" y="389" on="0"/>
        <pt x="268" y="390" on="1"/>
        <pt x="214" y="402" on="0"/>
        <pt x="170" y="473" on="0"/>
        <pt x="170" y="503" on="1"/>
        <pt x="170" y="564" on="0"/>
        <pt x="344" y="686" on="0"/>
        <pt x="586" y="759" on="0"/>
      </contour>
      <contour>
        <pt x="894" y="757" on="1"/>
        <pt x="852" y="757" on="0"/>
        <pt x="830" y="860" on="1"/>
        <pt x="815" y="856" on="0"/>
        <pt x="709" y="835" on="0"/>
        <pt x="688" y="824" on="1"/>
        <pt x="677" y="820" on="0"/>
        <pt x="658" y="820" on="0"/>
        <pt x="658" y="829" on="1"/>
        <pt x="658" y="865" on="0"/>
        <pt x="784" y="951" on="0"/>
        <pt x="869" y="951" on="1"/>
        <pt x="884" y="951" on="0"/>
        <pt x="915" y="849" on="0"/>
        <pt x="915" y="757" on="0"/>
      </contour>
    </TTGlyph>
    <TTGlyph name="Edieresis" xMin="-21" yMin="-49" xMax="984" yMax="942">
      <contour>
        <pt x="688" y="759" on="1"/>
        <pt x="855" y="758" on="0"/>
        <pt x="855" y="665" on="1"/>
        <pt x="855" y="625" on="0"/>
        <pt x="793" y="526" on="0"/>
        <pt x="722" y="463" on="0"/>
        <pt x="705" y="463" on="1"/>
        <pt x="698" y="463" on="0"/>
        <pt x="685" y="476" on="0"/>
        <pt x="685" y="497" on="0"/>
        <pt x="724" y="541" on="0"/>
        <pt x="724" y="563" on="0"/>
        <pt x="699" y="563" on="1"/>
        <pt x="634" y="563" on="0"/>
        <pt x="343" y="456" on="0"/>
        <pt x="342" y="429" on="1"/>
        <pt x="343" y="422" on="0"/>
        <pt x="394" y="422" on="0"/>
        <pt x="459" y="432" on="0"/>
        <pt x="476" y="432" on="1"/>
        <pt x="521" y="432" on="0"/>
        <pt x="521" y="408" on="1"/>
        <pt x="521" y="395" on="0"/>
        <pt x="491" y="379" on="0"/>
        <pt x="470" y="370" on="0"/>
        <pt x="432" y="355" on="0"/>
        <pt x="407" y="343" on="0"/>
        <pt x="383" y="332" on="1"/>
        <pt x="343" y="315" on="1"/>
        <pt x="303" y="298" on="0"/>
        <pt x="244" y="268" on="0"/>
        <pt x="203" y="248" on="0"/>
        <pt x="175" y="232" on="0"/>
        <pt x="162" y="224" on="1"/>
        <pt x="138" y="207" on="0"/>
        <pt x="138" y="198" on="1"/>
        <pt x="138" y="178" on="0"/>
        <pt x="170" y="178" on="1"/>
        <pt x="238" y="178" on="0"/>
        <pt x="400" y="228" on="0"/>
        <pt x="513" y="277" on="0"/>
        <pt x="521" y="277" on="1"/>
        <pt x="556" y="276" on="0"/>
        <pt x="603" y="208" on="0"/>
        <pt x="603" y="174" on="1"/>
        <pt x="603" y="126" on="0"/>
        <pt x="471" y="20" on="0"/>
        <pt x="274" y="-49" on="0"/>
        <pt x="102" y="-49" on="0"/>
        <pt x="-10" y="22" on="0"/>
        <pt x="-21" y="97" on="1"/>
        <pt x="-21" y="142" on="0"/>
        <pt x="79" y="242" on="0"/>
        <pt x="211" y="315" on="0"/>
        <pt x="323" y="365" on="0"/>
        <pt x="343" y="368" on="1"/>
        <pt x="349" y="370" on="0"/>
        <pt x="349" y="372" on="1"/>
        <pt x="349" y="380" on="0"/>
        <pt x="337" y="382" on="1"/>
        <pt x="272" y="389" on="0"/>
        <pt x="268" y="390" on="1"/>
        <pt x="214" y="402" on="0"/>
        <pt x="170" y="473" on="0"/>
        <pt x="170" y="503" on="1"/>
        <pt x="170" y="564" on="0"/>
        <pt x="344" y="686" on="0"/>
        <pt x="586" y="759" on="0"/>
      </contour>
      <contour>
        <pt x="723" y="797" on="1"/>
        <pt x="706" y="797" on="0"/>
        <pt x="686" y="820" on="0"/>
        <pt x="684" y="832" on="1"/>
        <pt x="683" y="844" on="1"/>
        <pt x="688" y="892" on="0"/>
        <pt x="764" y="942" on="0"/>
        <pt x="792" y="942" on="1"/>
        <pt x="833" y="942" on="0"/>
        <pt x="833" y="901" on="1"/>
        <pt x="833" y="875" on="0"/>
        <pt x="771" y="802" on="0"/>
      </contour>
      <contour>
        <pt x="874" y="789" on="1"/>
        <pt x="857" y="789" on="0"/>
        <pt x="837" y="812" on="0"/>
        <pt x="836" y="824" on="1"/>
        <pt x="834" y="836" on="1"/>
        <pt x="839" y="884" on="0"/>
        <pt x="915" y="934" on="0"/>
        <pt x="943" y="934" on="1"/>
        <pt x="984" y="934" on="0"/>
        <pt x="984" y="893" on="1"/>
        <pt x="984" y="867" on="0"/>
        <pt x="922" y="794" on="0"/>
      </contour>
    </TTGlyph>
    <TTGlyph name="Egrave" xMin="-21" yMin="-49" xMax="905" yMax="940">
      <contour>
        <pt x="688" y="759" on="1"/>
        <pt x="855" y="758" on="0"/>
        <pt x="855" y="665" on="1"/>
        <pt x="855" y="625" on="0"/>
        <pt x="793" y="526" on="0"/>
        <pt x="722" y="463" on="0"/>
        <pt x="705" y="463" on="1"/>
        <pt x="698" y="463" on="0"/>
        <pt x="685" y="476" on="0"/>
        <pt x="685" y="497" on="0"/>
        <pt x="724" y="541" on="0"/>
        <pt x="724" y="563" on="0"/>
        <pt x="699" y="563" on="1"/>
        <pt x="634" y="563" on="0"/>
        <pt x="343" y="456" on="0"/>
        <pt x="342" y="429" on="1"/>
        <pt x="343" y="422" on="0"/>
        <pt x="394" y="422" on="0"/>
        <pt x="459" y="432" on="0"/>
        <pt x="476" y="432" on="1"/>
        <pt x="521" y="432" on="0"/>
        <pt x="521" y="408" on="1"/>
        <pt x="521" y="395" on="0"/>
        <pt x="491" y="379" on="0"/>
        <pt x="470" y="370" on="0"/>
        <pt x="432" y="355" on="0"/>
        <pt x="407" y="343" on="0"/>
        <pt x="383" y="332" on="1"/>
        <pt x="343" y="315" on="1"/>
        <pt x="303" y="298" on="0"/>
        <pt x="244" y="268" on="0"/>
        <pt x="203" y="248" on="0"/>
        <pt x="175" y="232" on="0"/>
        <pt x="162" y="224" on="1"/>
        <pt x="138" y="207" on="0"/>
        <pt x="138" y="198" on="1"/>
        <pt x="138" y="178" on="0"/>
        <pt x="170" y="178" on="1"/>
        <pt x="238" y="178" on="0"/>
        <pt x="400" y="228" on="0"/>
        <pt x="513" y="277" on="0"/>
        <pt x="521" y="277" on="1"/>
        <pt x="556" y="276" on="0"/>
        <pt x="603" y="208" on="0"/>
        <pt x="603" y="174" on="1"/>
        <pt x="603" y="126" on="0"/>
        <pt x="471" y="20" on="0"/>
        <pt x="274" y="-49" on="0"/>
        <pt x="102" y="-49" on="0"/>
        <pt x="-10" y="22" on="0"/>
        <pt x="-21" y="97" on="1"/>
        <pt x="-21" y="142" on="0"/>
        <pt x="79" y="242" on="0"/>
        <pt x="211" y="315" on="0"/>
        <pt x="323" y="365" on="0"/>
        <pt x="343" y="368" on="1"/>
        <pt x="349" y="370" on="0"/>
        <pt x="349" y="372" on="1"/>
        <pt x="349" y="380" on="0"/>
        <pt x="337" y="382" on="1"/>
        <pt x="272" y="389" on="0"/>
        <pt x="268" y="390" on="1"/>
        <pt x="214" y="402" on="0"/>
        <pt x="170" y="473" on="0"/>
        <pt x="170" y="503" on="1"/>
        <pt x="170" y="564" on="0"/>
        <pt x="344" y="686" on="0"/>
        <pt x="586" y="759" on="0"/>
      </contour>
      <contour>
        <pt x="731" y="940" on="1"/>
        <pt x="779" y="940" on="0"/>
        <pt x="905" y="814" on="0"/>
        <pt x="905" y="770" on="1"/>
        <pt x="904" y="764" on="0"/>
        <pt x="894" y="759" on="1"/>
        <pt x="833" y="809" on="0"/>
        <pt x="803" y="819" on="1"/>
        <pt x="768" y="826" on="0"/>
        <pt x="740" y="840" on="1"/>
        <pt x="687" y="868" on="0"/>
        <pt x="687" y="895" on="1"/>
        <pt x="687" y="912" on="0"/>
        <pt x="712" y="940" on="0"/>
      </contour>
    </TTGlyph>
    <TTGlyph name="Eth" xMin="-10" yMin="-38" xMax="964" yMax="709">
      <contour>
        <pt x="281" y="399" on="1"/>
        <pt x="349" y="409" on="1"/>
        <pt x="367" y="409" on="0"/>
        <pt x="367" y="398" on="1"/>
        <pt x="367" y="380" on="0"/>
        <pt x="260" y="349" on="0"/>
        <pt x="225" y="349" on="1"/>
        <pt x="169" y="349" on="0"/>
        <pt x="100" y="417" on="0"/>
        <pt x="94" y="476" on="1"/>
        <pt x="94" y="531" on="0"/>
        <pt x="242" y="641" on="0"/>
        <pt x="474" y="709" on="0"/>
        <pt x="667" y="709" on="0"/>
        <pt x="796" y="675" on="0"/>
        <pt x="903" y="605" on="0"/>
        <pt x="964" y="480" on="0"/>
        <pt x="964" y="396" on="1"/>
        <pt x="964" y="294" on="0"/>
        <pt x="852" y="182" on="1"/>
        <pt x="792" y="122" on="0"/>
        <pt x="623" y="25" on="0"/>
        <pt x="365" y="-38" on="0"/>
        <pt x="214" y="-38" on="1"/>
        <pt x="176" y="-38" on="0"/>
        <pt x="94" y="-12" on="1"/>
        <pt x="52" y="2" on="0"/>
        <pt x="-10" y="56" on="0"/>
        <pt x="-10" y="137" on="0"/>
        <pt x="71" y="212" on="0"/>
        <pt x="112" y="212" on="1"/>
        <pt x="120" y="212" on="0"/>
        <pt x="231" y="179" on="0"/>
        <pt x="365" y="179" on="0"/>
        <pt x="580" y="244" on="0"/>
        <pt x="759" y="335" on="0"/>
        <pt x="884" y="436" on="0"/>
        <pt x="884" y="469" on="1"/>
        <pt x="884" y="516" on="0"/>
        <pt x="603" y="516" on="0"/>
        <pt x="312" y="447" on="0"/>
        <pt x="278" y="400" on="1"/>
        <pt x="277" y="399" on="0"/>
        <pt x="278" y="399" on="1"/>
      </contour>
      <contour>
        <pt x="479" y="335" on="1"/>
        <pt x="530" y="345" on="0"/>
        <pt x="558" y="360" on="1"/>
        <pt x="577" y="360" on="0"/>
        <pt x="577" y="348" on="1"/>
        <pt x="577" y="317" on="0"/>
        <pt x="447" y="297" on="1"/>
        <pt x="413" y="258" on="0"/>
        <pt x="386" y="226" on="1"/>
        <pt x="376" y="214" on="1"/>
        <pt x="375" y="214" on="0"/>
        <pt x="371" y="210" on="1"/>
        <pt x="361" y="200" on="0"/>
        <pt x="339" y="200" on="0"/>
        <pt x="324" y="220" on="0"/>
        <pt x="324" y="243" on="0"/>
        <pt x="343" y="267" on="0"/>
        <pt x="359" y="287" on="1"/>
        <pt x="317" y="285" on="0"/>
        <pt x="310" y="285" on="1"/>
        <pt x="279" y="285" on="0"/>
        <pt x="279" y="322" on="0"/>
        <pt x="339" y="322" on="0"/>
        <pt x="389" y="324" on="1"/>
        <pt x="487" y="448" on="0"/>
        <pt x="497" y="458" on="1"/>
        <pt x="522" y="488" on="0"/>
        <pt x="553" y="488" on="0"/>
        <pt x="571" y="471" on="0"/>
        <pt x="571" y="447" on="0"/>
        <pt x="535" y="402" on="0"/>
      </contour>
    </TTGlyph>
    <TTGlyph name="Euro" xMin="23" yMin="-9" xMax="857" yMax="687">
      <contour>
        <pt x="195" y="429" on="1"/>
        <pt x="227" y="492" on="0"/>
        <pt x="342" y="595" on="0"/>
        <pt x="408" y="625" on="1"/>
        <pt x="544" y="687" on="0"/>
        <pt x="666" y="687" on="1"/>
        <pt x="857" y="687" on="0"/>
        <pt x="857" y="579" on="1"/>
        <pt x="857" y="524" on="0"/>
        <pt x="765" y="409" on="0"/>
        <pt x="730" y="409" on="1"/>
        <pt x="705" y="409" on="0"/>
        <pt x="702" y="424" on="1"/>
        <pt x="702" y="441" on="0"/>
        <pt x="719" y="469" on="0"/>
        <pt x="752" y="510" on="0"/>
        <pt x="763" y="529" on="1"/>
        <pt x="766" y="536" on="0"/>
        <pt x="766" y="541" on="1"/>
        <pt x="764" y="547" on="0"/>
        <pt x="753" y="547" on="1"/>
        <pt x="721" y="547" on="0"/>
        <pt x="610" y="468" on="0"/>
        <pt x="551" y="406" on="1"/>
        <pt x="632" y="418" on="1"/>
        <pt x="644" y="418" on="0"/>
        <pt x="661" y="396" on="0"/>
        <pt x="664" y="385" on="1"/>
        <pt x="666" y="374" on="1"/>
        <pt x="666" y="373" on="1"/>
        <pt x="666" y="350" on="0"/>
        <pt x="575" y="336" on="0"/>
        <pt x="490" y="336" on="1"/>
        <pt x="287" y="336" on="0"/>
        <pt x="143" y="360" on="1"/>
        <pt x="111" y="368" on="0"/>
        <pt x="105" y="407" on="1"/>
        <pt x="105" y="412" on="1"/>
        <pt x="105" y="440" on="0"/>
        <pt x="137" y="440" on="1"/>
        <pt x="175" y="432" on="0"/>
      </contour>
      <contour>
        <pt x="384" y="109" on="1"/>
        <pt x="384" y="68" on="0"/>
        <pt x="432" y="68" on="0"/>
        <pt x="529" y="143" on="0"/>
        <pt x="614" y="218" on="0"/>
        <pt x="623" y="218" on="1"/>
        <pt x="644" y="218" on="0"/>
        <pt x="651" y="195" on="1"/>
        <pt x="651" y="193" on="1"/>
        <pt x="651" y="177" on="0"/>
        <pt x="597" y="112" on="0"/>
        <pt x="515" y="43" on="0"/>
        <pt x="399" y="-9" on="0"/>
        <pt x="347" y="-9" on="1"/>
        <pt x="274" y="-9" on="0"/>
        <pt x="167" y="101" on="0"/>
        <pt x="157" y="221" on="1"/>
        <pt x="76" y="228" on="0"/>
        <pt x="55" y="239" on="0"/>
        <pt x="39" y="249" on="0"/>
        <pt x="36" y="256" on="1"/>
        <pt x="26" y="273" on="0"/>
        <pt x="23" y="301" on="1"/>
        <pt x="23" y="331" on="0"/>
        <pt x="53" y="331" on="1"/>
        <pt x="248" y="286" on="0"/>
        <pt x="497" y="286" on="0"/>
        <pt x="518" y="300" on="1"/>
        <pt x="526" y="300" on="0"/>
        <pt x="549" y="270" on="0"/>
        <pt x="549" y="263" on="1"/>
        <pt x="549" y="231" on="0"/>
        <pt x="479" y="209" on="0"/>
        <pt x="408" y="207" on="1"/>
        <pt x="390" y="185" on="0"/>
        <pt x="386" y="128" on="1"/>
      </contour>
    </TTGlyph>
    <TTGlyph name="F" xMin="-107" yMin="-21" xMax="824" yMax="741">
      <contour>
        <pt x="353" y="455" on="1"/>
        <pt x="359" y="435" on="1"/>
        <pt x="359" y="426" on="0"/>
        <pt x="314" y="376" on="0"/>
        <pt x="314" y="367" on="0"/>
        <pt x="327" y="367" on="0"/>
        <pt x="458" y="386" on="0"/>
        <pt x="505" y="386" on="0"/>
        <pt x="525" y="357" on="0"/>
        <pt x="525" y="326" on="0"/>
        <pt x="494" y="311" on="1"/>
        <pt x="479" y="303" on="0"/>
        <pt x="276" y="254" on="1"/>
        <pt x="210" y="238" on="1"/>
        <pt x="30" y="10" on="1"/>
        <pt x="23" y="2" on="1"/>
        <pt x="1" y="-21" on="0"/>
        <pt x="-24" y="-21" on="0"/>
        <pt x="-44" y="-10" on="0"/>
        <pt x="-44" y="14" on="0"/>
        <pt x="-21" y="54" on="0"/>
        <pt x="84" y="188" on="0"/>
        <pt x="95" y="199" on="0"/>
        <pt x="95" y="206" on="0"/>
        <pt x="87" y="206" on="0"/>
        <pt x="-41" y="173" on="0"/>
        <pt x="-75" y="173" on="0"/>
        <pt x="-91" y="190" on="0"/>
        <pt x="-107" y="218" on="0"/>
        <pt x="-107" y="226" on="1"/>
        <pt x="-107" y="248" on="0"/>
        <pt x="-77" y="259" on="1"/>
        <pt x="30" y="300" on="0"/>
        <pt x="162" y="332" on="1"/>
        <pt x="210" y="344" on="1"/>
        <pt x="287" y="431" on="0"/>
        <pt x="287" y="443" on="0"/>
        <pt x="278" y="443" on="1"/>
        <pt x="277" y="443" on="0"/>
        <pt x="260" y="439" on="1"/>
        <pt x="207" y="427" on="0"/>
        <pt x="89" y="427" on="0"/>
        <pt x="-8" y="502" on="0"/>
        <pt x="-8" y="591" on="0"/>
        <pt x="157" y="708" on="0"/>
        <pt x="209" y="708" on="0"/>
        <pt x="209" y="690" on="1"/>
        <pt x="209" y="681" on="0"/>
        <pt x="166" y="644" on="0"/>
        <pt x="149" y="637" on="0"/>
        <pt x="149" y="627" on="0"/>
        <pt x="163" y="627" on="0"/>
        <pt x="358" y="684" on="0"/>
        <pt x="610" y="741" on="0"/>
        <pt x="686" y="741" on="1"/>
        <pt x="720" y="741" on="0"/>
        <pt x="824" y="679" on="0"/>
        <pt x="824" y="636" on="1"/>
        <pt x="824" y="606" on="0"/>
        <pt x="409" y="463" on="0"/>
        <pt x="360" y="462" on="1"/>
        <pt x="353" y="462" on="0"/>
      </contour>
    </TTGlyph>
    <TTGlyph name="G" xMin="36" yMin="-21" xMax="954" yMax="700">
      <contour>
        <pt x="809" y="264" on="1"/>
        <pt x="809" y="239" on="0"/>
        <pt x="693" y="193" on="0"/>
        <pt x="634" y="179" on="1"/>
        <pt x="574" y="165" on="1"/>
        <pt x="482" y="65" on="0"/>
        <pt x="284" y="-21" on="0"/>
        <pt x="207" y="-21" on="1"/>
        <pt x="163" y="-21" on="0"/>
        <pt x="96" y="11" on="0"/>
        <pt x="62" y="54" on="0"/>
        <pt x="52" y="81" on="1"/>
        <pt x="36" y="121" on="0"/>
        <pt x="36" y="152" on="1"/>
        <pt x="36" y="238" on="0"/>
        <pt x="107" y="395" on="0"/>
        <pt x="226" y="513" on="0"/>
        <pt x="378" y="608" on="0"/>
        <pt x="460" y="638" on="1"/>
        <pt x="629" y="700" on="0"/>
        <pt x="769" y="700" on="1"/>
        <pt x="854" y="700" on="0"/>
        <pt x="954" y="652" on="0"/>
        <pt x="954" y="606" on="1"/>
        <pt x="954" y="573" on="0"/>
        <pt x="836" y="451" on="0"/>
        <pt x="802" y="451" on="1"/>
        <pt x="783" y="451" on="0"/>
        <pt x="783" y="491" on="0"/>
        <pt x="851" y="558" on="0"/>
        <pt x="851" y="568" on="0"/>
        <pt x="845" y="568" on="1"/>
        <pt x="811" y="568" on="0"/>
        <pt x="677" y="517" on="0"/>
        <pt x="519" y="424" on="0"/>
        <pt x="375" y="309" on="0"/>
        <pt x="279" y="164" on="0"/>
        <pt x="279" y="95" on="1"/>
        <pt x="279" y="66" on="0"/>
        <pt x="307" y="66" on="1"/>
        <pt x="352" y="66" on="0"/>
        <pt x="480" y="137" on="0"/>
        <pt x="481" y="152" on="1"/>
        <pt x="466" y="151" on="0"/>
        <pt x="456" y="151" on="1"/>
        <pt x="418" y="151" on="0"/>
        <pt x="363" y="192" on="0"/>
        <pt x="363" y="261" on="0"/>
        <pt x="457" y="322" on="0"/>
        <pt x="596" y="359" on="0"/>
        <pt x="727" y="359" on="0"/>
        <pt x="809" y="313" on="0"/>
      </contour>
    </TTGlyph>
    <TTGlyph name="H" xMin="25" yMin="-34" xMax="958" yMax="688">
      <contour>
        <pt x="357" y="238" on="1"/>
        <pt x="159" y="-34" on="0"/>
        <pt x="103" y="-34" on="1"/>
        <pt x="78" y="-34" on="0"/>
        <pt x="59" y="-8" on="1"/>
        <pt x="25" y="40" on="0"/>
        <pt x="25" y="168" on="0"/>
        <pt x="235" y="444" on="0"/>
        <pt x="472" y="665" on="0"/>
        <pt x="513" y="665" on="1"/>
        <pt x="537" y="665" on="0"/>
        <pt x="569" y="611" on="0"/>
        <pt x="569" y="575" on="0"/>
        <pt x="549" y="530" on="0"/>
        <pt x="498" y="446" on="0"/>
        <pt x="457" y="384" on="0"/>
        <pt x="414" y="318" on="1"/>
        <pt x="524" y="341" on="0"/>
        <pt x="569" y="348" on="1"/>
        <pt x="676" y="470" on="0"/>
        <pt x="753" y="552" on="0"/>
        <pt x="799" y="598" on="1"/>
        <pt x="890" y="688" on="0"/>
        <pt x="937" y="688" on="1"/>
        <pt x="946" y="688" on="0"/>
        <pt x="957" y="676" on="0"/>
        <pt x="958" y="664" on="1"/>
        <pt x="949" y="624" on="0"/>
        <pt x="903" y="556" on="0"/>
        <pt x="788" y="417" on="0"/>
        <pt x="742" y="354" on="1"/>
        <pt x="816" y="328" on="0"/>
        <pt x="816" y="294" on="1"/>
        <pt x="816" y="281" on="0"/>
        <pt x="797" y="265" on="0"/>
        <pt x="772" y="264" on="0"/>
        <pt x="692" y="261" on="0"/>
        <pt x="664" y="259" on="1"/>
        <pt x="652" y="258" on="0"/>
        <pt x="564" y="131" on="0"/>
        <pt x="463" y="4" on="0"/>
        <pt x="406" y="4" on="0"/>
        <pt x="367" y="121" on="0"/>
        <pt x="362" y="180" on="1"/>
      </contour>
      <contour>
        <pt x="399" y="216" on="1"/>
        <pt x="412" y="145" on="1"/>
        <pt x="434" y="183" on="0"/>
        <pt x="479" y="240" on="1"/>
        <pt x="477" y="240" on="0"/>
        <pt x="462" y="238" on="0"/>
        <pt x="450" y="237" on="0"/>
        <pt x="432" y="234" on="0"/>
        <pt x="419" y="231" on="0"/>
        <pt x="412" y="228" on="1"/>
        <pt x="399" y="223" on="0"/>
      </contour>
    </TTGlyph>
    <TTGlyph name="I" xMin="12" yMin="-41" xMax="672" yMax="668">
      <contour>
        <pt x="12" y="71" on="1"/>
        <pt x="12" y="128" on="0"/>
        <pt x="119" y="291" on="0"/>
        <pt x="276" y="446" on="0"/>
        <pt x="440" y="584" on="0"/>
        <pt x="567" y="668" on="0"/>
        <pt x="585" y="668" on="1"/>
        <pt x="614" y="668" on="0"/>
        <pt x="672" y="617" on="0"/>
        <pt x="672" y="569" on="0"/>
        <pt x="439" y="258" on="0"/>
        <pt x="161" y="-41" on="0"/>
        <pt x="111" y="-41" on="1"/>
        <pt x="77" y="-41" on="0"/>
        <pt x="12" y="32" on="0"/>
      </contour>
    </TTGlyph>
    <TTGlyph name="Iacute" xMin="12" yMin="-41" xMax="913" yMax="850">
      <contour>
        <pt x="12" y="71" on="1"/>
        <pt x="12" y="128" on="0"/>
        <pt x="119" y="291" on="0"/>
        <pt x="276" y="446" on="0"/>
        <pt x="440" y="584" on="0"/>
        <pt x="567" y="668" on="0"/>
        <pt x="585" y="668" on="1"/>
        <pt x="614" y="668" on="0"/>
        <pt x="672" y="617" on="0"/>
        <pt x="672" y="569" on="0"/>
        <pt x="439" y="258" on="0"/>
        <pt x="161" y="-41" on="0"/>
        <pt x="111" y="-41" on="1"/>
        <pt x="77" y="-41" on="0"/>
        <pt x="12" y="32" on="0"/>
      </contour>
      <contour>
        <pt x="908" y="823" on="1"/>
        <pt x="913" y="810" on="0"/>
        <pt x="913" y="802" on="1"/>
        <pt x="913" y="778" on="0"/>
        <pt x="849" y="748" on="0"/>
        <pt x="817" y="745" on="1"/>
        <pt x="785" y="742" on="1"/>
        <pt x="760" y="738" on="0"/>
        <pt x="703" y="708" on="1"/>
        <pt x="685" y="699" on="1"/>
        <pt x="676" y="704" on="0"/>
        <pt x="676" y="712" on="1"/>
        <pt x="676" y="744" on="0"/>
        <pt x="810" y="850" on="0"/>
        <pt x="896" y="850" on="0"/>
      </contour>
    </TTGlyph>
    <TTGlyph name="Icircumflex" xMin="12" yMin="-41" xMax="800" yMax="859">
      <contour>
        <pt x="12" y="71" on="1"/>
        <pt x="12" y="128" on="0"/>
        <pt x="119" y="291" on="0"/>
        <pt x="276" y="446" on="0"/>
        <pt x="440" y="584" on="0"/>
        <pt x="567" y="668" on="0"/>
        <pt x="585" y="668" on="1"/>
        <pt x="614" y="668" on="0"/>
        <pt x="672" y="617" on="0"/>
        <pt x="672" y="569" on="0"/>
        <pt x="439" y="258" on="0"/>
        <pt x="161" y="-41" on="0"/>
        <pt x="111" y="-41" on="1"/>
        <pt x="77" y="-41" on="0"/>
        <pt x="12" y="32" on="0"/>
      </contour>
      <contour>
        <pt x="779" y="665" on="1"/>
        <pt x="737" y="665" on="0"/>
        <pt x="715" y="768" on="1"/>
        <pt x="700" y="764" on="0"/>
        <pt x="594" y="743" on="0"/>
        <pt x="573" y="732" on="1"/>
        <pt x="562" y="728" on="0"/>
        <pt x="543" y="728" on="0"/>
        <pt x="543" y="737" on="1"/>
        <pt x="543" y="773" on="0"/>
        <pt x="669" y="859" on="0"/>
        <pt x="754" y="859" on="1"/>
        <pt x="769" y="859" on="0"/>
        <pt x="800" y="757" on="0"/>
        <pt x="800" y="665" on="0"/>
      </contour>
    </TTGlyph>
    <TTGlyph name="Idieresis" xMin="12" yMin="-41" xMax="871" yMax="853">
      <contour>
        <pt x="12" y="71" on="1"/>
        <pt x="12" y="128" on="0"/>
        <pt x="119" y="291" on="0"/>
        <pt x="276" y="446" on="0"/>
        <pt x="440" y="584" on="0"/>
        <pt x="567" y="668" on="0"/>
        <pt x="585" y="668" on="1"/>
        <pt x="614" y="668" on="0"/>
        <pt x="672" y="617" on="0"/>
        <pt x="672" y="569" on="0"/>
        <pt x="439" y="258" on="0"/>
        <pt x="161" y="-41" on="0"/>
        <pt x="111" y="-41" on="1"/>
        <pt x="77" y="-41" on="0"/>
        <pt x="12" y="32" on="0"/>
      </contour>
      <contour>
        <pt x="610" y="708" on="1"/>
        <pt x="593" y="708" on="0"/>
        <pt x="573" y="732" on="0"/>
        <pt x="572" y="744" on="1"/>
        <pt x="570" y="755" on="1"/>
        <pt x="575" y="803" on="0"/>
        <pt x="651" y="853" on="0"/>
        <pt x="679" y="853" on="1"/>
        <pt x="720" y="853" on="0"/>
        <pt x="720" y="812" on="1"/>
        <pt x="720" y="786" on="0"/>
        <pt x="658" y="713" on="0"/>
      </contour>
      <contour>
        <pt x="761" y="700" on="1"/>
        <pt x="744" y="700" on="0"/>
        <pt x="724" y="724" on="0"/>
        <pt x="722" y="736" on="1"/>
        <pt x="721" y="747" on="1"/>
        <pt x="726" y="795" on="0"/>
        <pt x="802" y="845" on="0"/>
        <pt x="830" y="845" on="1"/>
        <pt x="871" y="845" on="0"/>
        <pt x="871" y="804" on="1"/>
        <pt x="871" y="778" on="0"/>
        <pt x="809" y="705" on="0"/>
      </contour>
    </TTGlyph>
    <TTGlyph name="Igrave" xMin="12" yMin="-41" xMax="738" yMax="868">
      <contour>
        <pt x="12" y="71" on="1"/>
        <pt x="12" y="128" on="0"/>
        <pt x="119" y="291" on="0"/>
        <pt x="276" y="446" on="0"/>
        <pt x="440" y="584" on="0"/>
        <pt x="567" y="668" on="0"/>
        <pt x="585" y="668" on="1"/>
        <pt x="614" y="668" on="0"/>
        <pt x="672" y="617" on="0"/>
        <pt x="672" y="569" on="0"/>
        <pt x="439" y="258" on="0"/>
        <pt x="161" y="-41" on="0"/>
        <pt x="111" y="-41" on="1"/>
        <pt x="77" y="-41" on="0"/>
        <pt x="12" y="32" on="0"/>
      </contour>
      <contour>
        <pt x="564" y="868" on="1"/>
        <pt x="612" y="868" on="0"/>
        <pt x="738" y="742" on="0"/>
        <pt x="738" y="698" on="1"/>
        <pt x="737" y="692" on="0"/>
        <pt x="727" y="687" on="1"/>
        <pt x="666" y="737" on="0"/>
        <pt x="636" y="747" on="1"/>
        <pt x="601" y="754" on="0"/>
        <pt x="573" y="768" on="1"/>
        <pt x="520" y="796" on="0"/>
        <pt x="520" y="823" on="1"/>
        <pt x="520" y="840" on="0"/>
        <pt x="545" y="868" on="0"/>
      </contour>
    </TTGlyph>
    <TTGlyph name="J" xMin="-89" yMin="-267" xMax="857" yMax="693">
      <contour>
        <pt x="857" y="546" on="1"/>
        <pt x="857" y="447" on="0"/>
        <pt x="679" y="233" on="1"/>
        <pt x="743" y="189" on="0"/>
        <pt x="743" y="156" on="1"/>
        <pt x="743" y="134" on="0"/>
        <pt x="722" y="129" on="1"/>
        <pt x="624" y="105" on="0"/>
        <pt x="525" y="67" on="1"/>
        <pt x="378" y="-77" on="0"/>
        <pt x="92" y="-267" on="0"/>
        <pt x="4" y="-267" on="1"/>
        <pt x="-33" y="-267" on="0"/>
        <pt x="-89" y="-190" on="0"/>
        <pt x="-89" y="-151" on="1"/>
        <pt x="-89" y="-79" on="0"/>
        <pt x="12" y="55" on="0"/>
        <pt x="168" y="151" on="0"/>
        <pt x="260" y="188" on="1"/>
        <pt x="442" y="261" on="0"/>
        <pt x="583" y="261" on="1"/>
        <pt x="595" y="261" on="0"/>
        <pt x="617" y="259" on="1"/>
        <pt x="762" y="416" on="0"/>
        <pt x="762" y="468" on="1"/>
        <pt x="762" y="492" on="0"/>
        <pt x="728" y="492" on="1"/>
        <pt x="681" y="492" on="0"/>
        <pt x="508" y="431" on="0"/>
        <pt x="372" y="352" on="0"/>
        <pt x="372" y="330" on="1"/>
        <pt x="372" y="323" on="0"/>
        <pt x="394" y="323" on="1"/>
        <pt x="472" y="333" on="1"/>
        <pt x="499" y="333" on="0"/>
        <pt x="499" y="315" on="1"/>
        <pt x="499" y="295" on="0"/>
        <pt x="416" y="269" on="0"/>
        <pt x="379" y="269" on="1"/>
        <pt x="300" y="269" on="0"/>
        <pt x="183" y="344" on="0"/>
        <pt x="183" y="410" on="1"/>
        <pt x="183" y="465" on="0"/>
        <pt x="350" y="600" on="0"/>
        <pt x="590" y="693" on="0"/>
        <pt x="678" y="693" on="1"/>
        <pt x="857" y="693" on="0"/>
      </contour>
      <contour>
        <pt x="69" y="-201" on="1"/>
        <pt x="69" y="-204" on="0"/>
        <pt x="73" y="-204" on="1"/>
        <pt x="96" y="-204" on="0"/>
        <pt x="245" y="-95" on="0"/>
        <pt x="342" y="-9" on="1"/>
        <pt x="222" y="-66" on="0"/>
        <pt x="69" y="-171" on="0"/>
      </contour>
    </TTGlyph>
    <TTGlyph name="K" xMin="25" yMin="-78" xMax="1122" yMax="735">
      <contour>
        <pt x="96" y="-3" on="0"/>
        <pt x="25" y="93" on="0"/>
        <pt x="25" y="165" on="0"/>
        <pt x="173" y="362" on="0"/>
        <pt x="371" y="564" on="0"/>
        <pt x="592" y="719" on="0"/>
        <pt x="656" y="719" on="1"/>
        <pt x="694" y="719" on="0"/>
        <pt x="701" y="663" on="1"/>
        <pt x="701" y="661" on="1"/>
        <pt x="701" y="630" on="0"/>
        <pt x="577" y="454" on="0"/>
        <pt x="542" y="414" on="1"/>
        <pt x="533" y="402" on="0"/>
        <pt x="533" y="395" on="0"/>
        <pt x="542" y="395" on="0"/>
        <pt x="559" y="400" on="1"/>
        <pt x="633" y="424" on="0"/>
        <pt x="839" y="538" on="0"/>
        <pt x="966" y="622" on="0"/>
        <pt x="983" y="636" on="0"/>
        <pt x="983" y="641" on="0"/>
        <pt x="976" y="641" on="0"/>
        <pt x="881" y="597" on="0"/>
        <pt x="861" y="597" on="0"/>
        <pt x="824" y="618" on="0"/>
        <pt x="824" y="634" on="1"/>
        <pt x="824" y="661" on="0"/>
        <pt x="1019" y="735" on="0"/>
        <pt x="1051" y="735" on="1"/>
        <pt x="1122" y="735" on="0"/>
        <pt x="1122" y="699" on="1"/>
        <pt x="1122" y="655" on="0"/>
        <pt x="972" y="532" on="0"/>
        <pt x="870" y="479" on="1"/>
        <pt x="684" y="382" on="0"/>
        <pt x="615" y="354" on="1"/>
        <pt x="608" y="350" on="0"/>
        <pt x="608" y="344" on="1"/>
        <pt x="747" y="27" on="0"/>
        <pt x="747" y="-18" on="1"/>
        <pt x="747" y="-46" on="0"/>
        <pt x="694" y="-78" on="0"/>
        <pt x="596" y="-78" on="0"/>
        <pt x="508" y="-16" on="0"/>
        <pt x="459" y="72" on="0"/>
        <pt x="426" y="160" on="0"/>
        <pt x="405" y="222" on="0"/>
        <pt x="394" y="222" on="0"/>
        <pt x="382" y="211" on="0"/>
        <pt x="333" y="160" on="0"/>
        <pt x="274" y="101" on="0"/>
        <pt x="240" y="70" on="1"/>
        <pt x="163" y="-3" on="0"/>
      </contour>
    </TTGlyph>
    <TTGlyph name="L" xMin="-105" yMin="-104" xMax="1073" yMax="702">
      <contour>
        <pt x="507" y="249" on="1"/>
        <pt x="624" y="235" on="0"/>
        <pt x="712" y="192" on="1"/>
        <pt x="759" y="169" on="0"/>
        <pt x="814" y="91" on="0"/>
        <pt x="814" y="41" on="1"/>
        <pt x="814" y="11" on="0"/>
        <pt x="791" y="8" on="1"/>
        <pt x="782" y="6" on="0"/>
        <pt x="689" y="6" on="0"/>
        <pt x="410" y="37" on="0"/>
        <pt x="308" y="39" on="1"/>
        <pt x="148" y="-104" on="0"/>
        <pt x="19" y="-104" on="1"/>
        <pt x="-35" y="-104" on="0"/>
        <pt x="-105" y="-33" on="0"/>
        <pt x="-105" y="14" on="1"/>
        <pt x="-105" y="118" on="0"/>
        <pt x="114" y="259" on="0"/>
        <pt x="344" y="259" on="1"/>
        <pt x="388" y="259" on="0"/>
        <pt x="443" y="255" on="1"/>
        <pt x="463" y="278" on="0"/>
        <pt x="501" y="324" on="1"/>
        <pt x="458" y="326" on="0"/>
        <pt x="400" y="360" on="0"/>
        <pt x="389" y="405" on="1"/>
        <pt x="389" y="435" on="0"/>
        <pt x="420" y="435" on="1"/>
        <pt x="513" y="435" on="0"/>
        <pt x="618" y="460" on="1"/>
        <pt x="722" y="575" on="0"/>
        <pt x="903" y="701" on="0"/>
        <pt x="997" y="702" on="1"/>
        <pt x="1073" y="695" on="0"/>
        <pt x="1073" y="636" on="1"/>
        <pt x="1073" y="563" on="0"/>
        <pt x="921" y="423" on="0"/>
        <pt x="689" y="333" on="0"/>
        <pt x="571" y="325" on="1"/>
        <pt x="529" y="275" on="0"/>
      </contour>
      <contour>
        <pt x="959" y="644" on="1"/>
        <pt x="959" y="648" on="0"/>
        <pt x="953" y="648" on="1"/>
        <pt x="861" y="648" on="0"/>
        <pt x="711" y="486" on="1"/>
        <pt x="817" y="521" on="0"/>
        <pt x="959" y="609" on="0"/>
      </contour>
      <contour>
        <pt x="0" y="-42" on="1"/>
        <pt x="0" y="-47" on="0"/>
        <pt x="9" y="-47" on="1"/>
        <pt x="110" y="-47" on="0"/>
        <pt x="223" y="36" on="1"/>
        <pt x="136" y="30" on="0"/>
        <pt x="0" y="-7" on="0"/>
      </contour>
    </TTGlyph>
    <TTGlyph name="Lslash" xMin="-105" yMin="-104" xMax="1073" yMax="702">
      <contour>
        <pt x="549" y="299" on="1"/>
        <pt x="565" y="297" on="0"/>
        <pt x="619" y="297" on="0"/>
        <pt x="641" y="302" on="1"/>
        <pt x="648" y="302" on="0"/>
        <pt x="656" y="294" on="0"/>
        <pt x="657" y="285" on="1"/>
        <pt x="652" y="265" on="0"/>
        <pt x="588" y="265" on="1"/>
        <pt x="554" y="265" on="0"/>
        <pt x="523" y="268" on="1"/>
        <pt x="517" y="259" on="0"/>
        <pt x="507" y="249" on="1"/>
        <pt x="624" y="235" on="0"/>
        <pt x="712" y="192" on="1"/>
        <pt x="759" y="169" on="0"/>
        <pt x="814" y="91" on="0"/>
        <pt x="814" y="41" on="1"/>
        <pt x="814" y="11" on="0"/>
        <pt x="791" y="8" on="1"/>
        <pt x="782" y="6" on="0"/>
        <pt x="689" y="6" on="0"/>
        <pt x="410" y="37" on="0"/>
        <pt x="308" y="39" on="1"/>
        <pt x="148" y="-104" on="0"/>
        <pt x="19" y="-104" on="1"/>
        <pt x="-35" y="-104" on="0"/>
        <pt x="-105" y="-33" on="0"/>
        <pt x="-105" y="14" on="1"/>
        <pt x="-105" y="118" on="0"/>
        <pt x="114" y="259" on="0"/>
        <pt x="344" y="259" on="1"/>
        <pt x="388" y="259" on="0"/>
        <pt x="443" y="255" on="1"/>
        <pt x="455" y="269" on="0"/>
        <pt x="460" y="275" on="1"/>
        <pt x="357" y="293" on="0"/>
        <pt x="357" y="314" on="1"/>
        <pt x="357" y="331" on="0"/>
        <pt x="379" y="331" on="1"/>
        <pt x="386" y="331" on="0"/>
        <pt x="454" y="313" on="0"/>
        <pt x="487" y="307" on="1"/>
        <pt x="497" y="319" on="0"/>
        <pt x="501" y="324" on="1"/>
        <pt x="458" y="326" on="0"/>
        <pt x="400" y="360" on="0"/>
        <pt x="389" y="405" on="1"/>
        <pt x="389" y="435" on="0"/>
        <pt x="420" y="435" on="1"/>
        <pt x="513" y="435" on="0"/>
        <pt x="618" y="460" on="1"/>
        <pt x="722" y="575" on="0"/>
        <pt x="903" y="701" on="0"/>
        <pt x="997" y="702" on="1"/>
        <pt x="1073" y="695" on="0"/>
        <pt x="1073" y="636" on="1"/>
        <pt x="1073" y="563" on="0"/>
        <pt x="920" y="423" on="0"/>
        <pt x="689" y="333" on="0"/>
        <pt x="571" y="325" on="1"/>
        <pt x="557" y="309" on="0"/>
      </contour>
      <contour>
        <pt x="959" y="644" on="1"/>
        <pt x="959" y="648" on="0"/>
        <pt x="953" y="648" on="1"/>
        <pt x="861" y="648" on="0"/>
        <pt x="711" y="486" on="1"/>
        <pt x="817" y="521" on="0"/>
        <pt x="959" y="609" on="0"/>
      </contour>
      <contour>
        <pt x="0" y="-42" on="1"/>
        <pt x="0" y="-47" on="0"/>
        <pt x="9" y="-47" on="1"/>
        <pt x="110" y="-47" on="0"/>
        <pt x="223" y="36" on="1"/>
        <pt x="136" y="30" on="0"/>
        <pt x="0" y="-7" on="0"/>
      </contour>
    </TTGlyph>
    <TTGlyph name="M" xMin="-108" yMin="-44" xMax="1218" yMax="775">
      <contour>
        <pt x="58" y="263" on="0"/>
        <pt x="-21" y="145" on="0"/>
        <pt x="-21" y="127" on="0"/>
        <pt x="-9" y="127" on="0"/>
        <pt x="47" y="175" on="0"/>
        <pt x="184" y="297" on="0"/>
        <pt x="306" y="403" on="0"/>
        <pt x="505" y="613" on="0"/>
        <pt x="625" y="743" on="0"/>
        <pt x="634" y="743" on="1"/>
        <pt x="664" y="743" on="0"/>
        <pt x="727" y="639" on="0"/>
        <pt x="727" y="597" on="0"/>
        <pt x="687" y="510" on="1"/>
        <pt x="647" y="422" on="1"/>
        <pt x="647" y="418" on="0"/>
        <pt x="652" y="418" on="0"/>
        <pt x="1133" y="775" on="0"/>
        <pt x="1160" y="775" on="1"/>
        <pt x="1180" y="775" on="0"/>
        <pt x="1218" y="733" on="0"/>
        <pt x="1218" y="690" on="0"/>
        <pt x="994" y="418" on="0"/>
        <pt x="769" y="150" on="0"/>
        <pt x="769" y="131" on="1"/>
        <pt x="769" y="128" on="0"/>
        <pt x="779" y="128" on="0"/>
        <pt x="815" y="159" on="0"/>
        <pt x="827" y="159" on="1"/>
        <pt x="848" y="159" on="0"/>
        <pt x="848" y="120" on="0"/>
        <pt x="750" y="34" on="0"/>
        <pt x="599" y="-44" on="0"/>
        <pt x="491" y="-44" on="0"/>
        <pt x="450" y="3" on="0"/>
        <pt x="450" y="38" on="1"/>
        <pt x="450" y="94" on="0"/>
        <pt x="601" y="290" on="0"/>
        <pt x="660" y="335" on="1"/>
        <pt x="665" y="340" on="0"/>
        <pt x="665" y="345" on="0"/>
        <pt x="662" y="345" on="1"/>
        <pt x="652" y="345" on="0"/>
        <pt x="556" y="260" on="1"/>
        <pt x="270" y="7" on="0"/>
        <pt x="231" y="7" on="1"/>
        <pt x="217" y="7" on="0"/>
        <pt x="179" y="51" on="0"/>
        <pt x="179" y="63" on="1"/>
        <pt x="179" y="114" on="0"/>
        <pt x="276" y="268" on="1"/>
        <pt x="308" y="318" on="0"/>
        <pt x="308" y="320" on="1"/>
        <pt x="305" y="322" on="1"/>
        <pt x="303" y="322" on="0"/>
        <pt x="300" y="319" on="1"/>
        <pt x="203" y="224" on="1"/>
        <pt x="-24" y="2" on="0"/>
        <pt x="-80" y="2" on="1"/>
        <pt x="-108" y="2" on="0"/>
        <pt x="-108" y="97" on="0"/>
        <pt x="-3" y="298" on="0"/>
        <pt x="32" y="298" on="1"/>
        <pt x="58" y="298" on="0"/>
        <pt x="58" y="272" on="1"/>
      </contour>
    </TTGlyph>
    <TTGlyph name="N" xMin="-116" yMin="-12" xMax="1090" yMax="750">
      <contour>
        <pt x="624" y="458" on="0"/>
        <pt x="567" y="335" on="0"/>
        <pt x="567" y="324" on="0"/>
        <pt x="570" y="324" on="1"/>
        <pt x="578" y="324" on="0"/>
        <pt x="596" y="345" on="0"/>
        <pt x="694" y="452" on="1"/>
        <pt x="923" y="702" on="0"/>
        <pt x="1003" y="732" on="1"/>
        <pt x="1029" y="743" on="0"/>
        <pt x="1059" y="743" on="0"/>
        <pt x="1090" y="722" on="0"/>
        <pt x="1090" y="703" on="0"/>
        <pt x="1081" y="695" on="1"/>
        <pt x="1064" y="682" on="1"/>
        <pt x="902" y="557" on="0"/>
        <pt x="738" y="381" on="1"/>
        <pt x="711" y="351" on="0"/>
        <pt x="620" y="251" on="0"/>
        <pt x="564" y="189" on="0"/>
        <pt x="486" y="107" on="0"/>
        <pt x="433" y="58" on="0"/>
        <pt x="404" y="34" on="1"/>
        <pt x="350" y="-12" on="0"/>
        <pt x="283" y="-12" on="0"/>
        <pt x="213" y="83" on="0"/>
        <pt x="213" y="143" on="0"/>
        <pt x="329" y="390" on="0"/>
        <pt x="382" y="442" on="1"/>
        <pt x="395" y="455" on="0"/>
        <pt x="395" y="470" on="0"/>
        <pt x="378" y="470" on="0"/>
        <pt x="362" y="451" on="0"/>
        <pt x="289" y="366" on="0"/>
        <pt x="235" y="305" on="0"/>
        <pt x="148" y="208" on="0"/>
        <pt x="77" y="140" on="0"/>
        <pt x="39" y="106" on="1"/>
        <pt x="-39" y="36" on="0"/>
        <pt x="-81" y="36" on="1"/>
        <pt x="-116" y="38" on="0"/>
        <pt x="-116" y="134" on="0"/>
        <pt x="-38" y="312" on="0"/>
        <pt x="-5" y="312" on="1"/>
        <pt x="17" y="312" on="0"/>
        <pt x="17" y="293" on="1"/>
        <pt x="17" y="278" on="0"/>
        <pt x="-42" y="162" on="0"/>
        <pt x="-42" y="147" on="0"/>
        <pt x="-38" y="147" on="1"/>
        <pt x="-29" y="147" on="0"/>
        <pt x="91" y="258" on="0"/>
        <pt x="146" y="314" on="1"/>
        <pt x="202" y="369" on="1"/>
        <pt x="276" y="438" on="0"/>
        <pt x="436" y="615" on="1"/>
        <pt x="484" y="668" on="0"/>
        <pt x="584" y="750" on="0"/>
        <pt x="646" y="750" on="0"/>
        <pt x="682" y="670" on="0"/>
        <pt x="682" y="606" on="0"/>
      </contour>
    </TTGlyph>
    <TTGlyph name="Ntilde" xMin="-116" yMin="-12" xMax="1090" yMax="923">
      <contour>
        <pt x="570" y="324" on="1"/>
        <pt x="567" y="324" on="0"/>
        <pt x="567" y="335" on="0"/>
        <pt x="596" y="396" on="1"/>
        <pt x="682" y="583" on="0"/>
        <pt x="682" y="641" on="1"/>
        <pt x="682" y="670" on="0"/>
        <pt x="646" y="750" on="0"/>
        <pt x="584" y="750" on="0"/>
        <pt x="484" y="668" on="0"/>
        <pt x="436" y="615" on="1"/>
        <pt x="276" y="438" on="0"/>
        <pt x="202" y="369" on="1"/>
        <pt x="-17" y="147" on="0"/>
        <pt x="-38" y="147" on="1"/>
        <pt x="-42" y="147" on="0"/>
        <pt x="-42" y="162" on="0"/>
        <pt x="17" y="278" on="0"/>
        <pt x="17" y="293" on="1"/>
        <pt x="17" y="312" on="0"/>
        <pt x="-5" y="312" on="1"/>
        <pt x="-38" y="312" on="0"/>
        <pt x="-116" y="134" on="0"/>
        <pt x="-116" y="38" on="0"/>
        <pt x="-81" y="36" on="1"/>
        <pt x="-39" y="36" on="0"/>
        <pt x="39" y="106" on="1"/>
        <pt x="128" y="185" on="0"/>
        <pt x="235" y="305" on="0"/>
        <pt x="262" y="336" on="1"/>
        <pt x="294" y="371" on="0"/>
        <pt x="368" y="458" on="1"/>
        <pt x="378" y="470" on="0"/>
        <pt x="395" y="470" on="0"/>
        <pt x="395" y="464" on="1"/>
        <pt x="395" y="455" on="0"/>
        <pt x="382" y="442" on="1"/>
        <pt x="329" y="390" on="0"/>
        <pt x="213" y="143" on="0"/>
        <pt x="213" y="83" on="0"/>
        <pt x="283" y="-12" on="0"/>
        <pt x="316" y="-12" on="1"/>
        <pt x="350" y="-12" on="0"/>
        <pt x="404" y="34" on="1"/>
        <pt x="486" y="103" on="0"/>
        <pt x="592" y="220" on="1"/>
        <pt x="620" y="251" on="0"/>
        <pt x="711" y="351" on="0"/>
        <pt x="779" y="425" on="0"/>
        <pt x="867" y="512" on="0"/>
        <pt x="936" y="575" on="0"/>
        <pt x="970" y="604" on="1"/>
        <pt x="1021" y="648" on="0"/>
        <pt x="1064" y="682" on="1"/>
        <pt x="1081" y="695" on="1"/>
        <pt x="1090" y="703" on="0"/>
        <pt x="1090" y="722" on="0"/>
        <pt x="1059" y="743" on="0"/>
        <pt x="1029" y="743" on="0"/>
        <pt x="1003" y="732" on="1"/>
        <pt x="923" y="702" on="0"/>
        <pt x="694" y="452" on="1"/>
        <pt x="596" y="345" on="0"/>
        <pt x="578" y="324" on="0"/>
      </contour>
      <contour>
        <pt x="1026" y="888" on="0"/>
        <pt x="1040" y="873" on="0"/>
        <pt x="1039" y="861" on="0"/>
        <pt x="1035" y="851" on="0"/>
        <pt x="1017" y="825" on="0"/>
        <pt x="1006" y="816" on="1"/>
        <pt x="976" y="790" on="0"/>
        <pt x="931" y="790" on="1"/>
        <pt x="905" y="794" on="0"/>
        <pt x="831" y="851" on="0"/>
        <pt x="808" y="853" on="0"/>
        <pt x="793" y="840" on="0"/>
        <pt x="779" y="841" on="0"/>
        <pt x="766" y="853" on="0"/>
        <pt x="766" y="861" on="1"/>
        <pt x="766" y="862" on="1"/>
        <pt x="779" y="888" on="0"/>
        <pt x="833" y="923" on="0"/>
        <pt x="883" y="923" on="0"/>
        <pt x="969" y="867" on="0"/>
        <pt x="1000" y="867" on="0"/>
        <pt x="1014" y="889" on="0"/>
      </contour>
    </TTGlyph>
    <TTGlyph name="O" xMin="36" yMin="-19" xMax="883" yMax="712">
      <contour>
        <pt x="786" y="660" on="1"/>
        <pt x="812" y="675" on="0"/>
        <pt x="859" y="675" on="0"/>
        <pt x="883" y="643" on="0"/>
        <pt x="883" y="588" on="0"/>
        <pt x="815" y="464" on="0"/>
        <pt x="705" y="322" on="0"/>
        <pt x="555" y="175" on="0"/>
        <pt x="401" y="56" on="0"/>
        <pt x="238" y="-19" on="0"/>
        <pt x="117" y="-19" on="0"/>
        <pt x="36" y="73" on="0"/>
        <pt x="36" y="253" on="0"/>
        <pt x="127" y="426" on="0"/>
        <pt x="271" y="557" on="0"/>
        <pt x="443" y="659" on="0"/>
        <pt x="612" y="712" on="0"/>
        <pt x="750" y="712" on="0"/>
        <pt x="780" y="660" on="1"/>
      </contour>
      <contour>
        <pt x="281" y="125" on="1"/>
        <pt x="281" y="89" on="0"/>
        <pt x="311" y="89" on="1"/>
        <pt x="363" y="89" on="0"/>
        <pt x="591" y="283" on="0"/>
        <pt x="779" y="521" on="0"/>
        <pt x="780" y="578" on="1"/>
        <pt x="780" y="587" on="0"/>
        <pt x="772" y="587" on="1"/>
        <pt x="751" y="587" on="0"/>
        <pt x="631" y="451" on="0"/>
        <pt x="623" y="427" on="1"/>
        <pt x="622" y="426" on="0"/>
        <pt x="617" y="418" on="0"/>
        <pt x="614" y="414" on="1"/>
        <pt x="608" y="405" on="0"/>
        <pt x="580" y="405" on="0"/>
        <pt x="562" y="422" on="0"/>
        <pt x="562" y="448" on="0"/>
        <pt x="619" y="534" on="0"/>
        <pt x="619" y="540" on="0"/>
        <pt x="616" y="540" on="1"/>
        <pt x="594" y="540" on="0"/>
        <pt x="431" y="381" on="0"/>
        <pt x="281" y="176" on="0"/>
      </contour>
    </TTGlyph>
    <TTGlyph name="OE" xMin="36" yMin="-49" xMax="1378" yMax="759">
      <contour>
        <pt x="1211" y="759" on="1"/>
        <pt x="1378" y="758" on="0"/>
        <pt x="1378" y="665" on="1"/>
        <pt x="1378" y="625" on="0"/>
        <pt x="1316" y="526" on="0"/>
        <pt x="1245" y="463" on="0"/>
        <pt x="1228" y="463" on="1"/>
        <pt x="1220" y="463" on="0"/>
        <pt x="1208" y="476" on="0"/>
        <pt x="1208" y="497" on="0"/>
        <pt x="1247" y="541" on="0"/>
        <pt x="1247" y="563" on="0"/>
        <pt x="1222" y="563" on="1"/>
        <pt x="1157" y="563" on="0"/>
        <pt x="866" y="456" on="0"/>
        <pt x="865" y="429" on="1"/>
        <pt x="866" y="422" on="0"/>
        <pt x="917" y="422" on="0"/>
        <pt x="982" y="432" on="0"/>
        <pt x="999" y="432" on="1"/>
        <pt x="1044" y="432" on="0"/>
        <pt x="1044" y="408" on="1"/>
        <pt x="1044" y="395" on="0"/>
        <pt x="1014" y="379" on="0"/>
        <pt x="993" y="370" on="0"/>
        <pt x="955" y="355" on="0"/>
        <pt x="930" y="343" on="0"/>
        <pt x="906" y="332" on="1"/>
        <pt x="866" y="315" on="1"/>
        <pt x="826" y="298" on="0"/>
        <pt x="767" y="268" on="0"/>
        <pt x="726" y="248" on="0"/>
        <pt x="698" y="232" on="0"/>
        <pt x="686" y="224" on="1"/>
        <pt x="661" y="207" on="0"/>
        <pt x="661" y="198" on="1"/>
        <pt x="661" y="178" on="0"/>
        <pt x="693" y="178" on="1"/>
        <pt x="761" y="178" on="0"/>
        <pt x="923" y="228" on="0"/>
        <pt x="1036" y="277" on="0"/>
        <pt x="1044" y="277" on="1"/>
        <pt x="1079" y="276" on="0"/>
        <pt x="1126" y="208" on="0"/>
        <pt x="1126" y="174" on="1"/>
        <pt x="1126" y="126" on="0"/>
        <pt x="994" y="20" on="0"/>
        <pt x="797" y="-49" on="0"/>
        <pt x="625" y="-49" on="0"/>
        <pt x="513" y="22" on="0"/>
        <pt x="502" y="97" on="1"/>
        <pt x="502" y="120" on="0"/>
        <pt x="516" y="145" on="1"/>
        <pt x="314" y="-19" on="0"/>
        <pt x="172" y="-19" on="1"/>
        <pt x="117" y="-19" on="0"/>
        <pt x="36" y="73" on="0"/>
        <pt x="36" y="253" on="0"/>
        <pt x="127" y="426" on="0"/>
        <pt x="271" y="557" on="0"/>
        <pt x="443" y="659" on="0"/>
        <pt x="612" y="712" on="0"/>
        <pt x="678" y="712" on="1"/>
        <pt x="708" y="712" on="0"/>
        <pt x="774" y="667" on="0"/>
        <pt x="788" y="631" on="1"/>
        <pt x="869" y="686" on="0"/>
        <pt x="1111" y="759" on="0"/>
      </contour>
      <contour>
        <pt x="281" y="125" on="1"/>
        <pt x="281" y="89" on="0"/>
        <pt x="311" y="89" on="1"/>
        <pt x="368" y="89" on="0"/>
        <pt x="627" y="320" on="0"/>
        <pt x="713" y="440" on="1"/>
        <pt x="693" y="470" on="0"/>
        <pt x="693" y="503" on="1"/>
        <pt x="693" y="513" on="0"/>
        <pt x="696" y="525" on="1"/>
        <pt x="633" y="455" on="0"/>
        <pt x="623" y="427" on="1"/>
        <pt x="622" y="426" on="0"/>
        <pt x="617" y="418" on="0"/>
        <pt x="614" y="414" on="1"/>
        <pt x="608" y="405" on="0"/>
        <pt x="580" y="405" on="0"/>
        <pt x="562" y="422" on="0"/>
        <pt x="562" y="448" on="0"/>
        <pt x="619" y="534" on="0"/>
        <pt x="619" y="540" on="0"/>
        <pt x="616" y="540" on="1"/>
        <pt x="594" y="540" on="0"/>
        <pt x="431" y="381" on="0"/>
        <pt x="281" y="176" on="0"/>
      </contour>
      <contour>
        <pt x="764" y="398" on="1"/>
        <pt x="709" y="328" on="0"/>
        <pt x="648" y="266" on="1"/>
        <pt x="709" y="304" on="0"/>
        <pt x="843" y="364" on="0"/>
        <pt x="866" y="368" on="1"/>
        <pt x="872" y="370" on="0"/>
        <pt x="872" y="372" on="1"/>
        <pt x="872" y="380" on="0"/>
        <pt x="860" y="382" on="1"/>
        <pt x="795" y="389" on="0"/>
        <pt x="779" y="392" on="0"/>
      </contour>
    </TTGlyph>
    <TTGlyph name="Oacute" xMin="36" yMin="-19" xMax="1017" yMax="879">
      <contour>
        <pt x="786" y="660" on="1"/>
        <pt x="812" y="675" on="0"/>
        <pt x="859" y="675" on="0"/>
        <pt x="883" y="643" on="0"/>
        <pt x="883" y="588" on="0"/>
        <pt x="815" y="464" on="0"/>
        <pt x="705" y="322" on="0"/>
        <pt x="555" y="175" on="0"/>
        <pt x="401" y="56" on="0"/>
        <pt x="238" y="-19" on="0"/>
        <pt x="117" y="-19" on="0"/>
        <pt x="36" y="73" on="0"/>
        <pt x="36" y="253" on="0"/>
        <pt x="127" y="426" on="0"/>
        <pt x="271" y="557" on="0"/>
        <pt x="443" y="659" on="0"/>
        <pt x="612" y="712" on="0"/>
        <pt x="750" y="712" on="0"/>
        <pt x="780" y="660" on="1"/>
      </contour>
      <contour>
        <pt x="281" y="125" on="1"/>
        <pt x="281" y="89" on="0"/>
        <pt x="311" y="89" on="1"/>
        <pt x="363" y="89" on="0"/>
        <pt x="591" y="283" on="0"/>
        <pt x="779" y="521" on="0"/>
        <pt x="780" y="578" on="1"/>
        <pt x="780" y="587" on="0"/>
        <pt x="772" y="587" on="1"/>
        <pt x="751" y="587" on="0"/>
        <pt x="631" y="451" on="0"/>
        <pt x="623" y="427" on="1"/>
        <pt x="622" y="426" on="0"/>
        <pt x="617" y="418" on="0"/>
        <pt x="614" y="414" on="1"/>
        <pt x="608" y="405" on="0"/>
        <pt x="580" y="405" on="0"/>
        <pt x="562" y="422" on="0"/>
        <pt x="562" y="448" on="0"/>
        <pt x="619" y="534" on="0"/>
        <pt x="619" y="540" on="0"/>
        <pt x="616" y="540" on="1"/>
        <pt x="594" y="540" on="0"/>
        <pt x="431" y="381" on="0"/>
        <pt x="281" y="176" on="0"/>
      </contour>
      <contour>
        <pt x="1012" y="852" on="1"/>
        <pt x="1017" y="839" on="0"/>
        <pt x="1017" y="831" on="1"/>
        <pt x="1017" y="807" on="0"/>
        <pt x="953" y="777" on="0"/>
        <pt x="921" y="774" on="1"/>
        <pt x="889" y="771" on="1"/>
        <pt x="864" y="767" on="0"/>
        <pt x="807" y="738" on="1"/>
        <pt x="789" y="728" on="1"/>
        <pt x="780" y="732" on="0"/>
        <pt x="780" y="741" on="1"/>
        <pt x="780" y="773" on="0"/>
        <pt x="914" y="879" on="0"/>
        <pt x="1000" y="879" on="0"/>
      </contour>
    </TTGlyph>
    <TTGlyph name="Ocircumflex" xMin="36" yMin="-19" xMax="963" yMax="893">
      <contour>
        <pt x="786" y="660" on="1"/>
        <pt x="812" y="675" on="0"/>
        <pt x="859" y="675" on="0"/>
        <pt x="883" y="643" on="0"/>
        <pt x="883" y="588" on="0"/>
        <pt x="815" y="464" on="0"/>
        <pt x="705" y="322" on="0"/>
        <pt x="555" y="175" on="0"/>
        <pt x="401" y="56" on="0"/>
        <pt x="238" y="-19" on="0"/>
        <pt x="117" y="-19" on="0"/>
        <pt x="36" y="73" on="0"/>
        <pt x="36" y="253" on="0"/>
        <pt x="127" y="426" on="0"/>
        <pt x="271" y="557" on="0"/>
        <pt x="443" y="659" on="0"/>
        <pt x="612" y="712" on="0"/>
        <pt x="750" y="712" on="0"/>
        <pt x="780" y="660" on="1"/>
      </contour>
      <contour>
        <pt x="281" y="125" on="1"/>
        <pt x="281" y="89" on="0"/>
        <pt x="311" y="89" on="1"/>
        <pt x="363" y="89" on="0"/>
        <pt x="591" y="283" on="0"/>
        <pt x="779" y="521" on="0"/>
        <pt x="780" y="578" on="1"/>
        <pt x="780" y="587" on="0"/>
        <pt x="772" y="587" on="1"/>
        <pt x="751" y="587" on="0"/>
        <pt x="631" y="451" on="0"/>
        <pt x="623" y="427" on="1"/>
        <pt x="622" y="426" on="0"/>
        <pt x="617" y="418" on="0"/>
        <pt x="614" y="414" on="1"/>
        <pt x="608" y="405" on="0"/>
        <pt x="580" y="405" on="0"/>
        <pt x="562" y="422" on="0"/>
        <pt x="562" y="448" on="0"/>
        <pt x="619" y="534" on="0"/>
        <pt x="619" y="540" on="0"/>
        <pt x="616" y="540" on="1"/>
        <pt x="594" y="540" on="0"/>
        <pt x="431" y="381" on="0"/>
        <pt x="281" y="176" on="0"/>
      </contour>
      <contour>
        <pt x="942" y="699" on="1"/>
        <pt x="900" y="699" on="0"/>
        <pt x="878" y="802" on="1"/>
        <pt x="863" y="798" on="0"/>
        <pt x="757" y="777" on="0"/>
        <pt x="736" y="766" on="1"/>
        <pt x="725" y="762" on="0"/>
        <pt x="706" y="762" on="0"/>
        <pt x="706" y="771" on="1"/>
        <pt x="706" y="807" on="0"/>
        <pt x="832" y="893" on="0"/>
        <pt x="917" y="893" on="1"/>
        <pt x="932" y="893" on="0"/>
        <pt x="963" y="791" on="0"/>
        <pt x="963" y="699" on="0"/>
      </contour>
    </TTGlyph>
    <TTGlyph name="Odieresis" xMin="36" yMin="-19" xMax="923" yMax="914">
      <contour>
        <pt x="786" y="660" on="1"/>
        <pt x="812" y="675" on="0"/>
        <pt x="859" y="675" on="0"/>
        <pt x="883" y="643" on="0"/>
        <pt x="883" y="588" on="0"/>
        <pt x="815" y="464" on="0"/>
        <pt x="705" y="322" on="0"/>
        <pt x="555" y="175" on="0"/>
        <pt x="401" y="56" on="0"/>
        <pt x="238" y="-19" on="0"/>
        <pt x="117" y="-19" on="0"/>
        <pt x="36" y="73" on="0"/>
        <pt x="36" y="253" on="0"/>
        <pt x="127" y="426" on="0"/>
        <pt x="271" y="557" on="0"/>
        <pt x="443" y="659" on="0"/>
        <pt x="612" y="712" on="0"/>
        <pt x="750" y="712" on="0"/>
        <pt x="780" y="660" on="1"/>
      </contour>
      <contour>
        <pt x="281" y="125" on="1"/>
        <pt x="281" y="89" on="0"/>
        <pt x="311" y="89" on="1"/>
        <pt x="363" y="89" on="0"/>
        <pt x="591" y="283" on="0"/>
        <pt x="779" y="521" on="0"/>
        <pt x="780" y="578" on="1"/>
        <pt x="780" y="587" on="0"/>
        <pt x="772" y="587" on="1"/>
        <pt x="751" y="587" on="0"/>
        <pt x="631" y="451" on="0"/>
        <pt x="623" y="427" on="1"/>
        <pt x="622" y="426" on="0"/>
        <pt x="617" y="418" on="0"/>
        <pt x="614" y="414" on="1"/>
        <pt x="608" y="405" on="0"/>
        <pt x="580" y="405" on="0"/>
        <pt x="562" y="422" on="0"/>
        <pt x="562" y="448" on="0"/>
        <pt x="619" y="534" on="0"/>
        <pt x="619" y="540" on="0"/>
        <pt x="616" y="540" on="1"/>
        <pt x="594" y="540" on="0"/>
        <pt x="431" y="381" on="0"/>
        <pt x="281" y="176" on="0"/>
      </contour>
      <contour>
        <pt x="662" y="769" on="1"/>
        <pt x="645" y="769" on="0"/>
        <pt x="625" y="792" on="0"/>
        <pt x="624" y="804" on="1"/>
        <pt x="622" y="816" on="1"/>
        <pt x="627" y="864" on="0"/>
        <pt x="703" y="914" on="0"/>
        <pt x="731" y="914" on="1"/>
        <pt x="772" y="914" on="0"/>
        <pt x="772" y="873" on="1"/>
        <pt x="772" y="847" on="0"/>
        <pt x="710" y="774" on="0"/>
      </contour>
      <contour>
        <pt x="813" y="761" on="1"/>
        <pt x="796" y="761" on="0"/>
        <pt x="776" y="784" on="0"/>
        <pt x="774" y="796" on="1"/>
        <pt x="773" y="808" on="1"/>
        <pt x="778" y="856" on="0"/>
        <pt x="854" y="906" on="0"/>
        <pt x="882" y="906" on="1"/>
        <pt x="923" y="906" on="0"/>
        <pt x="923" y="865" on="1"/>
        <pt x="923" y="839" on="0"/>
        <pt x="861" y="766" on="0"/>
      </contour>
    </TTGlyph>
    <TTGlyph name="Ograve" xMin="36" yMin="-19" xMax="902" yMax="895">
      <contour>
        <pt x="786" y="660" on="1"/>
        <pt x="812" y="675" on="0"/>
        <pt x="859" y="675" on="0"/>
        <pt x="883" y="643" on="0"/>
        <pt x="883" y="588" on="0"/>
        <pt x="815" y="464" on="0"/>
        <pt x="705" y="322" on="0"/>
        <pt x="555" y="175" on="0"/>
        <pt x="401" y="56" on="0"/>
        <pt x="238" y="-19" on="0"/>
        <pt x="117" y="-19" on="0"/>
        <pt x="36" y="73" on="0"/>
        <pt x="36" y="253" on="0"/>
        <pt x="127" y="426" on="0"/>
        <pt x="271" y="557" on="0"/>
        <pt x="443" y="659" on="0"/>
        <pt x="612" y="712" on="0"/>
        <pt x="750" y="712" on="0"/>
        <pt x="780" y="660" on="1"/>
      </contour>
      <contour>
        <pt x="281" y="125" on="1"/>
        <pt x="281" y="89" on="0"/>
        <pt x="311" y="89" on="1"/>
        <pt x="363" y="89" on="0"/>
        <pt x="591" y="283" on="0"/>
        <pt x="779" y="521" on="0"/>
        <pt x="780" y="578" on="1"/>
        <pt x="780" y="587" on="0"/>
        <pt x="772" y="587" on="1"/>
        <pt x="751" y="587" on="0"/>
        <pt x="631" y="451" on="0"/>
        <pt x="623" y="427" on="1"/>
        <pt x="622" y="426" on="0"/>
        <pt x="617" y="418" on="0"/>
        <pt x="614" y="414" on="1"/>
        <pt x="608" y="405" on="0"/>
        <pt x="580" y="405" on="0"/>
        <pt x="562" y="422" on="0"/>
        <pt x="562" y="448" on="0"/>
        <pt x="619" y="534" on="0"/>
        <pt x="619" y="540" on="0"/>
        <pt x="616" y="540" on="1"/>
        <pt x="594" y="540" on="0"/>
        <pt x="431" y="381" on="0"/>
        <pt x="281" y="176" on="0"/>
      </contour>
      <contour>
        <pt x="728" y="895" on="1"/>
        <pt x="776" y="895" on="0"/>
        <pt x="902" y="769" on="0"/>
        <pt x="902" y="725" on="1"/>
        <pt x="901" y="719" on="0"/>
        <pt x="891" y="714" on="1"/>
        <pt x="830" y="764" on="0"/>
        <pt x="800" y="774" on="1"/>
        <pt x="765" y="781" on="0"/>
        <pt x="737" y="795" on="1"/>
        <pt x="684" y="823" on="0"/>
        <pt x="684" y="850" on="1"/>
        <pt x="684" y="867" on="0"/>
        <pt x="709" y="895" on="0"/>
      </contour>
    </TTGlyph>
    <TTGlyph name="Oslash" xMin="36" yMin="-129" xMax="883" yMax="803">
      <contour>
        <pt x="198" y="-129" on="0"/>
        <pt x="183" y="-108" on="0"/>
        <pt x="183" y="-87" on="0"/>
        <pt x="207" y="-53" on="0"/>
        <pt x="236" y="-11" on="1"/>
        <pt x="201" y="-19" on="0"/>
        <pt x="172" y="-19" on="1"/>
        <pt x="117" y="-19" on="0"/>
        <pt x="36" y="73" on="0"/>
        <pt x="36" y="253" on="0"/>
        <pt x="127" y="426" on="0"/>
        <pt x="271" y="557" on="0"/>
        <pt x="443" y="659" on="0"/>
        <pt x="612" y="712" on="0"/>
        <pt x="712" y="712" on="0"/>
        <pt x="735" y="702" on="1"/>
        <pt x="747" y="719" on="0"/>
        <pt x="770" y="751" on="0"/>
        <pt x="776" y="760" on="1"/>
        <pt x="804" y="803" on="0"/>
        <pt x="827" y="803" on="1"/>
        <pt x="838" y="803" on="0"/>
        <pt x="856" y="789" on="0"/>
        <pt x="856" y="770" on="0"/>
        <pt x="783" y="660" on="1"/>
        <pt x="786" y="660" on="1"/>
        <pt x="812" y="675" on="0"/>
        <pt x="859" y="675" on="0"/>
        <pt x="883" y="643" on="0"/>
        <pt x="883" y="623" on="1"/>
        <pt x="883" y="566" on="0"/>
        <pt x="723" y="335" on="0"/>
        <pt x="466" y="93" on="0"/>
        <pt x="346" y="31" on="1"/>
        <pt x="257" y="-93" on="0"/>
        <pt x="228" y="-129" on="0"/>
      </contour>
      <contour>
        <pt x="281" y="125" on="1"/>
        <pt x="281" y="91" on="0"/>
        <pt x="306" y="89" on="1"/>
        <pt x="467" y="318" on="0"/>
        <pt x="619" y="536" on="1"/>
        <pt x="619" y="537" on="1"/>
        <pt x="619" y="540" on="0"/>
        <pt x="616" y="540" on="1"/>
        <pt x="594" y="540" on="0"/>
        <pt x="431" y="381" on="0"/>
        <pt x="281" y="176" on="0"/>
      </contour>
      <contour>
        <pt x="772" y="587" on="1"/>
        <pt x="749" y="587" on="0"/>
        <pt x="674" y="500" on="1"/>
        <pt x="572" y="351" on="0"/>
        <pt x="428" y="148" on="1"/>
        <pt x="544" y="234" on="0"/>
        <pt x="779" y="513" on="0"/>
        <pt x="780" y="578" on="1"/>
        <pt x="780" y="587" on="0"/>
      </contour>
    </TTGlyph>
    <TTGlyph name="Otilde" xMin="36" yMin="-19" xMax="969" yMax="867">
      <contour>
        <pt x="786" y="660" on="1"/>
        <pt x="812" y="675" on="0"/>
        <pt x="859" y="675" on="0"/>
        <pt x="883" y="643" on="0"/>
        <pt x="883" y="588" on="0"/>
        <pt x="815" y="464" on="0"/>
        <pt x="705" y="322" on="0"/>
        <pt x="555" y="175" on="0"/>
        <pt x="401" y="56" on="0"/>
        <pt x="238" y="-19" on="0"/>
        <pt x="117" y="-19" on="0"/>
        <pt x="36" y="73" on="0"/>
        <pt x="36" y="253" on="0"/>
        <pt x="127" y="426" on="0"/>
        <pt x="271" y="557" on="0"/>
        <pt x="443" y="659" on="0"/>
        <pt x="612" y="712" on="0"/>
        <pt x="750" y="712" on="0"/>
        <pt x="780" y="660" on="1"/>
      </contour>
      <contour>
        <pt x="281" y="125" on="1"/>
        <pt x="281" y="89" on="0"/>
        <pt x="311" y="89" on="1"/>
        <pt x="363" y="89" on="0"/>
        <pt x="591" y="283" on="0"/>
        <pt x="779" y="521" on="0"/>
        <pt x="780" y="578" on="1"/>
        <pt x="780" y="587" on="0"/>
        <pt x="772" y="587" on="1"/>
        <pt x="751" y="587" on="0"/>
        <pt x="631" y="451" on="0"/>
        <pt x="623" y="427" on="1"/>
        <pt x="622" y="426" on="0"/>
        <pt x="617" y="418" on="0"/>
        <pt x="614" y="414" on="1"/>
        <pt x="608" y="405" on="0"/>
        <pt x="580" y="405" on="0"/>
        <pt x="562" y="422" on="0"/>
        <pt x="562" y="448" on="0"/>
        <pt x="619" y="534" on="0"/>
        <pt x="619" y="540" on="0"/>
        <pt x="616" y="540" on="1"/>
        <pt x="594" y="540" on="0"/>
        <pt x="431" y="381" on="0"/>
        <pt x="281" y="176" on="0"/>
      </contour>
      <contour>
        <pt x="955" y="832" on="0"/>
        <pt x="969" y="817" on="0"/>
        <pt x="968" y="805" on="0"/>
        <pt x="964" y="795" on="0"/>
        <pt x="946" y="769" on="0"/>
        <pt x="935" y="760" on="1"/>
        <pt x="905" y="734" on="0"/>
        <pt x="860" y="734" on="1"/>
        <pt x="834" y="738" on="0"/>
        <pt x="760" y="795" on="0"/>
        <pt x="737" y="797" on="0"/>
        <pt x="722" y="784" on="0"/>
        <pt x="708" y="785" on="0"/>
        <pt x="695" y="797" on="0"/>
        <pt x="695" y="805" on="1"/>
        <pt x="695" y="806" on="1"/>
        <pt x="708" y="832" on="0"/>
        <pt x="762" y="867" on="0"/>
        <pt x="812" y="867" on="0"/>
        <pt x="898" y="811" on="0"/>
        <pt x="929" y="811" on="0"/>
        <pt x="943" y="833" on="0"/>
      </contour>
    </TTGlyph>
    <TTGlyph name="P" xMin="-7" yMin="-8" xMax="872" yMax="734">
      <contour>
        <pt x="302" y="318" on="1"/>
        <pt x="357" y="315" on="1"/>
        <pt x="378" y="315" on="0"/>
        <pt x="390" y="316" on="1"/>
        <pt x="417" y="349" on="0"/>
        <pt x="452" y="392" on="1"/>
        <pt x="519" y="472" on="0"/>
        <pt x="525" y="480" on="1"/>
        <pt x="549" y="514" on="0"/>
        <pt x="570" y="514" on="1"/>
        <pt x="581" y="514" on="0"/>
        <pt x="599" y="500" on="0"/>
        <pt x="599" y="473" on="0"/>
        <pt x="481" y="328" on="1"/>
        <pt x="608" y="353" on="0"/>
        <pt x="810" y="461" on="0"/>
        <pt x="810" y="521" on="1"/>
        <pt x="810" y="546" on="0"/>
        <pt x="603" y="546" on="0"/>
        <pt x="347" y="492" on="0"/>
        <pt x="161" y="414" on="0"/>
        <pt x="161" y="385" on="1"/>
        <pt x="161" y="382" on="0"/>
        <pt x="176" y="382" on="0"/>
        <pt x="246" y="407" on="0"/>
        <pt x="270" y="407" on="0"/>
        <pt x="273" y="399" on="1"/>
        <pt x="273" y="374" on="0"/>
        <pt x="162" y="319" on="0"/>
        <pt x="56" y="319" on="0"/>
        <pt x="-7" y="371" on="0"/>
        <pt x="-7" y="428" on="1"/>
        <pt x="-7" y="504" on="0"/>
        <pt x="183" y="649" on="0"/>
        <pt x="459" y="734" on="0"/>
        <pt x="715" y="734" on="0"/>
        <pt x="872" y="636" on="0"/>
        <pt x="872" y="534" on="1"/>
        <pt x="872" y="497" on="0"/>
        <pt x="811" y="410" on="0"/>
        <pt x="701" y="327" on="0"/>
        <pt x="522" y="262" on="0"/>
        <pt x="417" y="251" on="1"/>
        <pt x="317" y="131" on="0"/>
        <pt x="220" y="16" on="0"/>
        <pt x="201" y="-8" on="0"/>
        <pt x="171" y="-8" on="0"/>
        <pt x="156" y="13" on="0"/>
        <pt x="156" y="34" on="0"/>
        <pt x="162" y="42" on="1"/>
        <pt x="245" y="141" on="0"/>
        <pt x="331" y="245" on="1"/>
        <pt x="307" y="245" on="1"/>
        <pt x="290" y="245" on="0"/>
        <pt x="259" y="263" on="0"/>
        <pt x="259" y="300" on="0"/>
        <pt x="286" y="318" on="0"/>
      </contour>
    </TTGlyph>
    <TTGlyph name="Q" xMin="-63" yMin="-42" xMax="921" yMax="682">
      <contour>
        <pt x="921" y="37" on="1"/>
        <pt x="921" y="-2" on="0"/>
        <pt x="840" y="-2" on="1"/>
        <pt x="817" y="-2" on="0"/>
        <pt x="449" y="43" on="0"/>
        <pt x="385" y="50" on="1"/>
        <pt x="194" y="-42" on="0"/>
        <pt x="84" y="-42" on="1"/>
        <pt x="15" y="-42" on="0"/>
        <pt x="-32" y="-5" on="1"/>
        <pt x="-63" y="19" on="0"/>
        <pt x="-63" y="56" on="1"/>
        <pt x="-63" y="110" on="0"/>
        <pt x="0" y="192" on="0"/>
        <pt x="56" y="216" on="1"/>
        <pt x="164" y="263" on="0"/>
        <pt x="459" y="263" on="0"/>
        <pt x="590" y="235" on="1"/>
        <pt x="690" y="310" on="0"/>
        <pt x="820" y="450" on="0"/>
        <pt x="821" y="486" on="1"/>
        <pt x="821" y="503" on="0"/>
        <pt x="775" y="503" on="1"/>
        <pt x="681" y="503" on="0"/>
        <pt x="345" y="402" on="0"/>
        <pt x="345" y="369" on="1"/>
        <pt x="345" y="365" on="0"/>
        <pt x="368" y="365" on="0"/>
        <pt x="462" y="388" on="0"/>
        <pt x="468" y="388" on="1"/>
        <pt x="491" y="388" on="0"/>
        <pt x="494" y="375" on="1"/>
        <pt x="494" y="353" on="0"/>
        <pt x="395" y="324" on="0"/>
        <pt x="277" y="325" on="0"/>
        <pt x="186" y="376" on="0"/>
        <pt x="186" y="419" on="1"/>
        <pt x="186" y="490" on="0"/>
        <pt x="332" y="614" on="0"/>
        <pt x="542" y="682" on="0"/>
        <pt x="753" y="682" on="0"/>
        <pt x="890" y="598" on="0"/>
        <pt x="890" y="512" on="1"/>
        <pt x="890" y="453" on="0"/>
        <pt x="763" y="298" on="0"/>
        <pt x="658" y="219" on="1"/>
        <pt x="776" y="187" on="0"/>
        <pt x="921" y="91" on="0"/>
      </contour>
      <contour>
        <pt x="293" y="60" on="1"/>
        <pt x="239" y="64" on="0"/>
        <pt x="197" y="64" on="0"/>
        <pt x="113" y="42" on="0"/>
        <pt x="60" y="16" on="0"/>
        <pt x="60" y="9" on="1"/>
        <pt x="60" y="5" on="0"/>
        <pt x="72" y="5" on="1"/>
        <pt x="165" y="5" on="0"/>
      </contour>
    </TTGlyph>
    <TTGlyph name="R" xMin="-7" yMin="-84" xMax="888" yMax="712">
      <contour>
        <pt x="159" y="392" on="1"/>
        <pt x="291" y="406" on="1"/>
        <pt x="300" y="406" on="0"/>
        <pt x="317" y="396" on="0"/>
        <pt x="317" y="380" on="0"/>
        <pt x="298" y="372" on="1"/>
        <pt x="214" y="339" on="0"/>
        <pt x="86" y="339" on="0"/>
        <pt x="-7" y="396" on="0"/>
        <pt x="-7" y="453" on="1"/>
        <pt x="-7" y="528" on="0"/>
        <pt x="157" y="650" on="0"/>
        <pt x="397" y="712" on="0"/>
        <pt x="625" y="712" on="0"/>
        <pt x="784" y="671" on="0"/>
        <pt x="888" y="577" on="0"/>
        <pt x="888" y="509" on="1"/>
        <pt x="888" y="463" on="0"/>
        <pt x="779" y="374" on="0"/>
        <pt x="636" y="319" on="0"/>
        <pt x="567" y="308" on="1"/>
        <pt x="549" y="302" on="0"/>
        <pt x="549" y="296" on="1"/>
        <pt x="549" y="288" on="0"/>
        <pt x="782" y="11" on="0"/>
        <pt x="782" y="-41" on="0"/>
        <pt x="721" y="-84" on="0"/>
        <pt x="646" y="-84" on="0"/>
        <pt x="586" y="-65" on="0"/>
        <pt x="529" y="-25" on="0"/>
        <pt x="485" y="11" on="0"/>
        <pt x="432" y="74" on="0"/>
        <pt x="419" y="90" on="1"/>
        <pt x="374" y="148" on="0"/>
        <pt x="353" y="179" on="1"/>
        <pt x="237" y="36" on="0"/>
        <pt x="218" y="19" on="0"/>
        <pt x="208" y="10" on="0"/>
        <pt x="205" y="7" on="1"/>
        <pt x="197" y="-1" on="0"/>
        <pt x="173" y="-1" on="0"/>
        <pt x="159" y="24" on="1"/>
        <pt x="164" y="37" on="0"/>
        <pt x="268" y="187" on="0"/>
        <pt x="295" y="216" on="1"/>
        <pt x="308" y="235" on="0"/>
        <pt x="308" y="245" on="0"/>
        <pt x="296" y="253" on="1"/>
        <pt x="276" y="269" on="0"/>
        <pt x="276" y="306" on="0"/>
        <pt x="304" y="311" on="1"/>
        <pt x="383" y="326" on="1"/>
        <pt x="475" y="445" on="0"/>
        <pt x="513" y="483" on="0"/>
        <pt x="551" y="483" on="0"/>
        <pt x="551" y="465" on="1"/>
        <pt x="551" y="452" on="0"/>
        <pt x="530" y="424" on="1"/>
        <pt x="474" y="345" on="1"/>
        <pt x="483" y="345" on="0"/>
        <pt x="640" y="385" on="0"/>
        <pt x="810" y="455" on="0"/>
        <pt x="810" y="485" on="1"/>
        <pt x="810" y="529" on="0"/>
        <pt x="686" y="529" on="1"/>
        <pt x="594" y="529" on="0"/>
        <pt x="339" y="483" on="0"/>
        <pt x="154" y="418" on="0"/>
        <pt x="154" y="394" on="1"/>
        <pt x="154" y="392" on="0"/>
      </contour>
    </TTGlyph>
    <TTGlyph name="S" xMin="-93" yMin="-55" xMax="864" yMax="720">
      <contour>
        <pt x="456" y="325" on="1"/>
        <pt x="245" y="329" on="1"/>
        <pt x="184" y="330" on="0"/>
        <pt x="104" y="394" on="0"/>
        <pt x="104" y="443" on="1"/>
        <pt x="104" y="510" on="0"/>
        <pt x="301" y="643" on="0"/>
        <pt x="572" y="720" on="0"/>
        <pt x="670" y="720" on="1"/>
        <pt x="864" y="720" on="0"/>
        <pt x="864" y="621" on="1"/>
        <pt x="864" y="589" on="0"/>
        <pt x="727" y="415" on="0"/>
        <pt x="693" y="415" on="1"/>
        <pt x="686" y="415" on="0"/>
        <pt x="673" y="428" on="0"/>
        <pt x="673" y="448" on="0"/>
        <pt x="722" y="501" on="0"/>
        <pt x="722" y="513" on="1"/>
        <pt x="722" y="522" on="0"/>
        <pt x="699" y="522" on="1"/>
        <pt x="637" y="522" on="0"/>
        <pt x="369" y="429" on="0"/>
        <pt x="369" y="402" on="1"/>
        <pt x="369" y="391" on="0"/>
        <pt x="413" y="386" on="0"/>
        <pt x="525" y="383" on="0"/>
        <pt x="609" y="371" on="0"/>
        <pt x="662" y="348" on="0"/>
        <pt x="691" y="322" on="0"/>
        <pt x="700" y="305" on="1"/>
        <pt x="713" y="278" on="0"/>
        <pt x="713" y="251" on="1"/>
        <pt x="713" y="179" on="0"/>
        <pt x="516" y="33" on="0"/>
        <pt x="239" y="-55" on="0"/>
        <pt x="131" y="-55" on="1"/>
        <pt x="-93" y="-55" on="0"/>
        <pt x="-93" y="86" on="1"/>
        <pt x="-93" y="151" on="0"/>
        <pt x="10" y="193" on="1"/>
        <pt x="43" y="164" on="0"/>
        <pt x="155" y="164" on="1"/>
        <pt x="237" y="169" on="0"/>
        <pt x="375" y="206" on="0"/>
        <pt x="453" y="251" on="0"/>
        <pt x="497" y="292" on="0"/>
        <pt x="500" y="306" on="1"/>
        <pt x="498" y="325" on="0"/>
      </contour>
    </TTGlyph>
    <TTGlyph name="Scaron" xMin="-93" yMin="-55" xMax="864" yMax="956">
      <contour>
        <pt x="456" y="325" on="1"/>
        <pt x="245" y="329" on="1"/>
        <pt x="184" y="330" on="0"/>
        <pt x="104" y="394" on="0"/>
        <pt x="104" y="443" on="1"/>
        <pt x="104" y="510" on="0"/>
        <pt x="301" y="643" on="0"/>
        <pt x="572" y="720" on="0"/>
        <pt x="670" y="720" on="1"/>
        <pt x="864" y="720" on="0"/>
        <pt x="864" y="621" on="1"/>
        <pt x="864" y="589" on="0"/>
        <pt x="727" y="415" on="0"/>
        <pt x="693" y="415" on="1"/>
        <pt x="686" y="415" on="0"/>
        <pt x="673" y="428" on="0"/>
        <pt x="673" y="448" on="0"/>
        <pt x="722" y="501" on="0"/>
        <pt x="722" y="513" on="1"/>
        <pt x="722" y="522" on="0"/>
        <pt x="699" y="522" on="1"/>
        <pt x="637" y="522" on="0"/>
        <pt x="369" y="429" on="0"/>
        <pt x="369" y="402" on="1"/>
        <pt x="369" y="391" on="0"/>
        <pt x="413" y="386" on="0"/>
        <pt x="525" y="383" on="0"/>
        <pt x="609" y="371" on="0"/>
        <pt x="662" y="348" on="0"/>
        <pt x="691" y="322" on="0"/>
        <pt x="700" y="305" on="1"/>
        <pt x="713" y="278" on="0"/>
        <pt x="713" y="251" on="1"/>
        <pt x="713" y="179" on="0"/>
        <pt x="516" y="33" on="0"/>
        <pt x="239" y="-55" on="0"/>
        <pt x="131" y="-55" on="1"/>
        <pt x="-93" y="-55" on="0"/>
        <pt x="-93" y="86" on="1"/>
        <pt x="-93" y="151" on="0"/>
        <pt x="10" y="193" on="1"/>
        <pt x="43" y="164" on="0"/>
        <pt x="155" y="164" on="1"/>
        <pt x="237" y="169" on="0"/>
        <pt x="375" y="206" on="0"/>
        <pt x="453" y="251" on="0"/>
        <pt x="497" y="292" on="0"/>
        <pt x="500" y="306" on="1"/>
        <pt x="498" y="325" on="0"/>
      </contour>
      <contour>
        <pt x="561" y="917" on="1"/>
        <pt x="561" y="926" on="0"/>
        <pt x="574" y="939" on="0"/>
        <pt x="584" y="939" on="1"/>
        <pt x="618" y="939" on="0"/>
        <pt x="667" y="862" on="1"/>
        <pt x="689" y="862" on="0"/>
        <pt x="796" y="956" on="0"/>
        <pt x="810" y="956" on="1"/>
        <pt x="820" y="956" on="0"/>
        <pt x="820" y="936" on="1"/>
        <pt x="820" y="896" on="0"/>
        <pt x="733" y="789" on="0"/>
        <pt x="658" y="762" on="1"/>
        <pt x="638" y="764" on="0"/>
        <pt x="561" y="880" on="0"/>
      </contour>
    </TTGlyph>
    <TTGlyph name="T" xMin="-76" yMin="-63" xMax="799" yMax="739">
      <contour>
        <pt x="799" y="634" on="1"/>
        <pt x="799" y="604" on="0"/>
        <pt x="387" y="462" on="0"/>
        <pt x="336" y="460" on="1"/>
        <pt x="366" y="456" on="0"/>
        <pt x="366" y="435" on="1"/>
        <pt x="366" y="422" on="0"/>
        <pt x="311" y="357" on="0"/>
        <pt x="208" y="232" on="1"/>
        <pt x="203" y="224" on="0"/>
        <pt x="7" y="-29" on="0"/>
        <pt x="0" y="-36" on="1"/>
        <pt x="-27" y="-63" on="0"/>
        <pt x="-52" y="-63" on="0"/>
        <pt x="-76" y="-46" on="0"/>
        <pt x="-76" y="-31" on="1"/>
        <pt x="-76" y="5" on="0"/>
        <pt x="20" y="148" on="0"/>
        <pt x="68" y="202" on="1"/>
        <pt x="117" y="255" on="1"/>
        <pt x="191" y="339" on="0"/>
        <pt x="290" y="438" on="1"/>
        <pt x="304" y="451" on="0"/>
        <pt x="309" y="454" on="1"/>
        <pt x="184" y="425" on="0"/>
        <pt x="64" y="425" on="0"/>
        <pt x="-33" y="500" on="0"/>
        <pt x="-33" y="589" on="0"/>
        <pt x="132" y="706" on="0"/>
        <pt x="184" y="706" on="0"/>
        <pt x="184" y="688" on="1"/>
        <pt x="184" y="679" on="0"/>
        <pt x="141" y="642" on="0"/>
        <pt x="124" y="635" on="0"/>
        <pt x="124" y="625" on="0"/>
        <pt x="138" y="625" on="0"/>
        <pt x="333" y="682" on="0"/>
        <pt x="585" y="739" on="0"/>
        <pt x="661" y="739" on="1"/>
        <pt x="695" y="739" on="0"/>
        <pt x="799" y="677" on="0"/>
      </contour>
    </TTGlyph>
    <TTGlyph name="Thorn" xMin="-7" yMin="-8" xMax="872" yMax="703">
      <contour>
        <pt x="302" y="220" on="1"/>
        <pt x="344" y="217" on="1"/>
        <pt x="475" y="378" on="0"/>
        <pt x="514" y="428" on="1"/>
        <pt x="379" y="403" on="0"/>
        <pt x="161" y="319" on="0"/>
        <pt x="161" y="287" on="1"/>
        <pt x="161" y="284" on="0"/>
        <pt x="176" y="284" on="0"/>
        <pt x="246" y="309" on="0"/>
        <pt x="270" y="309" on="0"/>
        <pt x="273" y="301" on="1"/>
        <pt x="273" y="276" on="0"/>
        <pt x="162" y="221" on="0"/>
        <pt x="56" y="221" on="0"/>
        <pt x="-7" y="273" on="0"/>
        <pt x="-7" y="330" on="1"/>
        <pt x="-7" y="406" on="0"/>
        <pt x="183" y="551" on="0"/>
        <pt x="459" y="636" on="0"/>
        <pt x="587" y="636" on="1"/>
        <pt x="627" y="636" on="0"/>
        <pt x="676" y="629" on="1"/>
        <pt x="683" y="638" on="0"/>
        <pt x="691" y="648" on="1"/>
        <pt x="703" y="663" on="1"/>
        <pt x="707" y="668" on="0"/>
        <pt x="708" y="669" on="1"/>
        <pt x="732" y="703" on="0"/>
        <pt x="753" y="703" on="1"/>
        <pt x="764" y="703" on="0"/>
        <pt x="782" y="689" on="0"/>
        <pt x="782" y="671" on="0"/>
        <pt x="739" y="613" on="1"/>
        <pt x="872" y="565" on="0"/>
        <pt x="872" y="436" on="1"/>
        <pt x="872" y="397" on="0"/>
        <pt x="804" y="305" on="0"/>
        <pt x="683" y="219" on="0"/>
        <pt x="485" y="156" on="0"/>
        <pt x="370" y="149" on="1"/>
        <pt x="285" y="45" on="0"/>
        <pt x="254" y="8" on="1"/>
        <pt x="241" y="-8" on="0"/>
        <pt x="211" y="-8" on="0"/>
        <pt x="196" y="13" on="0"/>
        <pt x="196" y="34" on="0"/>
        <pt x="202" y="42" on="1"/>
        <pt x="238" y="86" on="0"/>
        <pt x="289" y="149" on="1"/>
        <pt x="259" y="159" on="0"/>
        <pt x="259" y="202" on="0"/>
        <pt x="286" y="220" on="0"/>
      </contour>
      <contour>
        <pt x="810" y="423" on="1"/>
        <pt x="810" y="448" on="0"/>
        <pt x="695" y="448" on="1"/>
        <pt x="654" y="448" on="0"/>
        <pt x="607" y="442" on="1"/>
        <pt x="567" y="391" on="0"/>
        <pt x="429" y="222" on="1"/>
        <pt x="565" y="239" on="0"/>
        <pt x="810" y="357" on="0"/>
      </contour>
    </TTGlyph>
    <TTGlyph name="U" xMin="-16" yMin="-21" xMax="999" yMax="714">
      <contour>
        <pt x="398" y="678" on="0"/>
        <pt x="526" y="714" on="0"/>
        <pt x="603" y="714" on="0"/>
        <pt x="653" y="670" on="0"/>
        <pt x="653" y="637" on="1"/>
        <pt x="653" y="568" on="0"/>
        <pt x="585" y="490" on="1"/>
        <pt x="467" y="358" on="0"/>
        <pt x="464" y="355" on="0"/>
        <pt x="464" y="351" on="1"/>
        <pt x="464" y="341" on="0"/>
        <pt x="473" y="341" on="1"/>
        <pt x="478" y="341" on="0"/>
        <pt x="486" y="348" on="0"/>
        <pt x="592" y="427" on="1"/>
        <pt x="893" y="653" on="0"/>
        <pt x="938" y="692" on="0"/>
        <pt x="977" y="692" on="0"/>
        <pt x="999" y="675" on="0"/>
        <pt x="999" y="638" on="0"/>
        <pt x="972" y="605" on="1"/>
        <pt x="971" y="604" on="0"/>
        <pt x="817" y="432" on="0"/>
        <pt x="750" y="356" on="1"/>
        <pt x="523" y="96" on="0"/>
        <pt x="523" y="69" on="1"/>
        <pt x="523" y="63" on="0"/>
        <pt x="534" y="63" on="0"/>
        <pt x="544" y="68" on="0"/>
        <pt x="643" y="132" on="0"/>
        <pt x="670" y="132" on="0"/>
        <pt x="670" y="121" on="1"/>
        <pt x="670" y="96" on="0"/>
        <pt x="580" y="28" on="0"/>
        <pt x="464" y="-21" on="0"/>
        <pt x="428" y="-21" on="1"/>
        <pt x="356" y="-21" on="0"/>
        <pt x="347" y="58" on="1"/>
        <pt x="350" y="117" on="0"/>
        <pt x="435" y="228" on="1"/>
        <pt x="442" y="235" on="0"/>
        <pt x="442" y="244" on="0"/>
        <pt x="439" y="244" on="1"/>
        <pt x="427" y="244" on="0"/>
        <pt x="276" y="130" on="0"/>
        <pt x="103" y="16" on="0"/>
        <pt x="26" y="16" on="0"/>
        <pt x="-16" y="86" on="0"/>
        <pt x="-16" y="170" on="0"/>
        <pt x="62" y="289" on="0"/>
        <pt x="183" y="408" on="0"/>
        <pt x="299" y="511" on="0"/>
        <pt x="409" y="601" on="0"/>
        <pt x="425" y="616" on="0"/>
        <pt x="425" y="623" on="0"/>
        <pt x="408" y="623" on="0"/>
        <pt x="321" y="575" on="0"/>
        <pt x="295" y="575" on="0"/>
        <pt x="292" y="589" on="1"/>
        <pt x="292" y="618" on="0"/>
      </contour>
    </TTGlyph>
    <TTGlyph name="Uacute" xMin="-16" yMin="-21" xMax="1045" yMax="894">
      <contour>
        <pt x="653" y="670" on="0"/>
        <pt x="603" y="714" on="0"/>
        <pt x="526" y="714" on="0"/>
        <pt x="398" y="678" on="0"/>
        <pt x="292" y="618" on="0"/>
        <pt x="292" y="589" on="1"/>
        <pt x="295" y="575" on="0"/>
        <pt x="321" y="575" on="0"/>
        <pt x="408" y="623" on="0"/>
        <pt x="425" y="623" on="0"/>
        <pt x="425" y="616" on="0"/>
        <pt x="409" y="601" on="0"/>
        <pt x="299" y="511" on="0"/>
        <pt x="183" y="408" on="0"/>
        <pt x="62" y="289" on="0"/>
        <pt x="-16" y="170" on="0"/>
        <pt x="-16" y="86" on="0"/>
        <pt x="26" y="16" on="0"/>
        <pt x="103" y="16" on="0"/>
        <pt x="276" y="130" on="0"/>
        <pt x="427" y="244" on="0"/>
        <pt x="439" y="244" on="1"/>
        <pt x="442" y="244" on="0"/>
        <pt x="442" y="235" on="0"/>
        <pt x="435" y="228" on="1"/>
        <pt x="350" y="117" on="0"/>
        <pt x="347" y="58" on="1"/>
        <pt x="356" y="-21" on="0"/>
        <pt x="428" y="-21" on="1"/>
        <pt x="464" y="-21" on="0"/>
        <pt x="580" y="28" on="0"/>
        <pt x="670" y="96" on="0"/>
        <pt x="670" y="121" on="1"/>
        <pt x="670" y="132" on="0"/>
        <pt x="643" y="132" on="0"/>
        <pt x="544" y="68" on="0"/>
        <pt x="534" y="63" on="0"/>
        <pt x="523" y="63" on="0"/>
        <pt x="523" y="74" on="0"/>
        <pt x="544" y="112" on="0"/>
        <pt x="684" y="280" on="0"/>
        <pt x="817" y="432" on="0"/>
        <pt x="971" y="604" on="0"/>
        <pt x="972" y="605" on="1"/>
        <pt x="999" y="638" on="0"/>
        <pt x="999" y="656" on="1"/>
        <pt x="999" y="692" on="0"/>
        <pt x="961" y="692" on="1"/>
        <pt x="938" y="692" on="0"/>
        <pt x="906" y="664" on="0"/>
        <pt x="697" y="506" on="0"/>
        <pt x="486" y="348" on="0"/>
        <pt x="478" y="341" on="0"/>
        <pt x="473" y="341" on="1"/>
        <pt x="464" y="341" on="0"/>
        <pt x="464" y="351" on="1"/>
        <pt x="464" y="355" on="0"/>
        <pt x="467" y="358" on="0"/>
        <pt x="585" y="490" on="1"/>
        <pt x="653" y="568" on="0"/>
        <pt x="653" y="637" on="1"/>
      </contour>
      <contour>
        <pt x="1040" y="867" on="1"/>
        <pt x="1045" y="854" on="0"/>
        <pt x="1045" y="846" on="1"/>
        <pt x="1045" y="822" on="0"/>
        <pt x="981" y="792" on="0"/>
        <pt x="949" y="789" on="1"/>
        <pt x="917" y="786" on="1"/>
        <pt x="892" y="782" on="0"/>
        <pt x="835" y="752" on="1"/>
        <pt x="817" y="743" on="1"/>
        <pt x="808" y="748" on="0"/>
        <pt x="808" y="756" on="1"/>
        <pt x="808" y="788" on="0"/>
        <pt x="942" y="894" on="0"/>
        <pt x="1028" y="894" on="0"/>
      </contour>
    </TTGlyph>
    <TTGlyph name="Ucircumflex" xMin="-16" yMin="-21" xMax="999" yMax="920">
      <contour>
        <pt x="653" y="670" on="0"/>
        <pt x="603" y="714" on="0"/>
        <pt x="526" y="714" on="0"/>
        <pt x="398" y="678" on="0"/>
        <pt x="292" y="618" on="0"/>
        <pt x="292" y="589" on="1"/>
        <pt x="295" y="575" on="0"/>
        <pt x="321" y="575" on="0"/>
        <pt x="408" y="623" on="0"/>
        <pt x="425" y="623" on="0"/>
        <pt x="425" y="616" on="0"/>
        <pt x="409" y="601" on="0"/>
        <pt x="299" y="511" on="0"/>
        <pt x="183" y="408" on="0"/>
        <pt x="62" y="289" on="0"/>
        <pt x="-16" y="170" on="0"/>
        <pt x="-16" y="86" on="0"/>
        <pt x="26" y="16" on="0"/>
        <pt x="103" y="16" on="0"/>
        <pt x="276" y="130" on="0"/>
        <pt x="427" y="244" on="0"/>
        <pt x="439" y="244" on="1"/>
        <pt x="442" y="244" on="0"/>
        <pt x="442" y="235" on="0"/>
        <pt x="435" y="228" on="1"/>
        <pt x="350" y="117" on="0"/>
        <pt x="347" y="58" on="1"/>
        <pt x="356" y="-21" on="0"/>
        <pt x="428" y="-21" on="1"/>
        <pt x="464" y="-21" on="0"/>
        <pt x="580" y="28" on="0"/>
        <pt x="670" y="96" on="0"/>
        <pt x="670" y="121" on="1"/>
        <pt x="670" y="132" on="0"/>
        <pt x="643" y="132" on="0"/>
        <pt x="544" y="68" on="0"/>
        <pt x="534" y="63" on="0"/>
        <pt x="523" y="63" on="0"/>
        <pt x="523" y="74" on="0"/>
        <pt x="544" y="112" on="0"/>
        <pt x="684" y="280" on="0"/>
        <pt x="817" y="432" on="0"/>
        <pt x="971" y="604" on="0"/>
        <pt x="972" y="605" on="1"/>
        <pt x="999" y="638" on="0"/>
        <pt x="999" y="656" on="1"/>
        <pt x="999" y="692" on="0"/>
        <pt x="961" y="692" on="1"/>
        <pt x="938" y="692" on="0"/>
        <pt x="906" y="664" on="0"/>
        <pt x="697" y="506" on="0"/>
        <pt x="486" y="348" on="0"/>
        <pt x="478" y="341" on="0"/>
        <pt x="473" y="341" on="1"/>
        <pt x="464" y="341" on="0"/>
        <pt x="464" y="351" on="1"/>
        <pt x="464" y="355" on="0"/>
        <pt x="467" y="358" on="0"/>
        <pt x="585" y="490" on="1"/>
        <pt x="653" y="568" on="0"/>
        <pt x="653" y="637" on="1"/>
      </contour>
      <contour>
        <pt x="976" y="726" on="1"/>
        <pt x="934" y="726" on="0"/>
        <pt x="912" y="829" on="1"/>
        <pt x="897" y="825" on="0"/>
        <pt x="791" y="804" on="0"/>
        <pt x="770" y="793" on="1"/>
        <pt x="759" y="789" on="0"/>
        <pt x="740" y="789" on="0"/>
        <pt x="740" y="798" on="1"/>
        <pt x="740" y="834" on="0"/>
        <pt x="866" y="920" on="0"/>
        <pt x="951" y="920" on="1"/>
        <pt x="966" y="920" on="0"/>
        <pt x="997" y="818" on="0"/>
        <pt x="997" y="726" on="0"/>
      </contour>
    </TTGlyph>
    <TTGlyph name="Udieresis" xMin="-16" yMin="-21" xMax="999" yMax="902">
      <contour>
        <pt x="653" y="670" on="0"/>
        <pt x="603" y="714" on="0"/>
        <pt x="526" y="714" on="0"/>
        <pt x="398" y="678" on="0"/>
        <pt x="292" y="618" on="0"/>
        <pt x="292" y="589" on="1"/>
        <pt x="295" y="575" on="0"/>
        <pt x="321" y="575" on="0"/>
        <pt x="408" y="623" on="0"/>
        <pt x="425" y="623" on="0"/>
        <pt x="425" y="616" on="0"/>
        <pt x="409" y="601" on="0"/>
        <pt x="299" y="511" on="0"/>
        <pt x="183" y="408" on="0"/>
        <pt x="62" y="289" on="0"/>
        <pt x="-16" y="170" on="0"/>
        <pt x="-16" y="86" on="0"/>
        <pt x="26" y="16" on="0"/>
        <pt x="103" y="16" on="0"/>
        <pt x="276" y="130" on="0"/>
        <pt x="427" y="244" on="0"/>
        <pt x="439" y="244" on="1"/>
        <pt x="442" y="244" on="0"/>
        <pt x="442" y="235" on="0"/>
        <pt x="435" y="228" on="1"/>
        <pt x="350" y="117" on="0"/>
        <pt x="347" y="58" on="1"/>
        <pt x="356" y="-21" on="0"/>
        <pt x="428" y="-21" on="1"/>
        <pt x="464" y="-21" on="0"/>
        <pt x="580" y="28" on="0"/>
        <pt x="670" y="96" on="0"/>
        <pt x="670" y="121" on="1"/>
        <pt x="670" y="132" on="0"/>
        <pt x="643" y="132" on="0"/>
        <pt x="544" y="68" on="0"/>
        <pt x="534" y="63" on="0"/>
        <pt x="523" y="63" on="0"/>
        <pt x="523" y="74" on="0"/>
        <pt x="544" y="112" on="0"/>
        <pt x="684" y="280" on="0"/>
        <pt x="817" y="432" on="0"/>
        <pt x="971" y="604" on="0"/>
        <pt x="972" y="605" on="1"/>
        <pt x="999" y="638" on="0"/>
        <pt x="999" y="656" on="1"/>
        <pt x="999" y="692" on="0"/>
        <pt x="961" y="692" on="1"/>
        <pt x="938" y="692" on="0"/>
        <pt x="906" y="664" on="0"/>
        <pt x="697" y="506" on="0"/>
        <pt x="486" y="348" on="0"/>
        <pt x="478" y="341" on="0"/>
        <pt x="473" y="341" on="1"/>
        <pt x="464" y="341" on="0"/>
        <pt x="464" y="351" on="1"/>
        <pt x="464" y="355" on="0"/>
        <pt x="467" y="358" on="0"/>
        <pt x="585" y="490" on="1"/>
        <pt x="653" y="568" on="0"/>
        <pt x="653" y="637" on="1"/>
      </contour>
      <contour>
        <pt x="710" y="757" on="1"/>
        <pt x="693" y="757" on="0"/>
        <pt x="673" y="780" on="0"/>
        <pt x="672" y="792" on="1"/>
        <pt x="670" y="804" on="1"/>
        <pt x="675" y="852" on="0"/>
        <pt x="751" y="902" on="0"/>
        <pt x="779" y="902" on="1"/>
        <pt x="820" y="902" on="0"/>
        <pt x="820" y="861" on="1"/>
        <pt x="820" y="835" on="0"/>
        <pt x="758" y="762" on="0"/>
      </contour>
      <contour>
        <pt x="861" y="749" on="1"/>
        <pt x="844" y="749" on="0"/>
        <pt x="824" y="772" on="0"/>
        <pt x="822" y="784" on="1"/>
        <pt x="821" y="796" on="1"/>
        <pt x="826" y="844" on="0"/>
        <pt x="902" y="894" on="0"/>
        <pt x="930" y="894" on="1"/>
        <pt x="971" y="894" on="0"/>
        <pt x="971" y="853" on="1"/>
        <pt x="971" y="827" on="0"/>
        <pt x="909" y="754" on="0"/>
      </contour>
    </TTGlyph>
    <TTGlyph name="Ugrave" xMin="-16" yMin="-21" xMax="999" yMax="923">
      <contour>
        <pt x="398" y="678" on="0"/>
        <pt x="526" y="714" on="0"/>
        <pt x="603" y="714" on="0"/>
        <pt x="653" y="670" on="0"/>
        <pt x="653" y="637" on="1"/>
        <pt x="653" y="568" on="0"/>
        <pt x="585" y="490" on="1"/>
        <pt x="467" y="358" on="0"/>
        <pt x="464" y="355" on="0"/>
        <pt x="464" y="351" on="1"/>
        <pt x="464" y="341" on="0"/>
        <pt x="473" y="341" on="1"/>
        <pt x="478" y="341" on="0"/>
        <pt x="486" y="348" on="0"/>
        <pt x="592" y="427" on="1"/>
        <pt x="893" y="653" on="0"/>
        <pt x="938" y="692" on="0"/>
        <pt x="977" y="692" on="0"/>
        <pt x="999" y="675" on="0"/>
        <pt x="999" y="638" on="0"/>
        <pt x="972" y="605" on="1"/>
        <pt x="971" y="604" on="0"/>
        <pt x="817" y="432" on="0"/>
        <pt x="750" y="356" on="1"/>
        <pt x="523" y="96" on="0"/>
        <pt x="523" y="69" on="1"/>
        <pt x="523" y="63" on="0"/>
        <pt x="534" y="63" on="0"/>
        <pt x="544" y="68" on="0"/>
        <pt x="643" y="132" on="0"/>
        <pt x="670" y="132" on="0"/>
        <pt x="670" y="121" on="1"/>
        <pt x="670" y="96" on="0"/>
        <pt x="580" y="28" on="0"/>
        <pt x="464" y="-21" on="0"/>
        <pt x="428" y="-21" on="1"/>
        <pt x="356" y="-21" on="0"/>
        <pt x="347" y="58" on="1"/>
        <pt x="350" y="117" on="0"/>
        <pt x="435" y="228" on="1"/>
        <pt x="442" y="235" on="0"/>
        <pt x="442" y="244" on="0"/>
        <pt x="439" y="244" on="1"/>
        <pt x="427" y="244" on="0"/>
        <pt x="276" y="130" on="0"/>
        <pt x="103" y="16" on="0"/>
        <pt x="26" y="16" on="0"/>
        <pt x="-16" y="86" on="0"/>
        <pt x="-16" y="170" on="0"/>
        <pt x="62" y="289" on="0"/>
        <pt x="183" y="408" on="0"/>
        <pt x="299" y="511" on="0"/>
        <pt x="409" y="601" on="0"/>
        <pt x="425" y="616" on="0"/>
        <pt x="425" y="623" on="0"/>
        <pt x="408" y="623" on="0"/>
        <pt x="321" y="575" on="0"/>
        <pt x="295" y="575" on="0"/>
        <pt x="292" y="589" on="1"/>
        <pt x="292" y="618" on="0"/>
      </contour>
      <contour>
        <pt x="765" y="923" on="1"/>
        <pt x="813" y="923" on="0"/>
        <pt x="939" y="797" on="0"/>
        <pt x="939" y="753" on="1"/>
        <pt x="938" y="747" on="0"/>
        <pt x="928" y="742" on="1"/>
        <pt x="867" y="792" on="0"/>
        <pt x="837" y="802" on="1"/>
        <pt x="802" y="809" on="0"/>
        <pt x="774" y="823" on="1"/>
        <pt x="721" y="851" on="0"/>
        <pt x="721" y="878" on="1"/>
        <pt x="721" y="895" on="0"/>
        <pt x="746" y="923" on="0"/>
      </contour>
    </TTGlyph>
    <TTGlyph name="V" xMin="-10" yMin="-40" xMax="1068" yMax="742">
      <contour>
        <pt x="-10" y="127" on="1"/>
        <pt x="-10" y="213" on="0"/>
        <pt x="82" y="400" on="0"/>
        <pt x="224" y="550" on="0"/>
        <pt x="386" y="674" on="0"/>
        <pt x="535" y="742" on="0"/>
        <pt x="582" y="742" on="1"/>
        <pt x="600" y="742" on="0"/>
        <pt x="643" y="714" on="0"/>
        <pt x="643" y="677" on="0"/>
        <pt x="569" y="576" on="0"/>
        <pt x="464" y="448" on="0"/>
        <pt x="358" y="312" on="0"/>
        <pt x="284" y="180" on="0"/>
        <pt x="284" y="139" on="1"/>
        <pt x="284" y="123" on="0"/>
        <pt x="300" y="123" on="1"/>
        <pt x="330" y="123" on="0"/>
        <pt x="454" y="244" on="0"/>
        <pt x="605" y="417" on="0"/>
        <pt x="768" y="590" on="0"/>
        <pt x="941" y="711" on="0"/>
        <pt x="1007" y="711" on="1"/>
        <pt x="1026" y="711" on="0"/>
        <pt x="1068" y="690" on="0"/>
        <pt x="1068" y="665" on="0"/>
        <pt x="1046" y="651" on="0"/>
        <pt x="993" y="625" on="0"/>
        <pt x="919" y="584" on="0"/>
        <pt x="799" y="497" on="0"/>
        <pt x="729" y="438" on="1"/>
        <pt x="562" y="297" on="0"/>
        <pt x="348" y="56" on="1"/>
        <pt x="262" y="-40" on="0"/>
        <pt x="116" y="-40" on="1"/>
        <pt x="115" y="-40" on="1"/>
        <pt x="71" y="-40" on="0"/>
        <pt x="-8" y="71" on="0"/>
      </contour>
    </TTGlyph>
    <TTGlyph name="W" xMin="-43" yMin="-42" xMax="1203" yMax="727">
      <contour>
        <pt x="328" y="337" on="1"/>
        <pt x="334" y="339" on="1"/>
        <pt x="406" y="391" on="0"/>
        <pt x="552" y="540" on="1"/>
        <pt x="623" y="613" on="0"/>
        <pt x="667" y="655" on="1"/>
        <pt x="695" y="680" on="0"/>
        <pt x="709" y="682" on="1"/>
        <pt x="745" y="682" on="0"/>
        <pt x="804" y="623" on="0"/>
        <pt x="804" y="582" on="1"/>
        <pt x="804" y="563" on="0"/>
        <pt x="780" y="515" on="1"/>
        <pt x="746" y="448" on="0"/>
        <pt x="674" y="336" on="1"/>
        <pt x="645" y="293" on="1"/>
        <pt x="640" y="286" on="0"/>
        <pt x="640" y="278" on="0"/>
        <pt x="642" y="278" on="1"/>
        <pt x="646" y="278" on="0"/>
        <pt x="692" y="324" on="0"/>
        <pt x="872" y="485" on="0"/>
        <pt x="1025" y="619" on="0"/>
        <pt x="1029" y="623" on="1"/>
        <pt x="1087" y="681" on="0"/>
        <pt x="1137" y="681" on="1"/>
        <pt x="1158" y="681" on="0"/>
        <pt x="1203" y="638" on="0"/>
        <pt x="1203" y="621" on="1"/>
        <pt x="1203" y="600" on="0"/>
        <pt x="1108" y="557" on="0"/>
        <pt x="936" y="422" on="1"/>
        <pt x="901" y="394" on="0"/>
        <pt x="619" y="138" on="0"/>
        <pt x="396" y="-42" on="0"/>
        <pt x="323" y="-42" on="0"/>
        <pt x="279" y="38" on="0"/>
        <pt x="279" y="119" on="0"/>
        <pt x="346" y="238" on="1"/>
        <pt x="356" y="254" on="0"/>
        <pt x="356" y="264" on="0"/>
        <pt x="355" y="264" on="1"/>
        <pt x="351" y="264" on="0"/>
        <pt x="335" y="249" on="0"/>
        <pt x="272" y="186" on="1"/>
        <pt x="91" y="5" on="0"/>
        <pt x="66" y="2" on="1"/>
        <pt x="33" y="9" on="0"/>
        <pt x="-43" y="86" on="0"/>
        <pt x="-43" y="123" on="1"/>
        <pt x="-43" y="191" on="0"/>
        <pt x="74" y="404" on="0"/>
        <pt x="231" y="591" on="0"/>
        <pt x="398" y="727" on="0"/>
        <pt x="444" y="727" on="1"/>
        <pt x="464" y="723" on="0"/>
        <pt x="501" y="670" on="0"/>
        <pt x="501" y="647" on="1"/>
        <pt x="501" y="590" on="0"/>
        <pt x="334" y="357" on="1"/>
        <pt x="325" y="344" on="0"/>
        <pt x="325" y="337" on="0"/>
      </contour>
    </TTGlyph>
    <TTGlyph name="X" xMin="-73" yMin="-50" xMax="792" yMax="720">
      <contour>
        <pt x="587" y="2" on="1"/>
        <pt x="544" y="2" on="0"/>
        <pt x="477" y="137" on="1"/>
        <pt x="457" y="170" on="0"/>
        <pt x="417" y="241" on="1"/>
        <pt x="381" y="210" on="0"/>
        <pt x="268" y="105" on="0"/>
        <pt x="201" y="46" on="0"/>
        <pt x="160" y="13" on="1"/>
        <pt x="80" y="-50" on="0"/>
        <pt x="27" y="-50" on="1"/>
        <pt x="-7" y="-50" on="0"/>
        <pt x="-73" y="27" on="0"/>
        <pt x="-73" y="58" on="1"/>
        <pt x="-73" y="147" on="0"/>
        <pt x="131" y="360" on="0"/>
        <pt x="288" y="464" on="1"/>
        <pt x="175" y="657" on="1"/>
        <pt x="170" y="672" on="0"/>
        <pt x="170" y="695" on="0"/>
        <pt x="190" y="720" on="0"/>
        <pt x="208" y="720" on="1"/>
        <pt x="233" y="720" on="0"/>
        <pt x="253" y="676" on="1"/>
        <pt x="256" y="667" on="0"/>
        <pt x="351" y="504" on="1"/>
        <pt x="462" y="573" on="0"/>
        <pt x="663" y="670" on="0"/>
        <pt x="685" y="670" on="1"/>
        <pt x="696" y="670" on="0"/>
        <pt x="741" y="659" on="0"/>
        <pt x="769" y="645" on="0"/>
        <pt x="792" y="615" on="0"/>
        <pt x="792" y="576" on="0"/>
        <pt x="760" y="529" on="0"/>
        <pt x="692" y="466" on="0"/>
        <pt x="625" y="412" on="0"/>
        <pt x="512" y="322" on="0"/>
        <pt x="473" y="290" on="1"/>
        <pt x="552" y="153" on="0"/>
        <pt x="580" y="112" on="0"/>
        <pt x="588" y="98" on="1"/>
        <pt x="614" y="56" on="0"/>
        <pt x="614" y="18" on="0"/>
        <pt x="600" y="4" on="0"/>
      </contour>
    </TTGlyph>
    <TTGlyph name="Y" xMin="-24" yMin="-368" xMax="943" yMax="683">
      <contour>
        <pt x="535" y="483" on="1"/>
        <pt x="475" y="410" on="0"/>
        <pt x="284" y="214" on="0"/>
        <pt x="282" y="211" on="1"/>
        <pt x="281" y="204" on="1"/>
        <pt x="281" y="195" on="0"/>
        <pt x="293" y="195" on="0"/>
        <pt x="327" y="215" on="0"/>
        <pt x="504" y="336" on="0"/>
        <pt x="788" y="561" on="0"/>
        <pt x="880" y="658" on="1"/>
        <pt x="895" y="673" on="0"/>
        <pt x="913" y="673" on="1"/>
        <pt x="943" y="673" on="0"/>
        <pt x="943" y="638" on="1"/>
        <pt x="943" y="616" on="0"/>
        <pt x="908" y="576" on="1"/>
        <pt x="895" y="561" on="0"/>
        <pt x="856" y="517" on="0"/>
        <pt x="845" y="505" on="0"/>
        <pt x="750" y="397" on="0"/>
        <pt x="644" y="277" on="0"/>
        <pt x="501" y="113" on="0"/>
        <pt x="440" y="43" on="1"/>
        <pt x="308" y="-110" on="0"/>
        <pt x="227" y="-221" on="0"/>
        <pt x="186" y="-283" on="0"/>
        <pt x="163" y="-321" on="0"/>
        <pt x="152" y="-338" on="1"/>
        <pt x="132" y="-368" on="0"/>
        <pt x="94" y="-368" on="0"/>
        <pt x="60" y="-310" on="0"/>
        <pt x="60" y="-288" on="1"/>
        <pt x="60" y="-244" on="0"/>
        <pt x="113" y="-172" on="1"/>
        <pt x="143" y="-131" on="0"/>
        <pt x="435" y="194" on="0"/>
        <pt x="468" y="225" on="1"/>
        <pt x="474" y="232" on="0"/>
        <pt x="474" y="238" on="0"/>
        <pt x="466" y="238" on="0"/>
        <pt x="440" y="220" on="0"/>
        <pt x="368" y="172" on="0"/>
        <pt x="315" y="138" on="0"/>
        <pt x="228" y="86" on="0"/>
        <pt x="195" y="70" on="1"/>
        <pt x="112" y="28" on="0"/>
        <pt x="25" y="28" on="0"/>
        <pt x="-24" y="96" on="0"/>
        <pt x="-24" y="168" on="0"/>
        <pt x="-10" y="198" on="1"/>
        <pt x="7" y="237" on="0"/>
        <pt x="327" y="533" on="0"/>
        <pt x="349" y="574" on="1"/>
        <pt x="351" y="578" on="0"/>
        <pt x="351" y="582" on="0"/>
        <pt x="340" y="582" on="0"/>
        <pt x="332" y="576" on="0"/>
        <pt x="292" y="552" on="0"/>
        <pt x="272" y="540" on="1"/>
        <pt x="215" y="508" on="0"/>
        <pt x="198" y="508" on="0"/>
        <pt x="183" y="523" on="0"/>
        <pt x="183" y="534" on="1"/>
        <pt x="183" y="560" on="0"/>
        <pt x="272" y="630" on="0"/>
        <pt x="404" y="683" on="0"/>
        <pt x="459" y="683" on="1"/>
        <pt x="572" y="683" on="0"/>
        <pt x="572" y="570" on="1"/>
        <pt x="572" y="550" on="0"/>
        <pt x="554" y="506" on="0"/>
        <pt x="544" y="494" on="1"/>
      </contour>
    </TTGlyph>
    <TTGlyph name="Yacute" xMin="-24" yMin="-368" xMax="950" yMax="870">
      <contour>
        <pt x="535" y="483" on="1"/>
        <pt x="572" y="525" on="0"/>
        <pt x="572" y="570" on="1"/>
        <pt x="572" y="683" on="0"/>
        <pt x="459" y="683" on="1"/>
        <pt x="404" y="683" on="0"/>
        <pt x="272" y="630" on="0"/>
        <pt x="183" y="560" on="0"/>
        <pt x="183" y="534" on="1"/>
        <pt x="183" y="523" on="0"/>
        <pt x="198" y="508" on="0"/>
        <pt x="213" y="508" on="0"/>
        <pt x="252" y="529" on="0"/>
        <pt x="272" y="540" on="1"/>
        <pt x="330" y="574" on="0"/>
        <pt x="340" y="582" on="0"/>
        <pt x="351" y="582" on="0"/>
        <pt x="351" y="580" on="1"/>
        <pt x="351" y="555" on="0"/>
        <pt x="7" y="237" on="0"/>
        <pt x="-10" y="198" on="1"/>
        <pt x="-24" y="168" on="0"/>
        <pt x="-24" y="96" on="0"/>
        <pt x="25" y="28" on="0"/>
        <pt x="69" y="28" on="1"/>
        <pt x="152" y="28" on="0"/>
        <pt x="404" y="196" on="1"/>
        <pt x="440" y="220" on="0"/>
        <pt x="466" y="238" on="0"/>
        <pt x="474" y="238" on="0"/>
        <pt x="474" y="236" on="1"/>
        <pt x="474" y="232" on="0"/>
        <pt x="468" y="225" on="1"/>
        <pt x="435" y="194" on="0"/>
        <pt x="143" y="-131" on="0"/>
        <pt x="113" y="-172" on="1"/>
        <pt x="60" y="-244" on="0"/>
        <pt x="60" y="-288" on="1"/>
        <pt x="60" y="-310" on="0"/>
        <pt x="94" y="-368" on="0"/>
        <pt x="116" y="-368" on="1"/>
        <pt x="129" y="-368" on="0"/>
        <pt x="156" y="-333" on="0"/>
        <pt x="218" y="-233" on="0"/>
        <pt x="273" y="-158" on="0"/>
        <pt x="380" y="-27" on="0"/>
        <pt x="501" y="113" on="0"/>
        <pt x="644" y="277" on="0"/>
        <pt x="750" y="397" on="0"/>
        <pt x="845" y="505" on="0"/>
        <pt x="856" y="517" on="0"/>
        <pt x="895" y="561" on="0"/>
        <pt x="908" y="576" on="1"/>
        <pt x="943" y="616" on="0"/>
        <pt x="943" y="638" on="1"/>
        <pt x="943" y="673" on="0"/>
        <pt x="913" y="673" on="1"/>
        <pt x="895" y="673" on="0"/>
        <pt x="880" y="658" on="1"/>
        <pt x="788" y="561" on="0"/>
        <pt x="504" y="336" on="0"/>
        <pt x="327" y="215" on="0"/>
        <pt x="293" y="195" on="0"/>
        <pt x="281" y="195" on="0"/>
        <pt x="281" y="204" on="1"/>
        <pt x="282" y="211" on="1"/>
        <pt x="284" y="214" on="0"/>
        <pt x="475" y="410" on="0"/>
      </contour>
      <contour>
        <pt x="945" y="843" on="1"/>
        <pt x="950" y="830" on="0"/>
        <pt x="950" y="822" on="1"/>
        <pt x="950" y="798" on="0"/>
        <pt x="886" y="768" on="0"/>
        <pt x="854" y="765" on="1"/>
        <pt x="822" y="762" on="1"/>
        <pt x="797" y="758" on="0"/>
        <pt x="740" y="728" on="1"/>
        <pt x="722" y="719" on="1"/>
        <pt x="713" y="724" on="0"/>
        <pt x="713" y="732" on="1"/>
        <pt x="713" y="764" on="0"/>
        <pt x="847" y="870" on="0"/>
        <pt x="933" y="870" on="0"/>
      </contour>
    </TTGlyph>
    <TTGlyph name="Ydieresis" xMin="-24" yMin="-368" xMax="943" yMax="883">
      <contour>
        <pt x="535" y="483" on="1"/>
        <pt x="572" y="525" on="0"/>
        <pt x="572" y="570" on="1"/>
        <pt x="572" y="683" on="0"/>
        <pt x="459" y="683" on="1"/>
        <pt x="404" y="683" on="0"/>
        <pt x="272" y="630" on="0"/>
        <pt x="183" y="560" on="0"/>
        <pt x="183" y="534" on="1"/>
        <pt x="183" y="523" on="0"/>
        <pt x="198" y="508" on="0"/>
        <pt x="213" y="508" on="0"/>
        <pt x="252" y="529" on="0"/>
        <pt x="272" y="540" on="1"/>
        <pt x="330" y="574" on="0"/>
        <pt x="340" y="582" on="0"/>
        <pt x="351" y="582" on="0"/>
        <pt x="351" y="580" on="1"/>
        <pt x="351" y="555" on="0"/>
        <pt x="7" y="237" on="0"/>
        <pt x="-10" y="198" on="1"/>
        <pt x="-24" y="168" on="0"/>
        <pt x="-24" y="96" on="0"/>
        <pt x="25" y="28" on="0"/>
        <pt x="69" y="28" on="1"/>
        <pt x="152" y="28" on="0"/>
        <pt x="404" y="196" on="1"/>
        <pt x="440" y="220" on="0"/>
        <pt x="466" y="238" on="0"/>
        <pt x="474" y="238" on="0"/>
        <pt x="474" y="236" on="1"/>
        <pt x="474" y="232" on="0"/>
        <pt x="468" y="225" on="1"/>
        <pt x="435" y="194" on="0"/>
        <pt x="143" y="-131" on="0"/>
        <pt x="113" y="-172" on="1"/>
        <pt x="60" y="-244" on="0"/>
        <pt x="60" y="-288" on="1"/>
        <pt x="60" y="-310" on="0"/>
        <pt x="94" y="-368" on="0"/>
        <pt x="116" y="-368" on="1"/>
        <pt x="129" y="-368" on="0"/>
        <pt x="156" y="-333" on="0"/>
        <pt x="218" y="-233" on="0"/>
        <pt x="273" y="-158" on="0"/>
        <pt x="380" y="-27" on="0"/>
        <pt x="501" y="113" on="0"/>
        <pt x="644" y="277" on="0"/>
        <pt x="750" y="397" on="0"/>
        <pt x="845" y="505" on="0"/>
        <pt x="856" y="517" on="0"/>
        <pt x="895" y="561" on="0"/>
        <pt x="908" y="576" on="1"/>
        <pt x="943" y="616" on="0"/>
        <pt x="943" y="638" on="1"/>
        <pt x="943" y="673" on="0"/>
        <pt x="913" y="673" on="1"/>
        <pt x="895" y="673" on="0"/>
        <pt x="880" y="658" on="1"/>
        <pt x="788" y="561" on="0"/>
        <pt x="504" y="336" on="0"/>
        <pt x="327" y="215" on="0"/>
        <pt x="293" y="195" on="0"/>
        <pt x="281" y="195" on="0"/>
        <pt x="281" y="204" on="1"/>
        <pt x="282" y="211" on="1"/>
        <pt x="284" y="214" on="0"/>
        <pt x="475" y="410" on="0"/>
      </contour>
      <contour>
        <pt x="682" y="738" on="1"/>
        <pt x="665" y="738" on="0"/>
        <pt x="645" y="762" on="0"/>
        <pt x="644" y="774" on="1"/>
        <pt x="642" y="785" on="1"/>
        <pt x="647" y="833" on="0"/>
        <pt x="723" y="883" on="0"/>
        <pt x="751" y="883" on="1"/>
        <pt x="792" y="883" on="0"/>
        <pt x="792" y="842" on="1"/>
        <pt x="792" y="816" on="0"/>
        <pt x="730" y="743" on="0"/>
      </contour>
      <contour>
        <pt x="833" y="730" on="1"/>
        <pt x="816" y="730" on="0"/>
        <pt x="796" y="754" on="0"/>
        <pt x="794" y="766" on="1"/>
        <pt x="793" y="777" on="1"/>
        <pt x="798" y="825" on="0"/>
        <pt x="874" y="875" on="0"/>
        <pt x="902" y="875" on="1"/>
        <pt x="943" y="875" on="0"/>
        <pt x="943" y="834" on="1"/>
        <pt x="943" y="808" on="0"/>
        <pt x="881" y="735" on="0"/>
      </contour>
    </TTGlyph>
    <TTGlyph name="Z" xMin="-70" yMin="-18" xMax="792" yMax="711">
      <contour>
        <pt x="558" y="21" on="1"/>
        <pt x="484" y="26" on="1"/>
        <pt x="413" y="26" on="0"/>
        <pt x="117" y="-18" on="0"/>
        <pt x="12" y="-18" on="0"/>
        <pt x="-70" y="45" on="0"/>
        <pt x="-70" y="132" on="0"/>
        <pt x="118" y="262" on="0"/>
        <pt x="343" y="371" on="0"/>
        <pt x="531" y="461" on="0"/>
        <pt x="531" y="466" on="1"/>
        <pt x="531" y="469" on="0"/>
        <pt x="521" y="469" on="0"/>
        <pt x="463" y="454" on="1"/>
        <pt x="289" y="409" on="0"/>
        <pt x="212" y="409" on="1"/>
        <pt x="161" y="409" on="0"/>
        <pt x="103" y="462" on="0"/>
        <pt x="103" y="545" on="0"/>
        <pt x="295" y="711" on="0"/>
        <pt x="347" y="711" on="1"/>
        <pt x="368" y="711" on="0"/>
        <pt x="368" y="695" on="1"/>
        <pt x="368" y="682" on="0"/>
        <pt x="354" y="668" on="0"/>
        <pt x="342" y="660" on="1"/>
        <pt x="310" y="637" on="0"/>
        <pt x="310" y="632" on="1"/>
        <pt x="310" y="625" on="0"/>
        <pt x="365" y="625" on="0"/>
        <pt x="572" y="668" on="0"/>
        <pt x="662" y="668" on="0"/>
        <pt x="734" y="652" on="0"/>
        <pt x="792" y="605" on="0"/>
        <pt x="792" y="570" on="1"/>
        <pt x="792" y="550" on="0"/>
        <pt x="756" y="514" on="0"/>
        <pt x="719" y="493" on="0"/>
        <pt x="642" y="459" on="0"/>
        <pt x="251" y="258" on="0"/>
        <pt x="174" y="216" on="0"/>
        <pt x="174" y="210" on="1"/>
        <pt x="174" y="206" on="0"/>
        <pt x="188" y="206" on="1"/>
        <pt x="206" y="206" on="0"/>
        <pt x="227" y="213" on="0"/>
        <pt x="228" y="213" on="1"/>
        <pt x="298" y="228" on="0"/>
        <pt x="403" y="228" on="0"/>
        <pt x="505" y="187" on="0"/>
        <pt x="567" y="128" on="0"/>
        <pt x="603" y="68" on="0"/>
        <pt x="603" y="47" on="1"/>
        <pt x="603" y="21" on="0"/>
      </contour>
    </TTGlyph>
    <TTGlyph name="Zcaron" xMin="-70" yMin="-18" xMax="792" yMax="897">
      <contour>
        <pt x="558" y="21" on="1"/>
        <pt x="484" y="26" on="1"/>
        <pt x="413" y="26" on="0"/>
        <pt x="117" y="-18" on="0"/>
        <pt x="12" y="-18" on="0"/>
        <pt x="-70" y="45" on="0"/>
        <pt x="-70" y="132" on="0"/>
        <pt x="118" y="262" on="0"/>
        <pt x="343" y="371" on="0"/>
        <pt x="531" y="461" on="0"/>
        <pt x="531" y="466" on="1"/>
        <pt x="531" y="469" on="0"/>
        <pt x="521" y="469" on="0"/>
        <pt x="463" y="454" on="1"/>
        <pt x="289" y="409" on="0"/>
        <pt x="212" y="409" on="1"/>
        <pt x="161" y="409" on="0"/>
        <pt x="103" y="462" on="0"/>
        <pt x="103" y="545" on="0"/>
        <pt x="295" y="711" on="0"/>
        <pt x="347" y="711" on="1"/>
        <pt x="368" y="711" on="0"/>
        <pt x="368" y="695" on="1"/>
        <pt x="368" y="682" on="0"/>
        <pt x="354" y="668" on="0"/>
        <pt x="342" y="660" on="1"/>
        <pt x="310" y="637" on="0"/>
        <pt x="310" y="632" on="1"/>
        <pt x="310" y="625" on="0"/>
        <pt x="365" y="625" on="0"/>
        <pt x="572" y="668" on="0"/>
        <pt x="662" y="668" on="0"/>
        <pt x="734" y="652" on="0"/>
        <pt x="792" y="605" on="0"/>
        <pt x="792" y="570" on="1"/>
        <pt x="792" y="550" on="0"/>
        <pt x="756" y="514" on="0"/>
        <pt x="719" y="493" on="0"/>
        <pt x="642" y="459" on="0"/>
        <pt x="251" y="258" on="0"/>
        <pt x="174" y="216" on="0"/>
        <pt x="174" y="210" on="1"/>
        <pt x="174" y="206" on="0"/>
        <pt x="188" y="206" on="1"/>
        <pt x="206" y="206" on="0"/>
        <pt x="227" y="213" on="0"/>
        <pt x="228" y="213" on="1"/>
        <pt x="298" y="228" on="0"/>
        <pt x="403" y="228" on="0"/>
        <pt x="505" y="187" on="0"/>
        <pt x="567" y="128" on="0"/>
        <pt x="603" y="68" on="0"/>
        <pt x="603" y="47" on="1"/>
        <pt x="603" y="21" on="0"/>
      </contour>
      <contour>
        <pt x="498" y="858" on="1"/>
        <pt x="498" y="867" on="0"/>
        <pt x="511" y="880" on="0"/>
        <pt x="537" y="880" on="0"/>
        <pt x="572" y="849" on="0"/>
        <pt x="590" y="825" on="0"/>
        <pt x="604" y="803" on="1"/>
        <pt x="626" y="803" on="0"/>
        <pt x="733" y="897" on="0"/>
        <pt x="747" y="897" on="1"/>
        <pt x="757" y="897" on="0"/>
        <pt x="757" y="877" on="1"/>
        <pt x="757" y="837" on="0"/>
        <pt x="670" y="730" on="0"/>
        <pt x="595" y="703" on="1"/>
        <pt x="575" y="705" on="0"/>
        <pt x="498" y="821" on="0"/>
      </contour>
    </TTGlyph>
    <TTGlyph name="a" xMin="38" yMin="-23" xMax="449" yMax="321">
      <contour>
        <pt x="319" y="40" on="1"/>
        <pt x="319" y="35" on="0"/>
        <pt x="326" y="33" on="1"/>
        <pt x="333" y="33" on="0"/>
        <pt x="416" y="90" on="0"/>
        <pt x="427" y="96" on="0"/>
        <pt x="432" y="96" on="1"/>
        <pt x="446" y="96" on="0"/>
        <pt x="446" y="69" on="0"/>
        <pt x="305" y="-23" on="0"/>
        <pt x="276" y="-23" on="1"/>
        <pt x="264" y="-23" on="0"/>
        <pt x="237" y="-3" on="0"/>
        <pt x="237" y="24" on="0"/>
        <pt x="251" y="56" on="0"/>
        <pt x="251" y="67" on="0"/>
        <pt x="245" y="67" on="0"/>
        <pt x="242" y="65" on="1"/>
        <pt x="145" y="-8" on="0"/>
        <pt x="99" y="-8" on="1"/>
        <pt x="73" y="-8" on="0"/>
        <pt x="43" y="30" on="0"/>
        <pt x="40" y="49" on="1"/>
        <pt x="38" y="68" on="1"/>
        <pt x="38" y="101" on="0"/>
        <pt x="89" y="188" on="0"/>
        <pt x="172" y="267" on="0"/>
        <pt x="293" y="321" on="0"/>
        <pt x="356" y="321" on="1"/>
        <pt x="390" y="321" on="0"/>
        <pt x="449" y="285" on="0"/>
        <pt x="449" y="237" on="0"/>
        <pt x="402" y="232" on="1"/>
        <pt x="367" y="224" on="0"/>
        <pt x="206" y="125" on="0"/>
        <pt x="206" y="99" on="1"/>
        <pt x="206" y="88" on="0"/>
        <pt x="217" y="88" on="1"/>
        <pt x="237" y="88" on="0"/>
        <pt x="386" y="202" on="0"/>
        <pt x="416" y="202" on="0"/>
        <pt x="416" y="184" on="1"/>
        <pt x="416" y="171" on="0"/>
        <pt x="397" y="148" on="0"/>
        <pt x="393" y="143" on="1"/>
        <pt x="385" y="133" on="0"/>
        <pt x="319" y="64" on="0"/>
      </contour>
    </TTGlyph>
    <TTGlyph name="aacute" xMin="38" yMin="-23" xMax="649" yMax="494">
      <contour>
        <pt x="319" y="40" on="1"/>
        <pt x="319" y="35" on="0"/>
        <pt x="326" y="33" on="1"/>
        <pt x="333" y="33" on="0"/>
        <pt x="416" y="90" on="0"/>
        <pt x="427" y="96" on="0"/>
        <pt x="432" y="96" on="1"/>
        <pt x="446" y="96" on="0"/>
        <pt x="446" y="69" on="0"/>
        <pt x="305" y="-23" on="0"/>
        <pt x="276" y="-23" on="1"/>
        <pt x="264" y="-23" on="0"/>
        <pt x="237" y="-3" on="0"/>
        <pt x="237" y="24" on="0"/>
        <pt x="251" y="56" on="0"/>
        <pt x="251" y="67" on="0"/>
        <pt x="245" y="67" on="0"/>
        <pt x="242" y="65" on="1"/>
        <pt x="145" y="-8" on="0"/>
        <pt x="99" y="-8" on="1"/>
        <pt x="73" y="-8" on="0"/>
        <pt x="43" y="30" on="0"/>
        <pt x="40" y="49" on="1"/>
        <pt x="38" y="68" on="1"/>
        <pt x="38" y="101" on="0"/>
        <pt x="89" y="188" on="0"/>
        <pt x="172" y="267" on="0"/>
        <pt x="293" y="321" on="0"/>
        <pt x="356" y="321" on="1"/>
        <pt x="390" y="321" on="0"/>
        <pt x="449" y="285" on="0"/>
        <pt x="449" y="237" on="0"/>
        <pt x="402" y="232" on="1"/>
        <pt x="367" y="224" on="0"/>
        <pt x="206" y="125" on="0"/>
        <pt x="206" y="99" on="1"/>
        <pt x="206" y="88" on="0"/>
        <pt x="217" y="88" on="1"/>
        <pt x="237" y="88" on="0"/>
        <pt x="386" y="202" on="0"/>
        <pt x="416" y="202" on="0"/>
        <pt x="416" y="184" on="1"/>
        <pt x="416" y="171" on="0"/>
        <pt x="397" y="148" on="0"/>
        <pt x="393" y="143" on="1"/>
        <pt x="385" y="133" on="0"/>
        <pt x="319" y="64" on="0"/>
      </contour>
      <contour>
        <pt x="644" y="467" on="1"/>
        <pt x="649" y="454" on="0"/>
        <pt x="649" y="446" on="1"/>
        <pt x="649" y="422" on="0"/>
        <pt x="585" y="392" on="0"/>
        <pt x="553" y="389" on="1"/>
        <pt x="521" y="386" on="1"/>
        <pt x="496" y="382" on="0"/>
        <pt x="439" y="352" on="1"/>
        <pt x="421" y="343" on="1"/>
        <pt x="412" y="348" on="0"/>
        <pt x="412" y="356" on="1"/>
        <pt x="412" y="388" on="0"/>
        <pt x="546" y="494" on="0"/>
        <pt x="632" y="494" on="0"/>
      </contour>
    </TTGlyph>
    <TTGlyph name="acircumflex" xMin="38" yMin="-23" xMax="539" yMax="500">
      <contour>
        <pt x="319" y="40" on="1"/>
        <pt x="319" y="35" on="0"/>
        <pt x="326" y="33" on="1"/>
        <pt x="333" y="33" on="0"/>
        <pt x="416" y="90" on="0"/>
        <pt x="427" y="96" on="0"/>
        <pt x="432" y="96" on="1"/>
        <pt x="446" y="96" on="0"/>
        <pt x="446" y="69" on="0"/>
        <pt x="305" y="-23" on="0"/>
        <pt x="276" y="-23" on="1"/>
        <pt x="264" y="-23" on="0"/>
        <pt x="237" y="-3" on="0"/>
        <pt x="237" y="24" on="0"/>
        <pt x="251" y="56" on="0"/>
        <pt x="251" y="67" on="0"/>
        <pt x="245" y="67" on="0"/>
        <pt x="242" y="65" on="1"/>
        <pt x="145" y="-8" on="0"/>
        <pt x="99" y="-8" on="1"/>
        <pt x="73" y="-8" on="0"/>
        <pt x="43" y="30" on="0"/>
        <pt x="40" y="49" on="1"/>
        <pt x="38" y="68" on="1"/>
        <pt x="38" y="101" on="0"/>
        <pt x="89" y="188" on="0"/>
        <pt x="172" y="267" on="0"/>
        <pt x="293" y="321" on="0"/>
        <pt x="356" y="321" on="1"/>
        <pt x="390" y="321" on="0"/>
        <pt x="449" y="285" on="0"/>
        <pt x="449" y="237" on="0"/>
        <pt x="402" y="232" on="1"/>
        <pt x="367" y="224" on="0"/>
        <pt x="206" y="125" on="0"/>
        <pt x="206" y="99" on="1"/>
        <pt x="206" y="88" on="0"/>
        <pt x="217" y="88" on="1"/>
        <pt x="237" y="88" on="0"/>
        <pt x="386" y="202" on="0"/>
        <pt x="416" y="202" on="0"/>
        <pt x="416" y="184" on="1"/>
        <pt x="416" y="171" on="0"/>
        <pt x="397" y="148" on="0"/>
        <pt x="393" y="143" on="1"/>
        <pt x="385" y="133" on="0"/>
        <pt x="319" y="64" on="0"/>
      </contour>
      <contour>
        <pt x="518" y="306" on="1"/>
        <pt x="476" y="306" on="0"/>
        <pt x="454" y="409" on="1"/>
        <pt x="439" y="405" on="0"/>
        <pt x="333" y="384" on="0"/>
        <pt x="312" y="373" on="1"/>
        <pt x="301" y="369" on="0"/>
        <pt x="282" y="369" on="0"/>
        <pt x="282" y="378" on="1"/>
        <pt x="282" y="414" on="0"/>
        <pt x="408" y="500" on="0"/>
        <pt x="493" y="500" on="1"/>
        <pt x="508" y="500" on="0"/>
        <pt x="539" y="398" on="0"/>
        <pt x="539" y="306" on="0"/>
      </contour>
    </TTGlyph>
    <TTGlyph name="acute" xMin="140" yMin="343" xMax="377" yMax="494">
      <contour>
        <pt x="372" y="467" on="1"/>
        <pt x="377" y="454" on="0"/>
        <pt x="377" y="446" on="1"/>
        <pt x="377" y="422" on="0"/>
        <pt x="313" y="392" on="0"/>
        <pt x="281" y="389" on="1"/>
        <pt x="249" y="386" on="1"/>
        <pt x="224" y="382" on="0"/>
        <pt x="167" y="352" on="1"/>
        <pt x="149" y="343" on="1"/>
        <pt x="140" y="348" on="0"/>
        <pt x="140" y="356" on="1"/>
        <pt x="140" y="388" on="0"/>
        <pt x="274" y="494" on="0"/>
        <pt x="360" y="494" on="0"/>
      </contour>
    </TTGlyph>
    <TTGlyph name="adieresis" xMin="38" yMin="-23" xMax="594" yMax="500">
      <contour>
        <pt x="319" y="40" on="1"/>
        <pt x="319" y="35" on="0"/>
        <pt x="326" y="33" on="1"/>
        <pt x="333" y="33" on="0"/>
        <pt x="416" y="90" on="0"/>
        <pt x="427" y="96" on="0"/>
        <pt x="432" y="96" on="1"/>
        <pt x="446" y="96" on="0"/>
        <pt x="446" y="69" on="0"/>
        <pt x="305" y="-23" on="0"/>
        <pt x="276" y="-23" on="1"/>
        <pt x="264" y="-23" on="0"/>
        <pt x="237" y="-3" on="0"/>
        <pt x="237" y="24" on="0"/>
        <pt x="251" y="56" on="0"/>
        <pt x="251" y="67" on="0"/>
        <pt x="245" y="67" on="0"/>
        <pt x="242" y="65" on="1"/>
        <pt x="145" y="-8" on="0"/>
        <pt x="99" y="-8" on="1"/>
        <pt x="73" y="-8" on="0"/>
        <pt x="43" y="30" on="0"/>
        <pt x="40" y="49" on="1"/>
        <pt x="38" y="68" on="1"/>
        <pt x="38" y="101" on="0"/>
        <pt x="89" y="188" on="0"/>
        <pt x="172" y="267" on="0"/>
        <pt x="293" y="321" on="0"/>
        <pt x="356" y="321" on="1"/>
        <pt x="390" y="321" on="0"/>
        <pt x="449" y="285" on="0"/>
        <pt x="449" y="237" on="0"/>
        <pt x="402" y="232" on="1"/>
        <pt x="367" y="224" on="0"/>
        <pt x="206" y="125" on="0"/>
        <pt x="206" y="99" on="1"/>
        <pt x="206" y="88" on="0"/>
        <pt x="217" y="88" on="1"/>
        <pt x="237" y="88" on="0"/>
        <pt x="386" y="202" on="0"/>
        <pt x="416" y="202" on="0"/>
        <pt x="416" y="184" on="1"/>
        <pt x="416" y="171" on="0"/>
        <pt x="397" y="148" on="0"/>
        <pt x="393" y="143" on="1"/>
        <pt x="385" y="133" on="0"/>
        <pt x="319" y="64" on="0"/>
      </contour>
      <contour>
        <pt x="333" y="355" on="1"/>
        <pt x="316" y="355" on="0"/>
        <pt x="296" y="378" on="0"/>
        <pt x="294" y="390" on="1"/>
        <pt x="293" y="402" on="1"/>
        <pt x="298" y="450" on="0"/>
        <pt x="374" y="500" on="0"/>
        <pt x="402" y="500" on="1"/>
        <pt x="443" y="500" on="0"/>
        <pt x="443" y="459" on="1"/>
        <pt x="443" y="433" on="0"/>
        <pt x="381" y="360" on="0"/>
      </contour>
      <contour>
        <pt x="484" y="347" on="1"/>
        <pt x="467" y="347" on="0"/>
        <pt x="447" y="370" on="0"/>
        <pt x="446" y="382" on="1"/>
        <pt x="444" y="394" on="1"/>
        <pt x="449" y="442" on="0"/>
        <pt x="525" y="492" on="0"/>
        <pt x="553" y="492" on="1"/>
        <pt x="594" y="492" on="0"/>
        <pt x="594" y="451" on="1"/>
        <pt x="594" y="425" on="0"/>
        <pt x="532" y="352" on="0"/>
      </contour>
    </TTGlyph>
    <TTGlyph name="ae" xMin="38" yMin="-23" xMax="741" yMax="383">
      <contour>
        <pt x="502" y="194" on="1"/>
        <pt x="551" y="199" on="1"/>
        <pt x="585" y="199" on="0"/>
        <pt x="585" y="165" on="1"/>
        <pt x="585" y="147" on="0"/>
        <pt x="518" y="103" on="0"/>
        <pt x="452" y="66" on="0"/>
        <pt x="452" y="56" on="1"/>
        <pt x="452" y="49" on="0"/>
        <pt x="468" y="47" on="1"/>
        <pt x="503" y="47" on="0"/>
        <pt x="699" y="159" on="0"/>
        <pt x="706" y="159" on="1"/>
        <pt x="720" y="159" on="0"/>
        <pt x="720" y="145" on="1"/>
        <pt x="719" y="135" on="0"/>
        <pt x="594" y="56" on="0"/>
        <pt x="427" y="-17" on="0"/>
        <pt x="352" y="-17" on="0"/>
        <pt x="334" y="-1" on="1"/>
        <pt x="292" y="-23" on="0"/>
        <pt x="264" y="-23" on="0"/>
        <pt x="237" y="-3" on="0"/>
        <pt x="237" y="24" on="0"/>
        <pt x="251" y="56" on="0"/>
        <pt x="251" y="67" on="0"/>
        <pt x="245" y="67" on="0"/>
        <pt x="242" y="65" on="1"/>
        <pt x="145" y="-8" on="0"/>
        <pt x="99" y="-8" on="1"/>
        <pt x="73" y="-8" on="0"/>
        <pt x="43" y="30" on="0"/>
        <pt x="40" y="49" on="1"/>
        <pt x="38" y="68" on="1"/>
        <pt x="38" y="101" on="0"/>
        <pt x="89" y="188" on="0"/>
        <pt x="172" y="267" on="0"/>
        <pt x="293" y="321" on="0"/>
        <pt x="356" y="321" on="1"/>
        <pt x="392" y="321" on="0"/>
        <pt x="420" y="302" on="1"/>
        <pt x="462" y="337" on="0"/>
        <pt x="589" y="383" on="0"/>
        <pt x="683" y="383" on="0"/>
        <pt x="741" y="350" on="0"/>
        <pt x="741" y="283" on="0"/>
        <pt x="648" y="225" on="0"/>
        <pt x="628" y="225" on="1"/>
        <pt x="620" y="225" on="0"/>
        <pt x="607" y="233" on="0"/>
        <pt x="607" y="243" on="0"/>
        <pt x="662" y="266" on="0"/>
        <pt x="662" y="276" on="1"/>
        <pt x="662" y="281" on="0"/>
        <pt x="633" y="281" on="0"/>
        <pt x="473" y="218" on="0"/>
        <pt x="473" y="205" on="1"/>
        <pt x="473" y="194" on="0"/>
      </contour>
      <contour>
        <pt x="206" y="99" on="1"/>
        <pt x="206" y="88" on="0"/>
        <pt x="236" y="88" on="0"/>
        <pt x="394" y="173" on="0"/>
        <pt x="411" y="180" on="1"/>
        <pt x="375" y="197" on="0"/>
        <pt x="372" y="221" on="1"/>
        <pt x="318" y="197" on="0"/>
        <pt x="206" y="121" on="0"/>
      </contour>
    </TTGlyph>
    <TTGlyph name="agrave" xMin="38" yMin="-23" xMax="453" yMax="517">
      <contour>
        <pt x="319" y="40" on="1"/>
        <pt x="319" y="35" on="0"/>
        <pt x="326" y="33" on="1"/>
        <pt x="333" y="33" on="0"/>
        <pt x="416" y="90" on="0"/>
        <pt x="427" y="96" on="0"/>
        <pt x="432" y="96" on="1"/>
        <pt x="446" y="96" on="0"/>
        <pt x="446" y="69" on="0"/>
        <pt x="305" y="-23" on="0"/>
        <pt x="276" y="-23" on="1"/>
        <pt x="264" y="-23" on="0"/>
        <pt x="237" y="-3" on="0"/>
        <pt x="237" y="24" on="0"/>
        <pt x="251" y="56" on="0"/>
        <pt x="251" y="67" on="0"/>
        <pt x="245" y="67" on="0"/>
        <pt x="242" y="65" on="1"/>
        <pt x="145" y="-8" on="0"/>
        <pt x="99" y="-8" on="1"/>
        <pt x="73" y="-8" on="0"/>
        <pt x="43" y="30" on="0"/>
        <pt x="40" y="49" on="1"/>
        <pt x="38" y="68" on="1"/>
        <pt x="38" y="101" on="0"/>
        <pt x="89" y="188" on="0"/>
        <pt x="172" y="267" on="0"/>
        <pt x="293" y="321" on="0"/>
        <pt x="356" y="321" on="1"/>
        <pt x="390" y="321" on="0"/>
        <pt x="449" y="285" on="0"/>
        <pt x="449" y="237" on="0"/>
        <pt x="402" y="232" on="1"/>
        <pt x="367" y="224" on="0"/>
        <pt x="206" y="125" on="0"/>
        <pt x="206" y="99" on="1"/>
        <pt x="206" y="88" on="0"/>
        <pt x="217" y="88" on="1"/>
        <pt x="237" y="88" on="0"/>
        <pt x="386" y="202" on="0"/>
        <pt x="416" y="202" on="0"/>
        <pt x="416" y="184" on="1"/>
        <pt x="416" y="171" on="0"/>
        <pt x="397" y="148" on="0"/>
        <pt x="393" y="143" on="1"/>
        <pt x="385" y="133" on="0"/>
        <pt x="319" y="64" on="0"/>
      </contour>
      <contour>
        <pt x="279" y="517" on="1"/>
        <pt x="327" y="517" on="0"/>
        <pt x="453" y="391" on="0"/>
        <pt x="453" y="347" on="1"/>
        <pt x="452" y="341" on="0"/>
        <pt x="442" y="336" on="1"/>
        <pt x="381" y="386" on="0"/>
        <pt x="351" y="396" on="1"/>
        <pt x="316" y="403" on="0"/>
        <pt x="288" y="417" on="1"/>
        <pt x="235" y="445" on="0"/>
        <pt x="235" y="472" on="1"/>
        <pt x="235" y="489" on="0"/>
        <pt x="260" y="517" on="0"/>
      </contour>
    </TTGlyph>
    <TTGlyph name="ampersand" xMin="-13" yMin="-49" xMax="971" yMax="719">
      <contour>
        <pt x="588" y="137" on="1"/>
        <pt x="573" y="136" on="0"/>
        <pt x="563" y="136" on="1"/>
        <pt x="525" y="136" on="0"/>
        <pt x="470" y="177" on="0"/>
        <pt x="470" y="215" on="1"/>
        <pt x="470" y="245" on="0"/>
        <pt x="592" y="309" on="0"/>
        <pt x="757" y="349" on="0"/>
        <pt x="889" y="349" on="0"/>
        <pt x="971" y="303" on="0"/>
        <pt x="971" y="254" on="1"/>
        <pt x="971" y="229" on="0"/>
        <pt x="827" y="180" on="0"/>
        <pt x="681" y="151" on="0"/>
        <pt x="681" y="150" on="1"/>
        <pt x="633" y="98" on="0"/>
        <pt x="493" y="16" on="0"/>
        <pt x="425" y="-6" on="1"/>
        <pt x="292" y="-49" on="0"/>
        <pt x="213" y="-49" on="1"/>
        <pt x="-13" y="-49" on="0"/>
        <pt x="-13" y="51" on="1"/>
        <pt x="-13" y="131" on="0"/>
        <pt x="171" y="310" on="0"/>
        <pt x="307" y="354" on="1"/>
        <pt x="313" y="356" on="0"/>
        <pt x="313" y="358" on="1"/>
        <pt x="313" y="366" on="0"/>
        <pt x="301" y="368" on="1"/>
        <pt x="236" y="375" on="0"/>
        <pt x="232" y="376" on="1"/>
        <pt x="177" y="388" on="0"/>
        <pt x="134" y="437" on="0"/>
        <pt x="134" y="463" on="1"/>
        <pt x="134" y="524" on="0"/>
        <pt x="308" y="646" on="0"/>
        <pt x="550" y="719" on="0"/>
        <pt x="652" y="719" on="1"/>
        <pt x="819" y="719" on="0"/>
        <pt x="819" y="625" on="1"/>
        <pt x="819" y="567" on="0"/>
        <pt x="701" y="449" on="0"/>
        <pt x="669" y="449" on="1"/>
        <pt x="662" y="449" on="0"/>
        <pt x="649" y="462" on="0"/>
        <pt x="649" y="483" on="0"/>
        <pt x="688" y="527" on="0"/>
        <pt x="688" y="549" on="0"/>
        <pt x="663" y="549" on="1"/>
        <pt x="598" y="549" on="0"/>
        <pt x="307" y="442" on="0"/>
        <pt x="306" y="415" on="1"/>
        <pt x="307" y="408" on="0"/>
        <pt x="358" y="408" on="0"/>
        <pt x="423" y="418" on="0"/>
        <pt x="440" y="418" on="1"/>
        <pt x="485" y="418" on="0"/>
        <pt x="485" y="394" on="1"/>
        <pt x="485" y="381" on="0"/>
        <pt x="455" y="365" on="0"/>
        <pt x="434" y="356" on="0"/>
        <pt x="415" y="348" on="1"/>
        <pt x="304" y="305" on="0"/>
        <pt x="193" y="182" on="0"/>
        <pt x="193" y="79" on="0"/>
        <pt x="277" y="32" on="0"/>
        <pt x="430" y="32" on="0"/>
        <pt x="588" y="97" on="0"/>
      </contour>
    </TTGlyph>
    <TTGlyph name="apple" xMin="0" yMin="-12" xMax="632" yMax="738">
      <contour>
        <pt x="434" y="738" on="1"/>
        <pt x="344" y="653" on="1"/>
        <pt x="335" y="654" on="0"/>
        <pt x="297" y="654" on="0"/>
        <pt x="288" y="653" on="1"/>
        <pt x="198" y="738" on="1"/>
        <pt x="257" y="738" on="1"/>
        <pt x="315" y="677" on="1"/>
        <pt x="374" y="738" on="1"/>
      </contour>
      <contour>
        <pt x="632" y="434" on="0"/>
        <pt x="632" y="174" on="0"/>
        <pt x="446" y="-12" on="0"/>
        <pt x="185" y="-12" on="0"/>
        <pt x="0" y="173" on="0"/>
        <pt x="0" y="435" on="0"/>
        <pt x="185" y="620" on="0"/>
        <pt x="446" y="620" on="0"/>
      </contour>
      <contour>
        <pt x="586" y="192" on="0"/>
        <pt x="586" y="416" on="0"/>
        <pt x="428" y="575" on="0"/>
        <pt x="204" y="575" on="0"/>
        <pt x="45" y="416" on="0"/>
        <pt x="45" y="192" on="0"/>
        <pt x="204" y="33" on="0"/>
        <pt x="428" y="33" on="0"/>
      </contour>
      <contour>
        <pt x="458" y="204" on="1"/>
        <pt x="458" y="151" on="0"/>
        <pt x="369" y="96" on="0"/>
        <pt x="254" y="96" on="0"/>
        <pt x="174" y="135" on="1"/>
        <pt x="183" y="182" on="1"/>
        <pt x="249" y="141" on="0"/>
        <pt x="311" y="141" on="1"/>
        <pt x="351" y="141" on="0"/>
        <pt x="401" y="174" on="0"/>
        <pt x="401" y="223" on="0"/>
        <pt x="356" y="262" on="0"/>
        <pt x="292" y="293" on="0"/>
        <pt x="228" y="327" on="0"/>
        <pt x="183" y="378" on="0"/>
        <pt x="183" y="409" on="1"/>
        <pt x="183" y="463" on="0"/>
        <pt x="262" y="512" on="0"/>
        <pt x="314" y="512" on="1"/>
        <pt x="351" y="512" on="0"/>
        <pt x="374" y="501" on="1"/>
        <pt x="420" y="479" on="0"/>
        <pt x="435" y="469" on="1"/>
        <pt x="424" y="426" on="1"/>
        <pt x="376" y="468" on="0"/>
        <pt x="317" y="468" on="1"/>
        <pt x="281" y="468" on="0"/>
        <pt x="237" y="437" on="0"/>
        <pt x="237" y="390" on="0"/>
        <pt x="283" y="354" on="0"/>
        <pt x="348" y="327" on="0"/>
        <pt x="412" y="296" on="0"/>
        <pt x="458" y="241" on="0"/>
      </contour>
    </TTGlyph>
    <TTGlyph name="aring" xMin="38" yMin="-23" xMax="542" yMax="496">
      <contour>
        <pt x="498" y="496" on="1"/>
        <pt x="517" y="496" on="0"/>
        <pt x="539" y="476" on="0"/>
        <pt x="540" y="466" on="1"/>
        <pt x="542" y="457" on="1"/>
        <pt x="542" y="411" on="0"/>
        <pt x="458" y="360" on="0"/>
        <pt x="423" y="360" on="1"/>
        <pt x="365" y="360" on="0"/>
        <pt x="365" y="397" on="1"/>
        <pt x="365" y="429" on="0"/>
        <pt x="447" y="496" on="0"/>
      </contour>
      <contour>
        <pt x="448" y="403" on="1"/>
        <pt x="489" y="416" on="0"/>
        <pt x="489" y="442" on="1"/>
        <pt x="489" y="453" on="0"/>
        <pt x="463" y="453" on="0"/>
        <pt x="434" y="425" on="0"/>
        <pt x="434" y="413" on="1"/>
        <pt x="434" y="403" on="0"/>
      </contour>
      <contour>
        <pt x="319" y="40" on="1"/>
        <pt x="319" y="35" on="0"/>
        <pt x="326" y="33" on="1"/>
        <pt x="333" y="33" on="0"/>
        <pt x="416" y="90" on="0"/>
        <pt x="427" y="96" on="0"/>
        <pt x="432" y="96" on="1"/>
        <pt x="446" y="96" on="0"/>
        <pt x="446" y="69" on="0"/>
        <pt x="305" y="-23" on="0"/>
        <pt x="276" y="-23" on="1"/>
        <pt x="264" y="-23" on="0"/>
        <pt x="237" y="-3" on="0"/>
        <pt x="237" y="24" on="0"/>
        <pt x="251" y="56" on="0"/>
        <pt x="251" y="67" on="0"/>
        <pt x="245" y="67" on="0"/>
        <pt x="242" y="65" on="1"/>
        <pt x="145" y="-8" on="0"/>
        <pt x="99" y="-8" on="1"/>
        <pt x="73" y="-8" on="0"/>
        <pt x="43" y="30" on="0"/>
        <pt x="40" y="49" on="1"/>
        <pt x="38" y="68" on="1"/>
        <pt x="38" y="101" on="0"/>
        <pt x="89" y="188" on="0"/>
        <pt x="172" y="267" on="0"/>
        <pt x="293" y="321" on="0"/>
        <pt x="356" y="321" on="1"/>
        <pt x="390" y="321" on="0"/>
        <pt x="449" y="285" on="0"/>
        <pt x="449" y="237" on="0"/>
        <pt x="402" y="232" on="1"/>
        <pt x="367" y="224" on="0"/>
        <pt x="206" y="125" on="0"/>
        <pt x="206" y="99" on="1"/>
        <pt x="206" y="88" on="0"/>
        <pt x="217" y="88" on="1"/>
        <pt x="237" y="88" on="0"/>
        <pt x="386" y="202" on="0"/>
        <pt x="416" y="202" on="0"/>
        <pt x="416" y="184" on="1"/>
        <pt x="416" y="171" on="0"/>
        <pt x="397" y="148" on="0"/>
        <pt x="393" y="143" on="1"/>
        <pt x="385" y="133" on="0"/>
        <pt x="319" y="64" on="0"/>
      </contour>
    </TTGlyph>
    <TTGlyph name="asciicircum" xMin="45" yMin="245" xMax="353" yMax="500">
      <contour>
        <pt x="315" y="500" on="0"/>
        <pt x="353" y="340" on="0"/>
        <pt x="353" y="245" on="0"/>
        <pt x="312" y="245" on="0"/>
        <pt x="283" y="308" on="0"/>
        <pt x="261" y="408" on="0"/>
        <pt x="261" y="409" on="1"/>
        <pt x="205" y="393" on="0"/>
        <pt x="75" y="324" on="1"/>
        <pt x="64" y="320" on="0"/>
        <pt x="45" y="320" on="0"/>
        <pt x="45" y="329" on="1"/>
        <pt x="45" y="350" on="0"/>
        <pt x="118" y="430" on="0"/>
        <pt x="242" y="500" on="0"/>
        <pt x="300" y="500" on="1"/>
      </contour>
    </TTGlyph>
    <TTGlyph name="asciitilde" xMin="109" yMin="95" xMax="450" yMax="228">
      <contour>
        <pt x="436" y="193" on="0"/>
        <pt x="450" y="178" on="0"/>
        <pt x="449" y="166" on="0"/>
        <pt x="445" y="156" on="0"/>
        <pt x="427" y="130" on="0"/>
        <pt x="416" y="120" on="1"/>
        <pt x="386" y="95" on="0"/>
        <pt x="341" y="95" on="1"/>
        <pt x="315" y="99" on="0"/>
        <pt x="175" y="156" on="0"/>
        <pt x="151" y="158" on="0"/>
        <pt x="136" y="145" on="0"/>
        <pt x="122" y="146" on="0"/>
        <pt x="109" y="158" on="0"/>
        <pt x="109" y="166" on="1"/>
        <pt x="109" y="167" on="1"/>
        <pt x="122" y="193" on="0"/>
        <pt x="176" y="228" on="0"/>
        <pt x="226" y="228" on="0"/>
        <pt x="379" y="172" on="0"/>
        <pt x="410" y="172" on="0"/>
        <pt x="424" y="194" on="0"/>
      </contour>
    </TTGlyph>
    <TTGlyph name="asterisk" xMin="131" yMin="262" xMax="487" yMax="558">
      <contour>
        <pt x="193" y="485" on="1"/>
        <pt x="193" y="490" on="0"/>
        <pt x="195" y="504" on="0"/>
        <pt x="218" y="527" on="0"/>
        <pt x="238" y="527" on="1"/>
        <pt x="277" y="527" on="0"/>
        <pt x="321" y="473" on="1"/>
        <pt x="380" y="558" on="0"/>
        <pt x="427" y="558" on="1"/>
        <pt x="441" y="558" on="0"/>
        <pt x="472" y="532" on="0"/>
        <pt x="472" y="517" on="1"/>
        <pt x="472" y="492" on="0"/>
        <pt x="432" y="450" on="1"/>
        <pt x="460" y="446" on="0"/>
        <pt x="484" y="428" on="0"/>
        <pt x="487" y="406" on="1"/>
        <pt x="485" y="351" on="0"/>
        <pt x="398" y="351" on="1"/>
        <pt x="418" y="309" on="0"/>
        <pt x="418" y="268" on="0"/>
        <pt x="405" y="268" on="1"/>
        <pt x="407" y="273" on="0"/>
        <pt x="330" y="339" on="0"/>
        <pt x="313" y="351" on="1"/>
        <pt x="292" y="330" on="0"/>
        <pt x="250" y="276" on="1"/>
        <pt x="238" y="262" on="1"/>
        <pt x="225" y="262" on="0"/>
        <pt x="225" y="304" on="0"/>
        <pt x="258" y="370" on="1"/>
        <pt x="131" y="401" on="0"/>
        <pt x="131" y="430" on="1"/>
        <pt x="131" y="434" on="0"/>
        <pt x="135" y="438" on="1"/>
        <pt x="179" y="435" on="0"/>
        <pt x="219" y="434" on="1"/>
        <pt x="193" y="465" on="0"/>
      </contour>
    </TTGlyph>
    <TTGlyph name="at" xMin="109" yMin="-83" xMax="676" yMax="445">
      <contour>
        <pt x="486" y="75" on="1"/>
        <pt x="549" y="76" on="0"/>
        <pt x="638" y="173" on="0"/>
        <pt x="638" y="314" on="0"/>
        <pt x="571" y="385" on="0"/>
        <pt x="451" y="385" on="0"/>
        <pt x="299" y="305" on="0"/>
        <pt x="194" y="181" on="0"/>
        <pt x="194" y="124" on="1"/>
        <pt x="194" y="36" on="0"/>
        <pt x="305" y="-53" on="0"/>
        <pt x="450" y="-53" on="0"/>
        <pt x="564" y="1" on="0"/>
        <pt x="587" y="46" on="1"/>
        <pt x="598" y="18" on="0"/>
        <pt x="598" y="14" on="1"/>
        <pt x="598" y="-24" on="0"/>
        <pt x="457" y="-83" on="0"/>
        <pt x="369" y="-83" on="1"/>
        <pt x="266" y="-83" on="0"/>
        <pt x="192" y="-36" on="1"/>
        <pt x="154" y="-12" on="0"/>
        <pt x="109" y="75" on="0"/>
        <pt x="109" y="211" on="0"/>
        <pt x="167" y="334" on="0"/>
        <pt x="215" y="370" on="1"/>
        <pt x="313" y="445" on="0"/>
        <pt x="436" y="445" on="1"/>
        <pt x="535" y="445" on="0"/>
        <pt x="676" y="349" on="0"/>
        <pt x="676" y="175" on="0"/>
        <pt x="552" y="30" on="0"/>
        <pt x="446" y="30" on="1"/>
        <pt x="436" y="30" on="0"/>
        <pt x="415" y="46" on="0"/>
        <pt x="415" y="68" on="0"/>
        <pt x="426" y="94" on="0"/>
        <pt x="426" y="102" on="0"/>
        <pt x="421" y="102" on="0"/>
        <pt x="417" y="98" on="1"/>
        <pt x="341" y="42" on="0"/>
        <pt x="304" y="42" on="1"/>
        <pt x="284" y="42" on="0"/>
        <pt x="259" y="72" on="0"/>
        <pt x="257" y="88" on="1"/>
        <pt x="255" y="103" on="1"/>
        <pt x="255" y="163" on="0"/>
        <pt x="412" y="305" on="0"/>
        <pt x="510" y="305" on="1"/>
        <pt x="537" y="305" on="0"/>
        <pt x="584" y="276" on="0"/>
        <pt x="584" y="239" on="0"/>
        <pt x="547" y="234" on="1"/>
        <pt x="520" y="228" on="0"/>
        <pt x="390" y="149" on="0"/>
        <pt x="390" y="128" on="1"/>
        <pt x="390" y="119" on="0"/>
        <pt x="414" y="119" on="0"/>
        <pt x="534" y="210" on="0"/>
        <pt x="558" y="210" on="0"/>
        <pt x="558" y="182" on="0"/>
        <pt x="480" y="99" on="0"/>
        <pt x="480" y="80" on="1"/>
      </contour>
    </TTGlyph>
    <TTGlyph name="atilde" xMin="38" yMin="-23" xMax="568" yMax="486">
      <contour>
        <pt x="554" y="451" on="0"/>
        <pt x="568" y="436" on="0"/>
        <pt x="567" y="424" on="0"/>
        <pt x="563" y="414" on="0"/>
        <pt x="545" y="388" on="0"/>
        <pt x="534" y="378" on="1"/>
        <pt x="504" y="353" on="0"/>
        <pt x="459" y="353" on="1"/>
        <pt x="433" y="357" on="0"/>
        <pt x="359" y="414" on="0"/>
        <pt x="336" y="416" on="0"/>
        <pt x="321" y="403" on="0"/>
        <pt x="307" y="404" on="0"/>
        <pt x="294" y="416" on="0"/>
        <pt x="294" y="424" on="1"/>
        <pt x="294" y="425" on="1"/>
        <pt x="307" y="451" on="0"/>
        <pt x="361" y="486" on="0"/>
        <pt x="411" y="486" on="0"/>
        <pt x="497" y="430" on="0"/>
        <pt x="528" y="430" on="0"/>
        <pt x="542" y="452" on="0"/>
      </contour>
      <contour>
        <pt x="319" y="40" on="1"/>
        <pt x="319" y="35" on="0"/>
        <pt x="326" y="33" on="1"/>
        <pt x="333" y="33" on="0"/>
        <pt x="416" y="90" on="0"/>
        <pt x="427" y="96" on="0"/>
        <pt x="432" y="96" on="1"/>
        <pt x="446" y="96" on="0"/>
        <pt x="446" y="69" on="0"/>
        <pt x="305" y="-23" on="0"/>
        <pt x="276" y="-23" on="1"/>
        <pt x="264" y="-23" on="0"/>
        <pt x="237" y="-3" on="0"/>
        <pt x="237" y="24" on="0"/>
        <pt x="251" y="56" on="0"/>
        <pt x="251" y="67" on="0"/>
        <pt x="245" y="67" on="0"/>
        <pt x="242" y="65" on="1"/>
        <pt x="145" y="-8" on="0"/>
        <pt x="99" y="-8" on="1"/>
        <pt x="73" y="-8" on="0"/>
        <pt x="43" y="30" on="0"/>
        <pt x="40" y="49" on="1"/>
        <pt x="38" y="68" on="1"/>
        <pt x="38" y="101" on="0"/>
        <pt x="89" y="188" on="0"/>
        <pt x="172" y="267" on="0"/>
        <pt x="293" y="321" on="0"/>
        <pt x="356" y="321" on="1"/>
        <pt x="390" y="321" on="0"/>
        <pt x="449" y="285" on="0"/>
        <pt x="449" y="237" on="0"/>
        <pt x="402" y="232" on="1"/>
        <pt x="367" y="224" on="0"/>
        <pt x="206" y="125" on="0"/>
        <pt x="206" y="99" on="1"/>
        <pt x="206" y="88" on="0"/>
        <pt x="217" y="88" on="1"/>
        <pt x="237" y="88" on="0"/>
        <pt x="386" y="202" on="0"/>
        <pt x="416" y="202" on="0"/>
        <pt x="416" y="184" on="1"/>
        <pt x="416" y="171" on="0"/>
        <pt x="397" y="148" on="0"/>
        <pt x="393" y="143" on="1"/>
        <pt x="385" y="133" on="0"/>
        <pt x="319" y="64" on="0"/>
      </contour>
    </TTGlyph>
    <TTGlyph name="b" xMin="33" yMin="-14" xMax="637" yMax="691">
      <contour>
        <pt x="339" y="273" on="1"/>
        <pt x="381" y="277" on="1"/>
        <pt x="395" y="277" on="0"/>
        <pt x="395" y="261" on="1"/>
        <pt x="395" y="254" on="0"/>
        <pt x="378" y="195" on="1"/>
        <pt x="402" y="184" on="0"/>
        <pt x="461" y="184" on="0"/>
        <pt x="478" y="211" on="1"/>
        <pt x="488" y="211" on="0"/>
        <pt x="488" y="201" on="1"/>
        <pt x="487" y="181" on="0"/>
        <pt x="439" y="157" on="0"/>
        <pt x="389" y="157" on="0"/>
        <pt x="367" y="162" on="1"/>
        <pt x="366" y="116" on="0"/>
        <pt x="184" y="-14" on="0"/>
        <pt x="112" y="-14" on="1"/>
        <pt x="33" y="-14" on="0"/>
        <pt x="33" y="78" on="1"/>
        <pt x="33" y="144" on="0"/>
        <pt x="292" y="446" on="0"/>
        <pt x="576" y="691" on="0"/>
        <pt x="616" y="691" on="1"/>
        <pt x="627" y="691" on="0"/>
        <pt x="637" y="641" on="0"/>
        <pt x="637" y="616" on="1"/>
        <pt x="637" y="599" on="0"/>
        <pt x="488" y="448" on="0"/>
        <pt x="339" y="294" on="0"/>
      </contour>
      <contour>
        <pt x="299" y="220" on="1"/>
        <pt x="299" y="231" on="1"/>
        <pt x="287" y="232" on="0"/>
        <pt x="162" y="65" on="0"/>
        <pt x="162" y="55" on="1"/>
        <pt x="162" y="51" on="0"/>
        <pt x="166" y="51" on="1"/>
        <pt x="214" y="51" on="0"/>
        <pt x="321" y="138" on="0"/>
        <pt x="321" y="179" on="1"/>
        <pt x="316" y="184" on="0"/>
        <pt x="308" y="190" on="0"/>
        <pt x="303" y="197" on="0"/>
        <pt x="302" y="200" on="1"/>
        <pt x="299" y="209" on="0"/>
      </contour>
    </TTGlyph>
    <TTGlyph name="backslash" xMin="141" yMin="-170" xMax="331" yMax="821">
      <contour>
        <pt x="331" y="-133" on="1"/>
        <pt x="331" y="-146" on="0"/>
        <pt x="315" y="-170" on="0"/>
        <pt x="287" y="-170" on="0"/>
        <pt x="270" y="-145" on="0"/>
        <pt x="269" y="-137" on="1"/>
        <pt x="246" y="1" on="0"/>
        <pt x="141" y="729" on="0"/>
        <pt x="141" y="798" on="1"/>
        <pt x="141" y="821" on="0"/>
        <pt x="164" y="821" on="1"/>
        <pt x="197" y="821" on="0"/>
        <pt x="202" y="765" on="1"/>
      </contour>
    </TTGlyph>
    <TTGlyph name="bar" xMin="57" yMin="-148" xMax="295" yMax="764">
      <contour>
        <pt x="243" y="764" on="1"/>
        <pt x="248" y="764" on="1"/>
        <pt x="262" y="761" on="0"/>
        <pt x="295" y="735" on="0"/>
        <pt x="295" y="730" on="1"/>
        <pt x="118" y="-117" on="1"/>
        <pt x="116" y="-135" on="0"/>
        <pt x="92" y="-148" on="0"/>
        <pt x="77" y="-148" on="0"/>
        <pt x="71" y="-145" on="1"/>
        <pt x="57" y="-138" on="0"/>
        <pt x="57" y="-105" on="0"/>
        <pt x="78" y="-14" on="1"/>
        <pt x="169" y="390" on="0"/>
      </contour>
    </TTGlyph>
    <TTGlyph name="braceleft" xMin="35" yMin="-139" xMax="428" yMax="775">
      <contour>
        <pt x="192" y="398" on="0"/>
        <pt x="237" y="453" on="0"/>
        <pt x="237" y="570" on="0"/>
        <pt x="202" y="668" on="1"/>
        <pt x="196" y="681" on="0"/>
        <pt x="196" y="736" on="0"/>
        <pt x="231" y="775" on="0"/>
        <pt x="257" y="775" on="1"/>
        <pt x="306" y="775" on="0"/>
        <pt x="428" y="690" on="0"/>
        <pt x="428" y="663" on="1"/>
        <pt x="428" y="645" on="0"/>
        <pt x="412" y="645" on="1"/>
        <pt x="405" y="645" on="0"/>
        <pt x="340" y="681" on="0"/>
        <pt x="335" y="681" on="1"/>
        <pt x="334" y="681" on="1"/>
        <pt x="334" y="672" on="0"/>
        <pt x="356" y="524" on="0"/>
        <pt x="356" y="428" on="0"/>
        <pt x="335" y="361" on="0"/>
        <pt x="303" y="334" on="0"/>
        <pt x="271" y="321" on="0"/>
        <pt x="245" y="314" on="0"/>
        <pt x="243" y="309" on="1"/>
        <pt x="243" y="304" on="0"/>
        <pt x="274" y="280" on="0"/>
        <pt x="306" y="234" on="0"/>
        <pt x="306" y="163" on="0"/>
        <pt x="256" y="53" on="0"/>
        <pt x="178" y="-73" on="0"/>
        <pt x="177" y="-75" on="1"/>
        <pt x="178" y="-79" on="0"/>
        <pt x="189" y="-79" on="0"/>
        <pt x="267" y="-36" on="0"/>
        <pt x="275" y="-36" on="1"/>
        <pt x="288" y="-42" on="0"/>
        <pt x="288" y="-51" on="1"/>
        <pt x="288" y="-77" on="0"/>
        <pt x="165" y="-139" on="0"/>
        <pt x="112" y="-139" on="1"/>
        <pt x="82" y="-139" on="0"/>
        <pt x="35" y="-108" on="0"/>
        <pt x="35" y="-43" on="0"/>
        <pt x="81" y="27" on="0"/>
        <pt x="135" y="85" on="0"/>
        <pt x="181" y="167" on="0"/>
        <pt x="181" y="251" on="0"/>
        <pt x="145" y="269" on="1"/>
        <pt x="94" y="292" on="0"/>
        <pt x="94" y="346" on="0"/>
        <pt x="139" y="381" on="0"/>
      </contour>
    </TTGlyph>
    <TTGlyph name="braceright" xMin="46" yMin="-160" xMax="459" yMax="751">
      <contour>
        <pt x="301" y="690" on="1"/>
        <pt x="235" y="687" on="1"/>
        <pt x="230" y="687" on="0"/>
        <pt x="220" y="696" on="0"/>
        <pt x="220" y="703" on="1"/>
        <pt x="222" y="727" on="0"/>
        <pt x="317" y="751" on="0"/>
        <pt x="379" y="751" on="1"/>
        <pt x="459" y="745" on="0"/>
        <pt x="459" y="683" on="1"/>
        <pt x="458" y="665" on="0"/>
        <pt x="443" y="633" on="0"/>
        <pt x="430" y="619" on="1"/>
        <pt x="310" y="497" on="0"/>
        <pt x="310" y="414" on="1"/>
        <pt x="310" y="386" on="0"/>
        <pt x="382" y="299" on="0"/>
        <pt x="382" y="270" on="1"/>
        <pt x="382" y="234" on="0"/>
        <pt x="313" y="234" on="1"/>
        <pt x="280" y="234" on="0"/>
        <pt x="260" y="206" on="1"/>
        <pt x="238" y="174" on="0"/>
        <pt x="238" y="58" on="0"/>
        <pt x="275" y="-59" on="0"/>
        <pt x="275" y="-123" on="0"/>
        <pt x="233" y="-160" on="0"/>
        <pt x="210" y="-160" on="1"/>
        <pt x="161" y="-160" on="0"/>
        <pt x="46" y="-41" on="0"/>
        <pt x="46" y="-4" on="1"/>
        <pt x="46" y="13" on="0"/>
        <pt x="64" y="13" on="1"/>
        <pt x="71" y="13" on="0"/>
        <pt x="128" y="-66" on="0"/>
        <pt x="134" y="-66" on="1"/>
        <pt x="136" y="-66" on="0"/>
        <pt x="137" y="-64" on="1"/>
        <pt x="137" y="-54" on="0"/>
        <pt x="120" y="93" on="0"/>
        <pt x="120" y="193" on="0"/>
        <pt x="145" y="262" on="0"/>
        <pt x="180" y="289" on="0"/>
        <pt x="215" y="301" on="0"/>
        <pt x="240" y="307" on="0"/>
        <pt x="240" y="315" on="0"/>
        <pt x="210" y="338" on="0"/>
        <pt x="180" y="383" on="0"/>
        <pt x="180" y="437" on="0"/>
        <pt x="201" y="500" on="0"/>
        <pt x="241" y="572" on="0"/>
        <pt x="270" y="619" on="0"/>
        <pt x="315" y="687" on="0"/>
        <pt x="316" y="688" on="1"/>
        <pt x="314" y="690" on="0"/>
      </contour>
    </TTGlyph>
    <TTGlyph name="bracketleft" xMin="59" yMin="-139" xMax="441" yMax="775">
      <contour>
        <pt x="334" y="681" on="1"/>
        <pt x="177" y="-75" on="1"/>
        <pt x="178" y="-79" on="0"/>
        <pt x="189" y="-79" on="0"/>
        <pt x="267" y="-36" on="0"/>
        <pt x="275" y="-36" on="1"/>
        <pt x="288" y="-42" on="0"/>
        <pt x="288" y="-51" on="1"/>
        <pt x="288" y="-77" on="0"/>
        <pt x="165" y="-139" on="0"/>
        <pt x="112" y="-139" on="1"/>
        <pt x="86" y="-139" on="0"/>
        <pt x="59" y="-112" on="0"/>
        <pt x="59" y="-16" on="0"/>
        <pt x="127" y="252" on="0"/>
        <pt x="196" y="576" on="0"/>
        <pt x="196" y="701" on="1"/>
        <pt x="196" y="736" on="0"/>
        <pt x="231" y="775" on="0"/>
        <pt x="257" y="775" on="1"/>
        <pt x="310" y="775" on="0"/>
        <pt x="441" y="719" on="0"/>
        <pt x="441" y="695" on="1"/>
        <pt x="441" y="677" on="0"/>
        <pt x="425" y="677" on="1"/>
        <pt x="335" y="681" on="1"/>
      </contour>
    </TTGlyph>
    <TTGlyph name="bracketright" xMin="35" yMin="-139" xMax="424" yMax="775">
      <contour>
        <pt x="142" y="-45" on="1"/>
        <pt x="299" y="711" on="1"/>
        <pt x="298" y="715" on="0"/>
        <pt x="287" y="715" on="0"/>
        <pt x="209" y="672" on="0"/>
        <pt x="201" y="672" on="1"/>
        <pt x="188" y="678" on="0"/>
        <pt x="188" y="687" on="1"/>
        <pt x="188" y="713" on="0"/>
        <pt x="311" y="775" on="0"/>
        <pt x="364" y="775" on="1"/>
        <pt x="389" y="775" on="0"/>
        <pt x="424" y="739" on="0"/>
        <pt x="424" y="666" on="0"/>
        <pt x="388" y="532" on="1"/>
        <pt x="280" y="128" on="0"/>
        <pt x="280" y="-65" on="1"/>
        <pt x="280" y="-100" on="0"/>
        <pt x="245" y="-139" on="0"/>
        <pt x="219" y="-139" on="1"/>
        <pt x="166" y="-139" on="0"/>
        <pt x="35" y="-83" on="0"/>
        <pt x="35" y="-59" on="1"/>
        <pt x="35" y="-41" on="0"/>
        <pt x="51" y="-41" on="1"/>
        <pt x="141" y="-45" on="1"/>
      </contour>
    </TTGlyph>
    <TTGlyph name="breve" xMin="277" yMin="339" xMax="536" yMax="511">
      <contour>
        <pt x="277" y="477" on="1"/>
        <pt x="286" y="489" on="0"/>
        <pt x="309" y="489" on="1"/>
        <pt x="339" y="415" on="0"/>
        <pt x="385" y="415" on="1"/>
        <pt x="416" y="415" on="0"/>
        <pt x="490" y="476" on="0"/>
        <pt x="515" y="509" on="1"/>
        <pt x="517" y="511" on="0"/>
        <pt x="525" y="511" on="0"/>
        <pt x="536" y="501" on="0"/>
        <pt x="536" y="496" on="1"/>
        <pt x="536" y="446" on="0"/>
        <pt x="426" y="339" on="0"/>
        <pt x="371" y="339" on="1"/>
        <pt x="286" y="339" on="0"/>
      </contour>
    </TTGlyph>
    <TTGlyph name="brokenbar" xMin="57" yMin="-147" xMax="295" yMax="764">
      <contour>
        <pt x="170" y="420" on="1"/>
        <pt x="243" y="764" on="1"/>
        <pt x="248" y="764" on="1"/>
        <pt x="262" y="761" on="0"/>
        <pt x="295" y="735" on="0"/>
        <pt x="295" y="730" on="1"/>
        <pt x="223" y="387" on="1"/>
        <pt x="220" y="371" on="0"/>
        <pt x="194" y="371" on="0"/>
        <pt x="170" y="401" on="0"/>
      </contour>
      <contour>
        <pt x="57" y="-120" on="1"/>
        <pt x="143" y="298" on="1"/>
        <pt x="148" y="298" on="1"/>
        <pt x="162" y="295" on="0"/>
        <pt x="195" y="269" on="0"/>
        <pt x="195" y="264" on="1"/>
        <pt x="118" y="-117" on="1"/>
        <pt x="117" y="-120" on="0"/>
        <pt x="114" y="-130" on="0"/>
        <pt x="97" y="-147" on="0"/>
        <pt x="84" y="-147" on="1"/>
        <pt x="57" y="-147" on="0"/>
      </contour>
    </TTGlyph>
    <TTGlyph name="bullet" xMin="165" yMin="84" xMax="415" yMax="294">
      <contour>
        <pt x="238" y="256" on="0"/>
        <pt x="314" y="294" on="0"/>
        <pt x="386" y="294" on="0"/>
        <pt x="415" y="261" on="0"/>
        <pt x="415" y="236" on="1"/>
        <pt x="415" y="184" on="0"/>
        <pt x="295" y="84" on="0"/>
        <pt x="237" y="84" on="1"/>
        <pt x="198" y="84" on="0"/>
        <pt x="165" y="128" on="0"/>
        <pt x="165" y="155" on="1"/>
        <pt x="165" y="175" on="0"/>
        <pt x="215" y="230" on="1"/>
      </contour>
    </TTGlyph>
</ttFont>
